<svg id="Group_6" data-name="Group 6" xmlns="http://www.w3.org/2000/svg" width="120" height="120" viewBox="0 0 150 150">
  <rect id="Rectangle_1" data-name="Rectangle 1" width="150" height="150" rx="20" fill="#fff"/>
  <g id="amazon-web-services-logo" transform="translate(18.332 42.092)">
    <path id="Path_38" data-name="Path 38" d="M40.551,24.99a11.069,11.069,0,0,0,.4,3.256,19.581,19.581,0,0,0,1.171,2.634,1.591,1.591,0,0,1,.256.841,1.448,1.448,0,0,1-.7,1.1l-2.3,1.537a1.754,1.754,0,0,1-.951.329,1.683,1.683,0,0,1-1.1-.512,11.319,11.319,0,0,1-1.317-1.719c-.366-.622-.732-1.317-1.134-2.159a13.515,13.515,0,0,1-10.756,5.049,10.024,10.024,0,0,1-7.317-2.634A9.4,9.4,0,0,1,14.1,25.685a9.418,9.418,0,0,1,3.329-7.536c2.232-1.9,5.2-2.854,8.963-2.854a28.966,28.966,0,0,1,3.878.293c1.354.183,2.744.476,4.207.8V13.722c0-2.78-.585-4.719-1.719-5.854-1.171-1.134-3.146-1.683-5.963-1.683a16.646,16.646,0,0,0-3.951.476A29.151,29.151,0,0,0,18.893,7.9a10.5,10.5,0,0,1-1.28.476,2.244,2.244,0,0,1-.585.11c-.512,0-.768-.366-.768-1.134V5.563a2.315,2.315,0,0,1,.256-1.28,2.739,2.739,0,0,1,1.024-.768,21.062,21.062,0,0,1,4.61-1.646,22.181,22.181,0,0,1,5.707-.7c4.354,0,7.536.988,9.585,2.963,2.012,1.976,3.037,4.976,3.037,9V24.99ZM25.7,30.551a11.857,11.857,0,0,0,3.768-.659,8.153,8.153,0,0,0,3.476-2.341,5.807,5.807,0,0,0,1.244-2.341,13.134,13.134,0,0,0,.366-3.183V20.49a30.553,30.553,0,0,0-3.366-.622,27.567,27.567,0,0,0-3.439-.22c-2.451,0-4.244.476-5.451,1.463A5.1,5.1,0,0,0,20.5,25.319,5.107,5.107,0,0,0,21.856,29.2,5.073,5.073,0,0,0,25.7,30.551ZM55.075,34.5a2.042,2.042,0,0,1-1.39-.366,2.982,2.982,0,0,1-.768-1.427l-8.6-28.28a6.409,6.409,0,0,1-.329-1.463.8.8,0,0,1,.878-.915h3.585a2.028,2.028,0,0,1,1.427.366,2.993,2.993,0,0,1,.732,1.427l6.146,24.219L62.465,3.844a2.566,2.566,0,0,1,.7-1.427,2.517,2.517,0,0,1,1.463-.366H67.55a2.2,2.2,0,0,1,1.463.366,2.465,2.465,0,0,1,.7,1.427l5.78,24.512L81.819,3.844a3.137,3.137,0,0,1,.732-1.427,2.387,2.387,0,0,1,1.427-.366h3.4a.813.813,0,0,1,.915.915,3.649,3.649,0,0,1-.073.585,5.2,5.2,0,0,1-.256.915l-8.817,28.28a2.805,2.805,0,0,1-.768,1.427,2.341,2.341,0,0,1-1.39.366H73.843a2.2,2.2,0,0,1-1.463-.366,2.594,2.594,0,0,1-.7-1.463l-5.671-23.6L60.38,32.673a2.856,2.856,0,0,1-.7,1.463,2.268,2.268,0,0,1-1.463.366Zm47.012.988a24.21,24.21,0,0,1-5.634-.659,16.643,16.643,0,0,1-4.207-1.463,2.636,2.636,0,0,1-1.134-1.024,2.582,2.582,0,0,1-.22-1.024V29.453c0-.768.293-1.134.841-1.134a2.072,2.072,0,0,1,.659.11c.22.073.549.22.915.366a19.9,19.9,0,0,0,4.024,1.28,21.971,21.971,0,0,0,4.354.439,9.871,9.871,0,0,0,5.341-1.207,3.94,3.94,0,0,0,1.9-3.476,3.563,3.563,0,0,0-.988-2.561,9.179,9.179,0,0,0-3.7-1.9l-5.3-1.646a11.159,11.159,0,0,1-5.854-3.732,8.716,8.716,0,0,1-1.829-5.3,8.142,8.142,0,0,1,.988-4.061,9.407,9.407,0,0,1,2.634-3,11.612,11.612,0,0,1,3.8-1.9,15.945,15.945,0,0,1,4.61-.622,18.366,18.366,0,0,1,2.451.146c.841.11,1.61.256,2.378.4.732.183,1.427.366,2.085.585a7.985,7.985,0,0,1,1.537.659,3.164,3.164,0,0,1,1.1.915,1.972,1.972,0,0,1,.329,1.207V6.734c0,.768-.293,1.171-.841,1.171a3.806,3.806,0,0,1-1.39-.439,16.737,16.737,0,0,0-7.024-1.427A9.443,9.443,0,0,0,99.05,7.063a3.533,3.533,0,0,0-1.719,3.256,3.455,3.455,0,0,0,1.1,2.6,10.928,10.928,0,0,0,4.024,2.012l5.2,1.646a11.127,11.127,0,0,1,5.671,3.512A8.279,8.279,0,0,1,115,25.209a9.4,9.4,0,0,1-.951,4.244,9.839,9.839,0,0,1-2.671,3.219,11.793,11.793,0,0,1-4.061,2.049,17.4,17.4,0,0,1-5.232.768Z" transform="translate(-7.884)" fill="#252f3e"/>
    <g id="Group_5" data-name="Group 5" transform="translate(1.668 42.109)">
      <path id="Path_39" data-name="Path 39" d="M101.117,128.127c-12.036,8.89-29.524,13.61-44.56,13.61a80.615,80.615,0,0,1-54.4-20.744c-1.134-1.024-.11-2.415,1.244-1.61a109.713,109.713,0,0,0,54.438,14.451,108.633,108.633,0,0,0,41.524-8.488C101.373,124.432,103.093,126.664,101.117,128.127Z" transform="translate(-1.668 -116.966)" fill="#f90" fill-rule="evenodd"/>
      <path id="Path_40" data-name="Path 40" d="M261.064,118.646c-1.536-1.976-10.171-.951-14.085-.476-1.171.146-1.354-.878-.293-1.646,6.878-4.829,18.183-3.439,19.5-1.829,1.317,1.646-.366,12.951-6.8,18.366-.988.841-1.939.4-1.5-.7C259.345,128.744,262.6,120.585,261.064,118.646Z" transform="translate(-156.603 -113.192)" fill="#f90" fill-rule="evenodd"/>
    </g>
  </g>
</svg>
