<svg id="Group_17" data-name="Group 17" xmlns="http://www.w3.org/2000/svg" width="120" height="120" viewBox="0 0 150 150">
  <rect id="Rectangle_1" data-name="Rectangle 1" width="150" height="150" rx="20" fill="#fff"/>
  <g id="elementor-seeklogo.com" transform="translate(17.01 65.52)">
    <path id="Path_75" data-name="Path 75" d="M311.623,24l-1.746.418-1.215.276h-.01a4.177,4.177,0,0,1,.1-.992,1.708,1.708,0,0,1,.7-1.094,1.625,1.625,0,0,1,1.368-.077,1.356,1.356,0,0,1,.758,1.08c.025.127.042.257.054.384Zm3.168.691c0-3.17-2-4.532-4.549-4.532a4.424,4.424,0,0,0-4.693,4.549c0,2.773,1.537,4.58,4.851,4.58a7.933,7.933,0,0,0,4.01-.919l-.459-2.076a6.7,6.7,0,0,1-2.924.666c-1.253,0-1.965-.476-2.235-1.364h5.912a4.383,4.383,0,0,0,.079-.9" transform="translate(-239.374 -15.57)" fill="#92003b"/>
    <path id="Path_76" data-name="Path 76" d="M184.591,24l-1.744.418-1.215.276h-.013a4.176,4.176,0,0,1,.1-.992,1.711,1.711,0,0,1,.706-1.094,1.625,1.625,0,0,1,1.368-.077,1.358,1.358,0,0,1,.756,1.08c.025.127.042.257.054.384Zm3.168.691c0-3.17-2-4.532-4.549-4.532a4.423,4.423,0,0,0-4.691,4.549c0,2.773,1.537,4.58,4.849,4.58a7.928,7.928,0,0,0,4.01-.919l-.459-2.076A6.7,6.7,0,0,1,184,26.96c-1.253,0-1.967-.476-2.237-1.364h5.912a4.385,4.385,0,0,0,.079-.9" transform="translate(-138.872 -15.57)" fill="#92003b"/>
    <rect id="Rectangle_2" data-name="Rectangle 2" width="2.928" height="11.144" transform="translate(35.477 2.259)" fill="#92003b"/>
    <path id="Path_77" data-name="Path 77" d="M352.76,20.563h3.074l.647,1.971a3.261,3.261,0,0,1,2.924-2.224c2.22,0,3.425,1.126,3.425,4.026V29.09h-3.068V24.756a2.315,2.315,0,0,0-.19-1.23,1.51,1.51,0,0,0-.664-.566,1.811,1.811,0,0,0-1.671.025c-.132.069-.764.418-.764.57V29.09h-3.066V22.864Z" transform="translate(-276.724 -15.689)" fill="#92003b"/>
    <path id="Path_78" data-name="Path 78" d="M406.812,15.724H405.4V13.49h1.412v-1.4l3.074-.723v2.12h3.091v2.235h-3.091V18.23c0,.982.476,1.441,1.188,1.441a4.818,4.818,0,0,0,1.761-.3l.363,2.314a7.556,7.556,0,0,1-2.947.539c-2.237,0-3.44-1.061-3.44-3.133Z" transform="translate(-318.371 -8.616)" fill="#92003b"/>
    <path id="Path_79" data-name="Path 79" d="M450.432,26.555c1.126,0,1.792-.808,1.792-2.107S451.6,22.4,450.48,22.4s-1.775.746-1.775,2.088c0,1.27.627,2.061,1.727,2.061m.031-6.641c2.884,0,4.993,1.806,4.993,4.611s-2.109,4.519-5.025,4.519-4.962-1.74-4.962-4.517,2.045-4.611,4.993-4.611" transform="translate(-350.073 -15.372)" fill="#92003b"/>
    <path id="Path_80" data-name="Path 80" d="M239.859,20.431a3.341,3.341,0,0,0-1.746-.223,2.9,2.9,0,0,0-.865.263,3.879,3.879,0,0,0-1.637,1.957,2.867,2.867,0,0,0-1.671-2,3.356,3.356,0,0,0-1.748-.223,2.907,2.907,0,0,0-.862.263,3.874,3.874,0,0,0-1.637,1.951v-.056l-.627-1.909H226l.647,2.3v6.232H229.7V23.422c.013-.042.148-.119.173-.136a2.556,2.556,0,0,1,1.226-.549,1.385,1.385,0,0,1,1.165.562,1.224,1.224,0,0,1,.081.121,2.252,2.252,0,0,1,.188,1.23v4.336h3.072V23.424c0-.04.146-.121.171-.138a2.571,2.571,0,0,1,1.228-.549,1.38,1.38,0,0,1,1.178.562.944.944,0,0,1,.081.121,2.273,2.273,0,0,1,.19,1.23v4.336h3.076V24.23c0-1.4-.209-3.191-1.671-3.8" transform="translate(-176.437 -15.582)" fill="#92003b"/>
    <path id="Path_81" data-name="Path 81" d="M502.9,20.278a3.246,3.246,0,0,0-2.924,2.222l-.649-1.969H496.24l.647,2.3v6.23h3.076V23.3a15.4,15.4,0,0,1,3.266.526V20.28c-.109,0-.219-.01-.334-.01" transform="translate(-390.24 -15.657)" fill="#92003b"/>
    <path id="Path_82" data-name="Path 82" d="M114.431,24l-1.744.418-1.215.276h-.01a4.176,4.176,0,0,1,.1-.992,1.708,1.708,0,0,1,.7-1.094,1.625,1.625,0,0,1,1.368-.077,1.356,1.356,0,0,1,.758,1.08,3.462,3.462,0,0,1,.052.384Zm3.17.691c0-3.17-2-4.532-4.549-4.532a4.424,4.424,0,0,0-4.693,4.549c0,2.773,1.537,4.58,4.849,4.58a7.936,7.936,0,0,0,4.012-.919l-.459-2.076a6.706,6.706,0,0,1-2.924.666c-1.253,0-1.965-.476-2.235-1.364h5.912a4.386,4.386,0,0,0,.079-.9" transform="translate(-83.365 -15.57)" fill="#92003b"/>
    <path id="Path_83" data-name="Path 83" d="M11.776.48a8.784,8.784,0,1,0,8.782,8.783A8.784,8.784,0,0,0,11.776.48Z" transform="translate(0 0)" fill="#92003b"/>
    <rect id="Rectangle_3" data-name="Rectangle 3" width="1.464" height="7.32" transform="translate(8.115 5.603)" fill="#ff7be5"/>
    <rect id="Rectangle_4" data-name="Rectangle 4" width="4.392" height="1.464" transform="translate(11.043 11.459)" fill="#ff7be5"/>
    <rect id="Rectangle_5" data-name="Rectangle 5" width="4.392" height="1.464" transform="translate(11.043 8.531)" fill="#ff7be5"/>
    <rect id="Rectangle_6" data-name="Rectangle 6" width="4.392" height="1.464" transform="translate(11.043 5.603)" fill="#ff7be5"/>
  </g>
</svg>
