<svg xmlns="http://www.w3.org/2000/svg" xmlns:xlink="http://www.w3.org/1999/xlink" width="49.002" height="50.004" viewBox="0 0 49.002 50.004">
  <defs>
    <linearGradient id="linear-gradient" x1="0.5" x2="0.5" y2="1" gradientUnits="objectBoundingBox">
      <stop offset="0" stop-color="#04d48e"/>
      <stop offset="1" stop-color="#108f64"/>
    </linearGradient>
  </defs>
  <g id="Group_189" data-name="Group 189" transform="translate(-748.998 -369)">
    <g id="Group-3" transform="translate(750 370)" opacity="0.15">
      <path id="Rectangle-Copy" d="M6.064,4.37c7.533-5.753,30.38-6.1,36.342.594s6.287,32.443,0,38.238c-6.35,5.78-30.322,6.911-36.342.2C-2.556,34.36-1.469,10.123,6.064,4.37Z" stroke="#108f64" stroke-width="2" fill-rule="evenodd" fill="url(#linear-gradient)"/>
    </g>
    <g id="Group-3-2" data-name="Group-3" transform="translate(750 370)">
      <path id="Rectangle-Copy-2" data-name="Rectangle-Copy" d="M6.064,4.37c7.533-5.753,30.38-6.1,36.342.594s6.287,32.443,0,38.238c-6.35,5.78-30.322,6.911-36.342.2C-2.556,34.36-1.469,10.123,6.064,4.37Z" fill-rule="evenodd" fill="url(#linear-gradient)"/>
    </g>
    <g id="EAD-logo-op" transform="translate(761.022 386)">
      <g id="Combined-Shape" transform="translate(-0.612 -0.538)">
        <path id="Path_14086" data-name="Path 14086" d="M15.723,0A1.067,1.067,0,0,1,16.5.332h0L20.26,4.285V16a1.078,1.078,0,0,1-.313.761,1.065,1.065,0,0,1-.757.315H6.957a1.065,1.065,0,0,1-.757-.315A1.079,1.079,0,0,1,5.887,16h0V1.077A1.079,1.079,0,0,1,6.2.315,1.065,1.065,0,0,1,6.957,0h8.766Zm6.411,7.693.016.012,3.779,3.077a.579.579,0,0,1,.016.884l-.016.013L22.15,14.757a.571.571,0,0,1-.806-.086.579.579,0,0,1,.069-.8l.016-.013,3.228-2.629L21.428,8.6a.579.579,0,0,1-.1-.8l.012-.016A.571.571,0,0,1,22.134,7.693ZM4.837,2.868a.579.579,0,0,1-.07.8l-.015.013L1.523,6.308,4.752,8.937a.579.579,0,0,1,.1.8l-.012.016a.571.571,0,0,1-.791.1L4.03,9.834.251,6.757a.579.579,0,0,1-.015-.884L.251,5.86,4.03,2.782A.571.571,0,0,1,4.837,2.868Zm10.1-1.378-.013.013a.641.641,0,0,0-.173.439V4.9a.628.628,0,0,0,.622.635h3.037a.628.628,0,0,0,.622-.635.64.64,0,0,0-.192-.459L15.808,1.484A.614.614,0,0,0,14.941,1.49Z" fill="#fff"/>
      </g>
    </g>
  </g>
</svg>
