<svg id="Group_4" data-name="Group 4" xmlns="http://www.w3.org/2000/svg" width="120" height="120" viewBox="0 0 150 150">
  <rect id="Rectangle_1" data-name="Rectangle 1" width="150" height="150" rx="20" fill="#fff"/>
  <g id="kpo5kblefbjq79065-Horizontal_Default" transform="translate(20 60)">
    <path id="Path_12" data-name="Path 12" d="M12.805,11.56c-1.53-6.75-4.72-8.55-5.54-9.82A14.253,14.253,0,0,1,6.375,0a1.75,1.75,0,0,1-.63,1.43,16.191,16.191,0,0,0-5.73,12.13c-.34,7.16,5.26,11.571,6,12.021a1.637,1.637,0,0,0,1.6-.25A13.9,13.9,0,0,0,12.805,11.56Z" transform="translate(0)" fill="#13aa52"/>
    <path id="Path_13" data-name="Path 13" d="M8.879,29.979a14.557,14.557,0,0,1-.6,3.81s.23,1.69.4,3.47h.58a31.429,31.429,0,0,1,.64-3.74C9.149,33.149,8.909,31.529,8.879,29.979Z" transform="translate(-2.264 -8.198)" fill="#b8c4c2"/>
    <path id="Path_14" data-name="Path 14" d="M10.065,25.374c-.76-.35-.98-2.01-1.02-3.55a74.877,74.877,0,0,0,.17-7.64c-.04-1.34.02-12.371-.33-13.991a13.259,13.259,0,0,0,.82,1.59c.81,1.27,4.01,3.07,5.54,9.82A13.931,13.931,0,0,1,10.065,25.374Z" transform="translate(-2.43 -0.053)" fill="#12924f"/>
    <path id="Path_15" data-name="Path 15" d="M148.494,30.244a1.626,1.626,0,1,1,.07,0Zm0-3.17a1.51,1.51,0,1,0,1.5,1.52v-.01a1.479,1.479,0,0,0-1.46-1.51Zm.4,2.56-.429-.92h-.34v.92h-.25v-2.1h.62c.46,0,.65.2.65.59a.507.507,0,0,1-.42.56l.44.95Zm-.76-1.14h.36c.29,0,.41-.1.41-.37s-.11-.36-.44-.36h-.331Z" transform="translate(-40.155 -7.363)" fill="#21313c"/>
    <path id="Path_16" data-name="Path 16" d="M113.375,24.992a3.815,3.815,0,0,0,2.14.51,4.15,4.15,0,0,0,3.01-1.08,5.732,5.732,0,0,0,1.69-4.52,5.373,5.373,0,0,0-2.48-4.88,6.644,6.644,0,0,0-3.55-.82,2.888,2.888,0,0,0-1.05.13.535.535,0,0,0-.19.3c-.04.38-.04,3.27-.04,4.98,0,1.75,0,4.2.04,4.5A1.279,1.279,0,0,0,113.375,24.992Zm-4.26-11.75c.36,0,1.74.06,2.38.06,1.2,0,2.031-.06,4.271-.06a6.913,6.913,0,0,1,4.59,1.48,6.138,6.138,0,0,1,2.1,4.84,6.279,6.279,0,0,1-2.61,5.43,8.638,8.638,0,0,1-5.4,1.52c-1.28,0-3.48-.04-5.32-.06h-.03c-.09-.17.16-.83.31-.84a2.988,2.988,0,0,0,.859-.17c.39-.16.48-.36.52-1.05.06-1.31.04-2.87.04-4.65,0-1.27.02-3.74-.02-4.52-.07-.65-.34-.82-.9-.95-.4-.08-.8-.15-1.2-.19A1.99,1.99,0,0,1,109.115,13.242Z" transform="translate(-29.727 -3.621)" fill="#21313c"/>
    <path id="Path_17" data-name="Path 17" d="M133.335,14.337c-.081.02-.19.23-.19.34-.02.76-.04,2.75-.04,4.12a.139.139,0,0,0,.11.11c.28.02.96.04,1.54.04a3.826,3.826,0,0,0,1.54-.23,2,2,0,0,0,1-1.88c0-1.84-1.279-2.53-3.18-2.53A3.356,3.356,0,0,0,133.335,14.337Zm4.85,8.44c0-1.86-1.37-2.91-3.87-2.91a10.278,10.278,0,0,0-1.09.02c-.06.02-.13.06-.13.11,0,1.33-.02,3.46.04,4.31a1.388,1.388,0,0,0,.62,1.01,4.3,4.3,0,0,0,1.65.23A2.57,2.57,0,0,0,138.184,22.777Zm-8.71-9.48c.19,0,.761.06,2.21.06,1.37,0,2.48-.04,3.8-.04,1.64,0,3.91.59,3.91,3.04a2.949,2.949,0,0,1-1.97,2.64c-.06.02-.06.06,0,.08,1.58.4,2.97,1.37,2.97,3.23,0,1.82-1.13,2.96-2.78,3.68a8.879,8.879,0,0,1-3.5.59c-.96,0-3.54-.1-4.97-.08-.15-.06.14-.74.27-.84a4,4,0,0,0,.97-.15c.51-.13.57-.29.64-1.05.04-.66.04-3,.04-4.67,0-2.28.02-3.82,0-4.58-.02-.59-.23-.78-.64-.89-.32-.06-.85-.13-1.28-.19C129.045,14.017,129.364,13.377,129.474,13.3Z" transform="translate(-35.306 -3.636)" fill="#21313c"/>
    <path id="Path_18" data-name="Path 18" d="M24.074,28.173a.8.8,0,0,1-.06-.43.718.718,0,0,1,.06-.29,7.43,7.43,0,0,0,.82-.17c.38-.09.52-.3.54-.78.06-1.14.07-3.28.04-4.78v-.04a.62.62,0,0,0-.2-.54,4.236,4.236,0,0,0-1.13-.5c-.18-.05-.28-.15-.27-.26s.12-.24.35-.29a13.568,13.568,0,0,0,2.88-.74.412.412,0,0,1,.09.3,1.5,1.5,0,0,1-.02.21c-.02.21-.04.45-.04.69a.159.159,0,0,0,.18.14.149.149,0,0,0,.09-.04,5.3,5.3,0,0,1,2.86-1.29,2.449,2.449,0,0,1,2.18,1.34.153.153,0,0,0,.12.07.143.143,0,0,0,.12-.06,5.67,5.67,0,0,1,2.96-1.35c1.75,0,2.79,1.31,2.79,3.5,0,.63-.01,1.43-.01,2.17,0,.65-.01,1.27-.01,1.69a.569.569,0,0,0,.35.44,4.642,4.642,0,0,0,1.09.27h.02a1.539,1.539,0,0,1-.11.71c-.12,0-.28-.01-.48-.02-.36-.02-.86-.04-1.44-.04-1.16,0-1.77.02-2.35.06a1.892,1.892,0,0,1-.01-.71,5.627,5.627,0,0,0,.71-.16c.37-.12.48-.29.5-.78.01-.35.08-3.42-.04-4.15a1.855,1.855,0,0,0-1.93-1.64,3.382,3.382,0,0,0-1.92.73.288.288,0,0,0-.07.18v.01a8.214,8.214,0,0,1,.08,1.55V24.4c0,.85-.01,1.65,0,2.25a.571.571,0,0,0,.45.59c.11.02.2.04.28.06.17.04.34.08.6.12a1.183,1.183,0,0,1-.01.53.37.37,0,0,1-.08.18c-.65-.02-1.31-.04-2.27-.04-.29,0-.76.01-1.18.02-.34.01-.66.02-.84.02a.781.781,0,0,1-.06-.37.567.567,0,0,1,.07-.34l.26-.05c.22-.04.42-.07.6-.12.32-.1.44-.27.46-.68a32.662,32.662,0,0,0-.02-4.33,1.774,1.774,0,0,0-1.84-1.64,3.465,3.465,0,0,0-1.92.73.588.588,0,0,0-.18.44v1.12c0,1.36-.01,3.05.02,3.79a.6.6,0,0,0,.52.59,3.63,3.63,0,0,0,.44.08c.11.02.22.04.34.06a1.427,1.427,0,0,1-.06.71c-.19,0-.41-.01-.68-.02-.4-.02-.9-.04-1.46-.04-.67,0-1.13.02-1.51.04A2.68,2.68,0,0,1,24.074,28.173Z" transform="translate(-6.529 -5.292)" fill="#21313c"/>
    <path id="Path_19" data-name="Path 19" d="M52.152,20.281a1.757,1.757,0,0,0-1.02.29,2.9,2.9,0,0,0-1.12,2.68c0,2.48,1.24,4.21,3.02,4.21a1.871,1.871,0,0,0,1.3-.46,3.332,3.332,0,0,0,.84-2.63C55.172,21.921,53.952,20.281,52.152,20.281Zm.34,8.09c-3.21,0-4.35-2.36-4.35-4.56a4.088,4.088,0,0,1,1.87-3.58,5.691,5.691,0,0,1,2.89-.85,4.039,4.039,0,0,1,4.16,4.28,4.411,4.411,0,0,1-1.98,3.91A5.492,5.492,0,0,1,52.492,28.371Z" transform="translate(-13.165 -5.3)" fill="#21313c"/>
    <path id="Path_20" data-name="Path 20" d="M97.135,20.281a1.757,1.757,0,0,0-1.02.29,2.9,2.9,0,0,0-1.12,2.68c0,2.48,1.24,4.21,3.02,4.21a1.915,1.915,0,0,0,1.31-.46,3.333,3.333,0,0,0,.83-2.63C100.155,21.921,98.935,20.281,97.135,20.281Zm.34,8.09c-3.21,0-4.35-2.36-4.35-4.56a4.088,4.088,0,0,1,1.87-3.58,5.691,5.691,0,0,1,2.89-.85,4.038,4.038,0,0,1,4.16,4.28,4.4,4.4,0,0,1-1.98,3.91A5.491,5.491,0,0,1,97.475,28.371Z" transform="translate(-25.467 -5.3)" fill="#21313c"/>
    <path id="Path_21" data-name="Path 21" d="M82.379,20.187c-.99,0-1.63.78-1.63,1.99s.55,2.65,2.1,2.65a1.523,1.523,0,0,0,.99-.38,2.462,2.462,0,0,0,.6-1.74C84.439,21.137,83.669,20.187,82.379,20.187Zm-.12,8.35a1.724,1.724,0,0,0-.8.2c-.78.5-1.15,1-1.15,1.58a1.675,1.675,0,0,0,.67,1.36,3.35,3.35,0,0,0,2.27.69c1.92,0,2.78-1.03,2.78-2.05a1.462,1.462,0,0,0-1.09-1.46A8.562,8.562,0,0,0,82.259,28.537Zm.13,4.9a4.123,4.123,0,0,1-2.69-.79,2.516,2.516,0,0,1-1-1.87,1.459,1.459,0,0,1,.38-.95,9.681,9.681,0,0,1,1.74-1.39.1.1,0,0,0,.06-.09.1.1,0,0,0-.07-.09,1.843,1.843,0,0,1-1.23-1.2.108.108,0,0,0-.01-.05c-.02-.12-.05-.23.11-.34a5.8,5.8,0,0,1,.53-.33,7.043,7.043,0,0,0,.86-.56.142.142,0,0,0-.01-.2c-.01-.01-.02-.02-.03-.02a2.76,2.76,0,0,1-1.97-2.9,2.857,2.857,0,0,1,1.21-2.37,5.5,5.5,0,0,1,2.71-.92h.05a5.679,5.679,0,0,1,2.07.46,3.182,3.182,0,0,0,1.22.19,1.631,1.631,0,0,0,1.32-.5,1.216,1.216,0,0,1,.07.38,1.419,1.419,0,0,1-.24.87,1.071,1.071,0,0,1-.82.36.34.34,0,0,1-.1-.01,2.738,2.738,0,0,1-.5-.08l-.08.03c-.03.04-.01.08.01.13a.037.037,0,0,1,.01.03,5.653,5.653,0,0,1,.12.81,3,3,0,0,1-1.28,2.73,4.3,4.3,0,0,1-2.2.85c-.02,0-.1.01-.26.02-.1.01-.23.02-.25.02H82.1c-.14.04-.52.22-.52.55,0,.28.17.62.98.68l.53.04a16.9,16.9,0,0,1,3.04.38,2.116,2.116,0,0,1,1.41,2.03,4.126,4.126,0,0,1-2.65,3.51,5.72,5.72,0,0,1-2.51.56" transform="translate(-21.522 -5.296)" fill="#21313c"/>
    <path id="Path_22" data-name="Path 22" d="M73.027,27.426a3.788,3.788,0,0,1-1.22-.32.571.571,0,0,1-.15-.3c-.04-.66-.04-2.56-.04-3.8a4.579,4.579,0,0,0-.6-2.54,2.566,2.566,0,0,0-2.18-1.14,5.078,5.078,0,0,0-2.86,1.35c-.02.02-.16.16-.16-.05s.04-.63.05-.9a.437.437,0,0,0-.14-.39,12.622,12.622,0,0,1-2.91.76c-.45.09-.57.52-.08.68h.01a4.32,4.32,0,0,1,1.1.48.586.586,0,0,1,.17.53c.02,1.41.02,3.59-.04,4.77-.02.46-.15.63-.49.72l.03-.01a6.885,6.885,0,0,1-.79.15,1.11,1.11,0,0,0,0,.84c.21,0,1.3-.06,2.2-.06,1.24,0,1.88.06,2.2.06a1.193,1.193,0,0,0,.09-.84,4.354,4.354,0,0,1-.88-.13c-.34-.08-.43-.25-.45-.63-.04-.99-.04-3.11-.04-4.54a.876.876,0,0,1,.23-.7,2.812,2.812,0,0,1,1.75-.63,1.926,1.926,0,0,1,1.3.44,1.774,1.774,0,0,1,.61,1.19c.08.8.06,2.41.06,3.8,0,.76-.06.95-.34,1.04a3.507,3.507,0,0,1-.88.17,1.11,1.11,0,0,0,0,.84c.55,0,1.2-.06,2.14-.06,1.18,0,1.92.06,2.22.06A1.133,1.133,0,0,0,73.027,27.426Z" transform="translate(-17.07 -5.285)" fill="#21313c"/>
  </g>
</svg>
