<svg id="Group_4" data-name="Group 4" xmlns="http://www.w3.org/2000/svg" width="120" height="120" viewBox="0 0 150 150">
  <rect id="Rectangle_1" data-name="Rectangle 1" width="150" height="150" rx="20" fill="#fff"/>
  <g id="next-js-seeklogo.com" transform="translate(20 42)">
    <path id="Path_11" data-name="Path 11" d="M25.955,17.308H46.7v1.649H27.857V31.368H45.579v1.649H27.857V46.643H46.918v1.649H25.955Zm22.606,0h2.2l9.768,13.626,9.984-13.626L84.1,0,61.787,32.366l11.5,15.926H70.994L60.534,33.8,50.03,48.292H47.783L59.367,32.366Zm25.545,1.649V17.308H97.749v1.649H86.856V48.292h-1.9V18.957ZM0,17.308H2.377L35.158,66.362,21.612,48.292,1.988,19.651,1.9,48.292H0ZM97.557,46.145a.69.69,0,1,1,.68-.69A.672.672,0,0,1,97.557,46.145Zm1.869-1.815h1.018a.929.929,0,0,0,1.008.922c.661,0,1.036-.4,1.036-1.144V39.383h1.036v4.729a1.915,1.915,0,0,1-2.063,2.117A1.864,1.864,0,0,1,99.426,44.33Zm5.454-.06h1.027c.088.635.708,1.037,1.6,1.037.833,0,1.443-.431,1.443-1.024,0-.509-.389-.815-1.272-1.024l-.86-.208c-1.207-.283-1.758-.866-1.758-1.848,0-1.19.971-1.982,2.428-1.982a2.178,2.178,0,0,1,2.405,1.917h-1.008a1.275,1.275,0,0,0-1.411-1c-.819,0-1.365.394-1.365,1,0,.477.351.75,1.221.954l.735.181c1.369.32,1.934.875,1.934,1.881,0,1.278-.99,2.08-2.572,2.08C105.948,46.229,104.954,45.464,104.879,44.269Z"/>
  </g>
</svg>
