<svg id="Group_17" data-name="Group 17" xmlns="http://www.w3.org/2000/svg" width="120" height="120" viewBox="0 0 150 150">
  <rect id="Rectangle_1" data-name="Rectangle 1" width="150" height="150" rx="20" fill="#fff"/>
  <g id="Layer_2_1_" transform="translate(45 46)">
    <g id="Surfaces">
      <g id="Photo_Surface">
        <g id="Outline_no_shadow">
          <path id="Path_60" data-name="Path 60" d="M10.534,0H48.953A10.525,10.525,0,0,1,59.487,10.534V47.466A10.525,10.525,0,0,1,48.953,58H10.534A10.525,10.525,0,0,1,0,47.466V10.534A10.525,10.525,0,0,1,10.534,0Z" fill="#001e36"/>
        </g>
      </g>
    </g>
    <g id="Outlined_Mnemonics_Logos" transform="translate(13.385 14.748)">
      <g id="Ps">
        <path id="Path_61" data-name="Path 61" d="M54,85.426V59.921c0-.174.074-.273.248-.273.421,0,.818,0,1.388-.025.595-.025,1.215-.025,1.884-.05s1.388-.025,2.156-.05,1.512-.025,2.256-.025a14.574,14.574,0,0,1,5.106.768A8.851,8.851,0,0,1,70.359,62.3a7.892,7.892,0,0,1,1.809,2.826,9.487,9.487,0,0,1,.57,3.222,8.861,8.861,0,0,1-1.487,5.279,8.492,8.492,0,0,1-3.991,3.024,16.064,16.064,0,0,1-5.577.843c-.595,0-.991,0-1.239-.025s-.595-.025-1.066-.025V85.4a.308.308,0,0,1-.273.347H54.3C54.1,85.749,54,85.65,54,85.426Zm5.4-20.994v8.328c.347.025.669.05.967.05h1.314a9.259,9.259,0,0,0,2.85-.446,4.262,4.262,0,0,0,2.032-1.314,3.83,3.83,0,0,0,.768-2.553,4.079,4.079,0,0,0-.57-2.206,3.594,3.594,0,0,0-1.735-1.413,7.273,7.273,0,0,0-2.925-.5c-.644,0-1.215,0-1.685.025a5.676,5.676,0,0,0-1.016.025Z" transform="translate(-54 -59.5)" fill="#31a8ff"/>
        <path id="Path_62" data-name="Path 62" d="M153.1,89.9a8.773,8.773,0,0,0-2.379-.843,13.066,13.066,0,0,0-2.776-.322,4.991,4.991,0,0,0-1.487.173,1.273,1.273,0,0,0-.768.5,1.314,1.314,0,0,0-.2.669,1.1,1.1,0,0,0,.248.644,2.8,2.8,0,0,0,.843.669c.57.3,1.165.57,1.76.818a17.952,17.952,0,0,1,3.817,1.809,5.767,5.767,0,0,1,1.958,2.057,5.351,5.351,0,0,1,.57,2.553,5.767,5.767,0,0,1-.967,3.3,6.211,6.211,0,0,1-2.776,2.206,11.357,11.357,0,0,1-4.486.793,17.073,17.073,0,0,1-3.371-.322,10,10,0,0,1-2.528-.793.487.487,0,0,1-.273-.471V99.023a.269.269,0,0,1,.1-.223.189.189,0,0,1,.223.025,10.61,10.61,0,0,0,3.074,1.215,11.539,11.539,0,0,0,2.925.372,4.731,4.731,0,0,0,2.057-.347,1.151,1.151,0,0,0,.669-1.041,1.313,1.313,0,0,0-.595-.991,10.512,10.512,0,0,0-2.429-1.165,15.166,15.166,0,0,1-3.52-1.785,6.418,6.418,0,0,1-1.884-2.107,5.319,5.319,0,0,1-.57-2.528,5.83,5.83,0,0,1,.843-3,6.11,6.11,0,0,1,2.6-2.28,9.612,9.612,0,0,1,4.387-.868,21.368,21.368,0,0,1,3.073.223,8.721,8.721,0,0,1,2.132.57.435.435,0,0,1,.248.223,1.243,1.243,0,0,1,.05.3v4.04a.305.305,0,0,1-.124.248A.66.66,0,0,1,153.1,89.9Z" transform="translate(-118.9 -78.153)" fill="#31a8ff"/>
      </g>
    </g>
  </g>
</svg>
