<svg id="Group_17" data-name="Group 17" xmlns="http://www.w3.org/2000/svg" width="120" height="120" viewBox="0 0 150 150">
  <rect id="Rectangle_1" data-name="Rectangle 1" width="150" height="150" rx="20" fill="#fff"/>
  <g id="Layer_2_1_" transform="translate(14 9.38)">
    <g id="Surfaces" transform="translate(31 36.62)">
      <g id="Drawing_Surface" transform="translate(0 0)">
        <g id="Outline_no_shadow">
          <path id="Path_54" data-name="Path 54" d="M41.534,36.62H79.952A10.525,10.525,0,0,1,90.486,47.154V84.086A10.525,10.525,0,0,1,79.952,94.62H41.534A10.525,10.525,0,0,1,31,84.086V47.154A10.525,10.525,0,0,1,41.534,36.62Z" transform="translate(-31 -36.62)" fill="#300"/>
        </g>
      </g>
    </g>
    <g id="Outlined_Mnemonics_Logos" transform="translate(43.291 49.485)">
      <g id="Ai" transform="translate(0 0)">
        <path id="Path_55" data-name="Path 55" d="M140.516,168.884H131.3l-1.884,5.824a.433.433,0,0,1-.471.346h-4.66c-.272,0-.348-.148-.272-.447l7.982-22.976c.074-.249.148-.521.249-.818a8.658,8.658,0,0,0,.148-1.611.244.244,0,0,1,.2-.272H139c.2,0,.3.074.323.2l9.047,25.529c.074.272,0,.4-.249.4h-5.181a.375.375,0,0,1-.4-.272Zm-7.782-5.033h6.295c-.148-.521-.346-1.139-.57-1.785-.223-.669-.447-1.388-.669-2.131-.249-.768-.471-1.512-.719-2.28s-.471-1.487-.669-2.206c-.2-.694-.371-1.339-.545-1.934h-.05a30.449,30.449,0,0,1-.843,3.2c-.371,1.19-.743,2.43-1.139,3.668-.348,1.264-.719,2.43-1.091,3.47Z" transform="translate(-123.981 -146.948)" fill="#ff9a00"/>
        <path id="Path_56" data-name="Path 56" d="M329.351,140.161a3.067,3.067,0,0,1-2.206-.867,3.228,3.228,0,0,1-.843-2.28,2.916,2.916,0,0,1,.892-2.206,3.176,3.176,0,0,1,2.206-.867,2.968,2.968,0,0,1,2.255.867,3.408,3.408,0,0,1-.049,4.487A2.913,2.913,0,0,1,329.351,140.161Zm-2.776,21.514V142.591c0-.249.1-.346.323-.346H331.8c.223,0,.323.124.323.346v19.086c0,.272-.1.4-.323.4h-4.858A.348.348,0,0,1,326.575,161.675Z" transform="translate(-299.555 -133.94)" fill="#ff9a00"/>
      </g>
    </g>
  </g>
</svg>
