<svg id="Layer_1" data-name="Layer 1" xmlns="http://www.w3.org/2000/svg" viewBox="0 0 174 32"><defs><style>.cls-1{fill:#fff;}.cls-2{fill:#191919;}</style></defs><rect class="cls-1" width="174" height="32"/><path class="cls-2" d="M11.49,9a26.92,26.92,0,0,1,4.39-.31,8.26,8.26,0,0,1,4.44.85,3.26,3.26,0,0,1,1.81,2.94,3.39,3.39,0,0,1-2.48,3.21v0a3.77,3.77,0,0,1,3,3.71,4,4,0,0,1-1.56,3.18C20,23.5,18.16,24,15.17,24a26.71,26.71,0,0,1-3.68-.22Zm3.37,5.75H16c1.79,0,2.75-.73,2.75-1.85s-.87-1.74-2.41-1.74a9.84,9.84,0,0,0-1.45.09Zm0,6.67a11.79,11.79,0,0,0,1.31,0c1.54,0,2.9-.6,2.9-2.16S17.71,17.19,16,17.19H14.86Z"/><path class="cls-2" d="M35.12,20.34c0,1.42.05,2.58.09,3.5H32.27l-.16-1.54h-.06a3.9,3.9,0,0,1-3.42,1.78c-2.2,0-3.83-1.38-3.83-4.75V12.94h3.41V18.8c0,1.58.51,2.54,1.7,2.54a1.83,1.83,0,0,0,1.69-1.18,1.89,1.89,0,0,0,.11-.74V12.94h3.41Z"/><path class="cls-2" d="M37.82,20.87a6.61,6.61,0,0,0,2.92.83c1,0,1.45-.36,1.45-.92s-.34-.82-1.61-1.25c-2.25-.75-3.12-2-3.1-3.25,0-2.05,1.74-3.59,4.44-3.59a7.41,7.41,0,0,1,3.08.62l-.6,2.35A5.37,5.37,0,0,0,42,15c-.82,0-1.29.34-1.29.89s.42.78,1.76,1.25c2.07.71,2.94,1.76,3,3.37,0,2-1.61,3.54-4.73,3.54a7.61,7.61,0,0,1-3.52-.78Z"/><path class="cls-2" d="M51,9.9a1.71,1.71,0,0,1-1.83,1.7,1.65,1.65,0,0,1-1.76-1.7,1.65,1.65,0,0,1,1.78-1.71A1.7,1.7,0,0,1,51,9.9Zm-3.5,13.94V12.94H50.9v10.9Z"/><path class="cls-2" d="M53.62,16.41c0-1.36,0-2.52-.09-3.47h2.95l.15,1.49h.07a4,4,0,0,1,3.37-1.74c2.23,0,3.9,1.47,3.9,4.68v6.47H60.58v-6c0-1.41-.49-2.37-1.72-2.37a1.81,1.81,0,0,0-1.71,1.27,2.44,2.44,0,0,0-.14.85v6.29H53.62Z"/><path class="cls-2" d="M69.29,19.47c.12,1.4,1.5,2.07,3.08,2.07a9.57,9.57,0,0,0,3-.45l.45,2.3a10.71,10.71,0,0,1-4,.69c-3.7,0-5.82-2.16-5.82-5.57,0-2.77,1.72-5.82,5.51-5.82,3.52,0,4.86,2.74,4.86,5.44a8.73,8.73,0,0,1-.11,1.34Zm4-2.32a2,2,0,0,0-1.92-2.21,2.23,2.23,0,0,0-2.1,2.21Z"/><path class="cls-2" d="M78.43,20.87a6.64,6.64,0,0,0,2.92.83c1,0,1.45-.36,1.45-.92s-.33-.82-1.6-1.25c-2.25-.75-3.12-2-3.1-3.25,0-2.05,1.74-3.59,4.44-3.59a7.36,7.36,0,0,1,3.07.62L85,15.66A5.32,5.32,0,0,0,82.65,15c-.83,0-1.3.34-1.3.89s.43.78,1.77,1.25c2.07.71,2.94,1.76,3,3.37,0,2-1.6,3.54-4.73,3.54a7.67,7.67,0,0,1-3.52-.78Z"/><path class="cls-2" d="M88.11,20.87A6.61,6.61,0,0,0,91,21.7c1,0,1.45-.36,1.45-.92s-.34-.82-1.61-1.25c-2.25-.75-3.12-2-3.1-3.25,0-2.05,1.74-3.59,4.44-3.59a7.41,7.41,0,0,1,3.08.62l-.6,2.35A5.37,5.37,0,0,0,92.32,15c-.82,0-1.29.34-1.29.89s.42.78,1.76,1.25c2.07.71,2.94,1.76,3,3.37,0,2-1.61,3.54-4.73,3.54a7.61,7.61,0,0,1-3.52-.78Z"/><path class="cls-2" d="M107,17.19h-1.16v4.24a11.79,11.79,0,0,0,1.31,0c1.54,0,2.9-.6,2.9-2.16S108.64,17.19,107,17.19Z"/><path class="cls-2" d="M121,15.1c-1.63,0-2.23,1.67-2.23,3.28,0,1.87.78,3.27,2.23,3.27s2.16-1.31,2.16-3.27C123.17,16.75,122.55,15.1,121,15.1Z"/><path class="cls-2" d="M109.64,12.91c0-1.13-.87-1.74-2.4-1.74a9.84,9.84,0,0,0-1.45.09v3.5h1.11C108.68,14.76,109.64,14,109.64,12.91Z"/><path class="cls-2" d="M131.4,20.4a1.22,1.22,0,0,0,1.34,1.3,1.86,1.86,0,0,0,1.76-1.25,2.71,2.71,0,0,0,.07-.58V18.69C132.78,18.67,131.4,19.09,131.4,20.4Z"/><path class="cls-2" d="M161,5H100.5A1.54,1.54,0,0,0,99,6.52V25.41A1.55,1.55,0,0,0,100.5,27H161a1.56,1.56,0,0,0,1.56-1.55V6.52A1.55,1.55,0,0,0,161,5ZM112,22.63c-1.1.87-2.92,1.36-5.91,1.36a26.71,26.71,0,0,1-3.68-.22V9a26.92,26.92,0,0,1,4.39-.31,8.26,8.26,0,0,1,4.44.85,3.25,3.25,0,0,1,1.8,2.94,3.39,3.39,0,0,1-2.47,3.21v0a3.77,3.77,0,0,1,3,3.71A4,4,0,0,1,112,22.63Zm8.91,1.45a5.34,5.34,0,0,1-5.64-5.62,5.44,5.44,0,0,1,5.82-5.77,5.3,5.3,0,0,1,5.57,5.57A5.47,5.47,0,0,1,120.92,24.08Zm14-.24-.2-1.1h-.07a3.92,3.92,0,0,1-3.12,1.34,3.33,3.33,0,0,1-3.52-3.34c0-2.83,2.54-4.19,6.39-4.17v-.16c0-.58-.31-1.4-2-1.4a6.2,6.2,0,0,0-3,.82l-.62-2.18a9,9,0,0,1,4.23-1c3.64,0,4.79,2.14,4.79,4.7v3.79a17.06,17.06,0,0,0,.16,2.66ZM147.23,16a3.31,3.31,0,0,0-.92-.12A2.18,2.18,0,0,0,144,17.55a4.42,4.42,0,0,0-.06.76v5.53h-3.39V16.52c0-1.6,0-2.65-.09-3.58h2.92l.11,2h.09a3.21,3.21,0,0,1,2.94-2.25,3.17,3.17,0,0,1,.72.05Zm9.25,7.89-.16-1.61h0a3.8,3.8,0,0,1-3.41,1.85c-2.59,0-4.66-2.2-4.66-5.59,0-3.68,2.27-5.8,4.88-5.8A3.32,3.32,0,0,1,156,13.92h0V8h3.39V20.58c0,1.23,0,2.52.09,3.26Z"/><path class="cls-2" d="M154,15.28c-1.54,0-2.34,1.38-2.34,3.1s.91,3,2.32,3a2,2,0,0,0,2-1.62A2.78,2.78,0,0,0,156,19V17.55c0-.18,0-.42,0-.6A2,2,0,0,0,154,15.28Z"/></svg>