<svg id="Layer_1" data-name="Layer 1" xmlns="http://www.w3.org/2000/svg" viewBox="0 0 174 32"><defs><style>.cls-1{fill:#fff;}.cls-2{fill:#191919;}.cls-3{isolation:isolate;}</style></defs><rect class="cls-1" width="174" height="32"/><g id="a"><path class="cls-2" d="M42.92,22.66a.74.74,0,0,1,.9-.34,8,8,0,0,0,4.68-.14,24.77,24.77,0,0,0,10.35-6.65,12.44,12.44,0,0,0,1-1.15l-.63.6a33.51,33.51,0,0,1-7.32,5.43,17,17,0,0,1-3.15,1.22c-.32.1-.42,0-.49-.29a4.34,4.34,0,0,1,1.44-4.74,21.92,21.92,0,0,1,4.52-2.91,62.7,62.7,0,0,0,6-3.25,25.18,25.18,0,0,0,5.2-4.68L66,5.07v.21A21.54,21.54,0,0,1,64.89,13a13.12,13.12,0,0,1-5.7,7.13,17.77,17.77,0,0,1-6.09,2.09,7.89,7.89,0,0,1-1.68.14c-.2,0-.76,0-1.15,0a2.65,2.65,0,0,0-1.34.08,10.26,10.26,0,0,1-4.88.56,11.27,11.27,0,0,1-1.13-.26"/><path class="cls-2" d="M52.08,30.82a3.81,3.81,0,0,0,2.25-.76,2.49,2.49,0,0,0,.51-3.48,2.6,2.6,0,0,0-.56-.54,3.59,3.59,0,0,0-4.3.14,2.46,2.46,0,0,0-.53,3.33,3.21,3.21,0,0,0,2.62,1.31m18-20.75a25.39,25.39,0,0,1,.31,5.51A18.32,18.32,0,0,1,69.32,21a16.35,16.35,0,0,1-5.65,7.36,17.49,17.49,0,0,1-7.91,3.48,11.27,11.27,0,0,1-5.9-.4,5.46,5.46,0,0,1-1.1-.57,2.85,2.85,0,0,1-1.14-3.69,6.67,6.67,0,0,1,.37-.76,3.34,3.34,0,0,1,3.58-1.77c1.2.14,2.4.33,3.6.46a10.82,10.82,0,0,0,7.34-1.74,16.33,16.33,0,0,0,7.34-11.17c.12-.6.14-1.22.21-1.83l0-.25"/><path class="cls-2" d="M52.25,26.15a2.78,2.78,0,0,1,1.68.6,1.66,1.66,0,0,1,.28,2.33l-.05.07a2.75,2.75,0,0,1-3.83.21,1.63,1.63,0,0,1-.14-2.29,2.7,2.7,0,0,1,2.06-.92"/><path class="cls-2" d="M57.61,1.14A3.83,3.83,0,0,0,55.38,2,2.48,2.48,0,0,0,55,5.47a2.61,2.61,0,0,0,.58.52,3.58,3.58,0,0,0,4.29-.28,2.48,2.48,0,0,0,.42-3.35,3.23,3.23,0,0,0-2.67-1.22M40.31,22.5a26,26,0,0,1-.5-5.5,18.73,18.73,0,0,1,.89-5.4,16.43,16.43,0,0,1,5.4-7.55A17.52,17.52,0,0,1,53.89.3,11.19,11.19,0,0,1,59.8.5,5.22,5.22,0,0,1,60.92,1a2.85,2.85,0,0,1,1.26,3.65,5.3,5.3,0,0,1-.34.77,3.33,3.33,0,0,1-3.52,1.89c-1.2-.09-2.4-.24-3.61-.34a10.83,10.83,0,0,0-7.28,2,16.35,16.35,0,0,0-7,11.41c-.09.6-.1,1.22-.15,1.84a2.11,2.11,0,0,1,0,.25"/><path class="cls-2" d="M57.6,5.81a2.68,2.68,0,0,1-1.71-.54A1.65,1.65,0,0,1,55.53,3l.06-.07a2.75,2.75,0,0,1,3.82-.35,1.65,1.65,0,0,1,.21,2.29,2.7,2.7,0,0,1-2,1"/><g class="cls-3"><g class="cls-3"><path class="cls-2" d="M82.79,17.18a3.62,3.62,0,0,1,.83,2.36,3.75,3.75,0,0,1-1.24,2.94,5.35,5.35,0,0,1-3.61,1.08H72.85V8.69h5.82a5.15,5.15,0,0,1,3.42,1,3.41,3.41,0,0,1,1.19,2.75,3.36,3.36,0,0,1-.74,2.28,3.47,3.47,0,0,1-1.93,1.17A3.74,3.74,0,0,1,82.79,17.18Zm-7.53-2.09h3a2.76,2.76,0,0,0,1.92-.59,2.06,2.06,0,0,0,.67-1.64,2,2,0,0,0-.67-1.62,2.91,2.91,0,0,0-2-.59H75.26ZM80.41,21a2.15,2.15,0,0,0,.74-1.74,2.17,2.17,0,0,0-.75-1.75,3.26,3.26,0,0,0-2.13-.63h-3v4.74h3A3.27,3.27,0,0,0,80.41,21Z"/><path class="cls-2" d="M96.57,18.23H87.64a3.66,3.66,0,0,0,1,2.66,3.26,3.26,0,0,0,2.3.86,3.31,3.31,0,0,0,2-.61,2.53,2.53,0,0,0,1-1.62h2.57a4.93,4.93,0,0,1-2.88,3.65,6.29,6.29,0,0,1-2.64.54,6.06,6.06,0,0,1-3-.72,5.1,5.1,0,0,1-2-2.06,6.55,6.55,0,0,1-.74-3.18A6.5,6.5,0,0,1,86,14.59a5.12,5.12,0,0,1,2-2.07,6.16,6.16,0,0,1,3-.71,6.05,6.05,0,0,1,3,.7,4.88,4.88,0,0,1,2,1.94,5.53,5.53,0,0,1,.69,2.75A5.19,5.19,0,0,1,96.57,18.23Zm-2.72-3a2.81,2.81,0,0,0-1.18-1.14A3.76,3.76,0,0,0,91,13.72a3.37,3.37,0,0,0-2.36.87,3.53,3.53,0,0,0-1,2.55h6.59A3.63,3.63,0,0,0,93.85,15.23Z"/><path class="cls-2" d="M104.81,21.48v2.08h-1.47a4,4,0,0,1-2.82-.89,4,4,0,0,1-1-3V14H97.9V12h1.66V9.07H102V12h2.8V14H102v5.73a2,2,0,0,0,.37,1.37,1.76,1.76,0,0,0,1.29.38Z"/><path class="cls-2" d="M117.76,18.23h-8.93a3.7,3.7,0,0,0,1,2.66,3.58,3.58,0,0,0,4.33.25,2.49,2.49,0,0,0,1-1.62h2.57a4.92,4.92,0,0,1-1,2.17,5,5,0,0,1-1.91,1.48,6.29,6.29,0,0,1-2.64.54,6.06,6.06,0,0,1-3-.72,5.1,5.1,0,0,1-2-2.06,6.55,6.55,0,0,1-.74-3.18,6.5,6.5,0,0,1,.74-3.16,5.12,5.12,0,0,1,2-2.07,6.16,6.16,0,0,1,3-.71,6,6,0,0,1,3,.7,4.88,4.88,0,0,1,2,1.94,5.53,5.53,0,0,1,.69,2.75A5.19,5.19,0,0,1,117.76,18.23Zm-2.72-3a2.76,2.76,0,0,0-1.18-1.14,3.76,3.76,0,0,0-1.64-.37,3.33,3.33,0,0,0-2.35.87,3.5,3.5,0,0,0-1,2.55h6.6A3.73,3.73,0,0,0,115,15.23Z"/><path class="cls-2" d="M122.57,8V23.56h-2.4V8Z"/><path class="cls-2" d="M132.56,12.85a4.38,4.38,0,0,1,1.51,2.79h-2.28a2.45,2.45,0,0,0-.81-1.53,2.61,2.61,0,0,0-1.76-.58,2.06,2.06,0,0,0-1.4.44,1.44,1.44,0,0,0-.49,1.16,1.17,1.17,0,0,0,.36.89,2.51,2.51,0,0,0,.89.53q.54.18,1.53.42a14.36,14.36,0,0,1,2.11.61,3.29,3.29,0,0,1,1.39,1,2.78,2.78,0,0,1,.58,1.86,2.89,2.89,0,0,1-1.1,2.36,4.53,4.53,0,0,1-3,.91,5.69,5.69,0,0,1-3.51-1A4.18,4.18,0,0,1,125,19.87h2.34a2.19,2.19,0,0,0,.84,1.54,3,3,0,0,0,1.94.59,2,2,0,0,0,1.36-.45A1.49,1.49,0,0,0,132,20.4a1.24,1.24,0,0,0-.38-1,2.69,2.69,0,0,0-1-.56,13.07,13.07,0,0,0-1.55-.41,15.5,15.5,0,0,1-2.06-.59,3.12,3.12,0,0,1-1.35-1,2.71,2.71,0,0,1-.55-1.8,3,3,0,0,1,1.1-2.39,4.68,4.68,0,0,1,3.07-.91A4.86,4.86,0,0,1,132.56,12.85Z"/></g></g></g></svg>