<svg id="Group_4" data-name="Group 4" xmlns="http://www.w3.org/2000/svg" width="120" height="120" viewBox="0 0 150 150">
  <rect id="Rectangle_1" data-name="Rectangle 1" width="150" height="150" rx="20" fill="#fff"/>
  <g id="Layer_2" data-name="Layer 2" transform="translate(20.01 64.001)">
    <g id="Layer_1" data-name="Layer 1" transform="translate(-0.01 -0.001)">
      <path id="Path_23" data-name="Path 23" d="M139.29,23.491a3.771,3.771,0,0,1,2.983,1.474.152.152,0,0,0,.22.024l1.256-1a.156.156,0,0,0,.024-.22,5.72,5.72,0,0,0-4.534-2.229,6.133,6.133,0,0,0-5.94,6.3,6.139,6.139,0,0,0,5.94,6.3,5.687,5.687,0,0,0,4.532-2.226.152.152,0,0,0-.026-.22l-1.254-.99a.156.156,0,0,0-.22.024A3.8,3.8,0,0,1,139.29,32.2a4.141,4.141,0,0,1-4-4.354A4.143,4.143,0,0,1,139.29,23.491Z" transform="translate(-103.972 -16.801)" fill="#3448c5"/>
      <path id="Path_24" data-name="Path 24" d="M187.724,19.91H189.3a.156.156,0,0,1,.156.156V32.557a.154.154,0,0,1-.154.154h-1.575a.156.156,0,0,1-.156-.156V20.066a.154.154,0,0,1,.154-.156Z" transform="translate(-146.303 -15.53)" fill="#3448c5"/>
      <path id="Path_25" data-name="Path 25" d="M205.65,39.55a4.115,4.115,0,0,0-4.2,4.305,4.21,4.21,0,1,0,4.2-4.305Zm2.317,4.305a2.315,2.315,0,1,1-4.613,0,2.315,2.315,0,0,1,2.3-2.464A2.347,2.347,0,0,1,207.966,43.855Z" transform="translate(-157.13 -30.849)" fill="#3448c5"/>
      <path id="Path_26" data-name="Path 26" d="M251.983,40.37h-1.575a.154.154,0,0,0-.156.154V44.7a2.017,2.017,0,0,1-2.092,2.211c-.854,0-1.714-.645-1.714-2.086V40.524a.154.154,0,0,0-.156-.154h-1.575a.154.154,0,0,0-.154.154v4.51c0,2.475,1.12,3.837,3.155,3.837a2.8,2.8,0,0,0,2.385-1.362l.152.031v.977a.156.156,0,0,0,.156.156h1.575a.156.156,0,0,0,.156-.156V40.524a.154.154,0,0,0-.156-.154Z" transform="translate(-190.756 -31.489)" fill="#3448c5"/>
      <path id="Path_27" data-name="Path 27" d="M292.723,19.91h-1.577a.154.154,0,0,0-.154.156V25.65l-.1-.154a3.1,3.1,0,0,0-2.629-1.272,3.973,3.973,0,0,0-3.876,4.323,4.044,4.044,0,0,0,3.892,4.34A3.094,3.094,0,0,0,290.9,31.6l.1-.158v1.118a.154.154,0,0,0,.154.156h1.577a.154.154,0,0,0,.154-.156V20.066a.154.154,0,0,0-.154-.156Zm-1.76,8.626a2.42,2.42,0,0,1-2.365,2.5,2.381,2.381,0,0,1-2.3-2.5,2.35,2.35,0,0,1,2.3-2.464,2.42,2.42,0,0,1,2.358,2.464Z" transform="translate(-221.824 -15.53)" fill="#3448c5"/>
      <path id="Path_28" data-name="Path 28" d="M332.446,40.37h1.575a.154.154,0,0,1,.154.154v7.992a.154.154,0,0,1-.154.154h-1.575a.156.156,0,0,1-.156-.156v-7.99A.156.156,0,0,1,332.446,40.37Z" transform="translate(-259.186 -31.489)" fill="#3448c5"/>
      <path id="Path_29" data-name="Path 29" d="M332.172,21.059a1.225,1.225,0,0,0-1.252,1.225,1.241,1.241,0,0,0,1.252,1.228,1.219,1.219,0,0,0,1.234-1.228,1.206,1.206,0,0,0-1.234-1.225Z" transform="translate(-258.117 -16.426)" fill="#3448c5"/>
      <path id="Path_30" data-name="Path 30" d="M354.664,39.55a2.762,2.762,0,0,0-2.387,1.362l-.152-.031v-1a.154.154,0,0,0-.156-.154h-1.575a.154.154,0,0,0-.154.154v7.992a.154.154,0,0,0,.154.156h1.575a.156.156,0,0,0,.156-.156V43.7a2.015,2.015,0,0,1,2.092-2.2c.854,0,1.714.64,1.714,2.068v4.312a.156.156,0,0,0,.156.156h1.58a.156.156,0,0,0,.156-.156V43.369C357.819,40.907,356.7,39.55,354.664,39.55Z" transform="translate(-273.187 -30.849)" fill="#3448c5"/>
      <path id="Path_31" data-name="Path 31" d="M397.9,39.762h-1.575a.154.154,0,0,0-.156.154v1.1l-.095-.154a3.107,3.107,0,0,0-2.64-1.272,3.974,3.974,0,0,0-3.876,4.323,4.044,4.044,0,0,0,3.894,4.34,3.1,3.1,0,0,0,2.614-1.289l.095-.158v1.1a.156.156,0,0,0,.156.156h1.575a.154.154,0,0,0,.154-.156V39.916A.154.154,0,0,0,397.9,39.762Zm-1.76,4.125a2.42,2.42,0,0,1-2.371,2.5,2.379,2.379,0,0,1-2.3-2.5,2.348,2.348,0,0,1,2.3-2.464,2.42,2.42,0,0,1,2.367,2.464Z" transform="translate(-303.857 -30.88)" fill="#3448c5"/>
      <path id="Path_32" data-name="Path 32" d="M441.149,39.72a3,3,0,0,0-1.131-.22,2.276,2.276,0,0,0-2.2,1.815l-.141-.02v-1.45a.154.154,0,0,0-.156-.154h-1.575a.154.154,0,0,0-.156.154v7.992a.156.156,0,0,0,.156.156h1.593a.154.154,0,0,0,.154-.156V45.11c0-3.256,1.3-3.74,2.077-3.74a2.42,2.42,0,0,1,.953.2.158.158,0,0,0,.134,0,.154.154,0,0,0,.079-.106l.312-1.564A.156.156,0,0,0,441.149,39.72Z" transform="translate(-339.916 -30.81)" fill="#3448c5"/>
      <path id="Path_33" data-name="Path 33" d="M471.073,40.438a.152.152,0,0,0-.13-.068h-1.7a.158.158,0,0,0-.145.1l-2.053,5.319-2.072-5.319a.158.158,0,0,0-.145-.1H463.1a.152.152,0,0,0-.128.068.154.154,0,0,0-.015.145l3.08,7.563-1.7,4.42a.156.156,0,0,0,.145.22h1.65a.152.152,0,0,0,.143-.1l4.809-12.1A.152.152,0,0,0,471.073,40.438Z" transform="translate(-361.1 -31.489)" fill="#3448c5"/>
      <path id="Path_34" data-name="Path 34" d="M21.532,6.184A8.883,8.883,0,0,0,13.132,0,8.716,8.716,0,0,0,5.4,4.591,6.573,6.573,0,0,0,3.818,17.034l.165.075h.011v-1.87A4.9,4.9,0,0,1,6.037,6.184L6.5,6.135l.2-.416a7.073,7.073,0,0,1,6.43-4.054,7.194,7.194,0,0,1,6.941,5.5l.158.629h.66a4.076,4.076,0,0,1,3.993,4.061,3.691,3.691,0,0,1-2.42,3.463v1.773l.11-.035a5.435,5.435,0,0,0,3.973-5.2,5.762,5.762,0,0,0-5.016-5.671Z" transform="translate(0.01 0.001)" fill="#3448c5"/>
      <path id="Path_35" data-name="Path 35" d="M28.586,44.554l.365.365a.073.073,0,0,1-.051.123H26.019a1.32,1.32,0,0,1-1.32-1.32v-5.6a.073.073,0,0,0-.073-.073H24.01a.073.073,0,0,1-.053-.123L26.4,35.483a.073.073,0,0,1,.1,0l2.444,2.446a.073.073,0,0,1-.051.123h-.625a.075.075,0,0,0-.075.073v5.5a1.32,1.32,0,0,0,.385.928Z" transform="translate(-18.668 -27.66)" fill="#3448c5"/>
      <path id="Path_36" data-name="Path 36" d="M53.164,49.577l.367.365a.073.073,0,0,1-.053.123H50.6a1.32,1.32,0,0,1-1.32-1.32V44.563a.075.075,0,0,0-.073-.075h-.623a.073.073,0,0,1-.051-.123l2.444-2.442a.073.073,0,0,1,.1,0l2.446,2.438a.073.073,0,0,1-.053.123h-.625a.075.075,0,0,0-.073.075v4.09a1.32,1.32,0,0,0,.383.928Z" transform="translate(-37.841 -32.683)" fill="#3448c5"/>
      <path id="Path_37" data-name="Path 37" d="M77.728,54.546l.365.365a.073.073,0,0,1-.051.123H75.158a1.32,1.32,0,0,1-1.32-1.32V50.936a.073.073,0,0,0-.073-.073H73.15a.073.073,0,0,1-.051-.125l2.446-2.444a.07.07,0,0,1,.1,0l2.446,2.444a.073.073,0,0,1-.051.125h-.627a.073.073,0,0,0-.073.073v2.682A1.32,1.32,0,0,0,77.728,54.546Z" transform="translate(-56.998 -37.653)" fill="#3448c5"/>
    </g>
  </g>
</svg>
