<svg id="Layer_1" data-name="Layer 1" xmlns="http://www.w3.org/2000/svg" viewBox="0 0 174 32"><defs><style>.cls-1{fill:#fff;}.cls-2{fill:#191919;}</style></defs><rect class="cls-1" width="174" height="32"/><path class="cls-2" d="M21,11.7V27h3.16V14.87Z"/><path class="cls-2" d="M37.33,14.87V27H40.5V11.7Z"/><polygon class="cls-2" points="40.5 5.15 40.5 9.62 30.8 19.32 24.11 12.63 20.95 9.47 20.95 5 30.8 14.85 40.5 5.15"/><polygon class="cls-2" points="20.95 11.7 20.95 11.7 20.95 27 20.95 27 20.95 27 24.11 27 24.11 27 24.11 14.87 24.11 14.87 20.95 11.7 20.95 11.7"/><path class="cls-2" d="M58.9,13.71h0l1.61,1.62,1.54,1.54H66.6v7H59.18a7.93,7.93,0,0,1-7-7.76V15.7a8,8,0,0,1,7-7.41H69.71V5.13H60.33A11.53,11.53,0,0,0,56,6a11.31,11.31,0,0,0-2.11,1.14h-.05l-.2.17h0a10.23,10.23,0,0,0-1.18,1,10.72,10.72,0,0,0-3.31,7.49v.29A10.53,10.53,0,0,0,50,20.35a10.82,10.82,0,0,0,2.43,3.48A11.21,11.21,0,0,0,60.3,27h9.45V13.71Z"/><path class="cls-2" d="M93.6,5.08v12.1a6.7,6.7,0,0,1-4.28,6.24,6.26,6.26,0,0,1-2.09.41h-.47a6.59,6.59,0,0,1-6.1-4.76,6.36,6.36,0,0,1-.26-1.56v-.32h0V5.12H77.23v14.2A6.52,6.52,0,0,0,79,23.48a10.93,10.93,0,0,0,1.11,1l.32.26a11,11,0,0,0,13.22,0c.25-.19.5-.4.74-.61A8.47,8.47,0,0,0,95,23.5c.16-.18.32-.37.46-.56A6.6,6.6,0,0,0,96.75,19V5.08Z"/><polygon class="cls-2" points="108.52 5.08 105.37 5.08 105.37 26.9 108.52 23.73 119.6 12.66 122.76 9.5 122.76 5.03 108.52 19.27 108.52 5.08"/><polygon class="cls-2" points="119.6 27 122.76 27 122.76 11.74 119.6 14.9 119.6 27"/><polygon class="cls-2" points="153.05 23.84 139.36 23.84 140.51 22.26 140.51 22.26 150.74 8.25 151.85 6.73 153.05 5.09 153.05 5.09 153.05 5.09 133.5 5.09 133.5 5.09 133.5 5.09 133.5 8.25 133.5 8.25 133.5 8.25 146.83 8.25 133.14 27 133.5 27 133.5 27 153.05 27 153.05 27 153.05 27 153.05 23.84 153.05 23.84 153.05 23.84"/><path class="cls-2" d="M58.9,13.71l3.15,3.16H66.6v7H59.18a7.93,7.93,0,0,1-7-7.76,8,8,0,0,1,7-7.78H69.71V5.13H60.33A11.53,11.53,0,0,0,56,6a11.4,11.4,0,0,0-3.58,2.31A10.72,10.72,0,0,0,50,20.35a11,11,0,0,0,2.44,3.48A11.29,11.29,0,0,0,60.27,27h9.48V13.71Z"/><path class="cls-2" d="M93.6,5.08v12.1a6.62,6.62,0,0,1-6.37,6.65h-.47a6.63,6.63,0,0,1-6.38-6.65V5.11H77.23V19A6.57,6.57,0,0,0,79,23.48a9.82,9.82,0,0,0,1.43,1.3A11,11,0,0,0,95,23.5,6.53,6.53,0,0,0,96.78,19V5.08Z"/><path class="cls-2" d="M140.51,22.26h0l10.23-14Z"/><polygon class="cls-2" points="139.36 23.84 153.05 23.84 153.05 27 133.14 27 146.83 8.25 133.5 8.25 133.5 5.09 153.05 5.09 150.74 8.25 140.51 22.26 139.36 23.84"/></svg>