<svg id="Layer_1" data-name="Layer 1" xmlns="http://www.w3.org/2000/svg" viewBox="0 0 174 32"><defs><style>.cls-1{fill:#fff;}.cls-2{fill:#191919;}</style></defs><rect class="cls-1" width="174" height="32"/><polygon class="cls-2" points="59.95 16.36 65.02 5.77 73.6 7.91 73.6 6.64 75.78 6.64 75.78 8.03 77.26 8.86 82.84 1 98.79 8.46 109.1 5.75 114.05 16.32 113.45 16.69 109.09 7.35 105.03 16.57 93.33 16.57 83.03 2.59 72.92 16.56 69.07 16.56 65.06 7.46 60.91 16.42 59.95 16.36"/><path class="cls-2" d="M73.82,16.12,81.3,6a.18.18,0,0,1,.24,0L84.12,7.4l0,0,6.93,8.81a.18.18,0,0,1-.14.3H88.09a.21.21,0,0,1-.15-.07l-6.56-9a.18.18,0,0,0-.29,0l-6.42,8.85a.15.15,0,0,1-.15.07l-.56,0A.19.19,0,0,1,73.82,16.12Z"/><rect class="cls-2" x="63.53" y="13.67" width="1.15" height="1.15" rx="0.21"/><rect class="cls-2" x="65.19" y="13.67" width="1.15" height="1.15" rx="0.21"/><rect class="cls-2" x="63.53" y="15.18" width="1.15" height="1.15" rx="0.21"/><rect class="cls-2" x="65.19" y="15.18" width="1.15" height="1.15" rx="0.21"/><rect class="cls-2" x="79.85" y="13.67" width="1.15" height="1.15" rx="0.21"/><rect class="cls-2" x="81.51" y="13.67" width="1.15" height="1.15" rx="0.21"/><rect class="cls-2" x="79.85" y="15.18" width="1.15" height="1.15" rx="0.21"/><rect class="cls-2" x="81.51" y="15.18" width="1.15" height="1.15" rx="0.21"/><rect class="cls-2" x="107.73" y="13.67" width="1.15" height="1.15" rx="0.21"/><rect class="cls-2" x="109.38" y="13.67" width="1.15" height="1.15" rx="0.21"/><rect class="cls-2" x="107.73" y="15.18" width="1.15" height="1.15" rx="0.21"/><rect class="cls-2" x="109.38" y="15.18" width="1.15" height="1.15" rx="0.21"/><path class="cls-2" d="M60,26.24v-.56l.72-.12V20.45L60,20.32v-.56h2.54a2.68,2.68,0,0,1,1.5.41,2.76,2.76,0,0,1,1,1.12,3.63,3.63,0,0,1,.36,1.64v.14A3.7,3.7,0,0,1,65,24.69a2.8,2.8,0,0,1-1,1.14,2.6,2.6,0,0,1-1.49.41Zm1.6-.68h.94a1.63,1.63,0,0,0,1-.34,2.07,2.07,0,0,0,.68-.9,3.13,3.13,0,0,0,.24-1.25v-.15a3.15,3.15,0,0,0-.24-1.26,2,2,0,0,0-.68-.89,1.74,1.74,0,0,0-1-.32h-.94Z"/><path class="cls-2" d="M66,26.24v-.56l.73-.12V20.45L66,20.32v-.56h2.89a3.07,3.07,0,0,1,1.2.21,1.62,1.62,0,0,1,.74.62,1.76,1.76,0,0,1,.25,1,1.74,1.74,0,0,1-.24.95,1.53,1.53,0,0,1-.71.59,2.87,2.87,0,0,1-1.07.21l-1.46,0v2.21l.73.12v.56Zm1.6-3.58h1.2a1.69,1.69,0,0,0,1.07-.28,1,1,0,0,0,.34-.82,1.05,1.05,0,0,0-.32-.81,1.44,1.44,0,0,0-1-.3H67.59Zm2.68,3.58L68.83,23h.88l1.19,2.59.45.08v.57Z"/><path class="cls-2" d="M72.16,26.24v-.56l.73-.12V20.45l-.73-.13v-.56H77v1.56h-.7l-.1-.89h-2.4v2.12h2.4v.69h-2.4v2.34H76.3l.1-.89h.7v1.55Z"/><path class="cls-2" d="M77.93,26.24v-.56l.48-.06,2.27-5.86h.75l2.23,5.86.48.06v.56H82.27v-.56l.49-.08-.42-1.2h-2.6l-.44,1.2.49.08v.56ZM80,23.67h2.06L81.12,21l-.06-.15h0L81,21Z"/><path class="cls-2" d="M84.87,26.24v-.56l.72-.12V20.45l-.72-.13v-.56h1.9l2.09,4.92h0l2-4.92h2v.56l-.73.13v5.11l.73.12v.56H90.53v-.56l.77-.12V21h0L89.17,26h-.59L86.4,21h0l0,2.72v1.88l.79.12v.56Z"/><path class="cls-2" d="M95.86,26.24v-.56l.48-.06,2.27-5.86h.75l2.23,5.86.48.06v.56H100.2v-.56l.49-.08-.42-1.2h-2.6l-.44,1.2.49.08v.56Zm2.08-2.57H100L99,21,99,20.88h0l0,.15Z"/><path class="cls-2" d="M102.74,26.24v-.56l.72-.12V20.45l-.72-.13v-.56h2.89a3.07,3.07,0,0,1,1.2.21,1.62,1.62,0,0,1,.74.62,1.76,1.76,0,0,1,.25,1,1.66,1.66,0,0,1-.25.95,1.46,1.46,0,0,1-.7.59,2.87,2.87,0,0,1-1.07.21l-1.46,0v2.21l.73.12v.56Zm1.6-3.58h1.2a1.69,1.69,0,0,0,1.07-.28,1.18,1.18,0,0,0,0-1.63,1.4,1.4,0,0,0-1-.3h-1.29ZM107,26.24,105.58,23h.87l1.2,2.59.45.08v.57Z"/><path class="cls-2" d="M110.15,26.24v-.56l.73-.12V20.42h-1.47l-.13.9h-.66V19.76H114v1.56h-.65l-.13-.9h-1.47v5.14l.72.12v.56Z"/><path class="cls-2" d="M60,31v-.13h.39V27.54H60v-.13h2.48v.71h-.14v-.58H60.48V29H62v.13H60.48v1.65h1.89v-.58h.13V31Z"/><path class="cls-2" d="M65.2,31v-.13h.39V27.54H65.2v-.13h.53L68,30.7h0V27.54h-.4v-.13h.93v.13h-.4V31H68l-2.27-3.3h0v3.16h.39V31Z"/><path class="cls-2" d="M72.74,31a1.5,1.5,0,0,1-.83-.23,1.52,1.52,0,0,1-.54-.63,2.28,2.28,0,0,1-.18-.94v-.09a2.07,2.07,0,0,1,.19-.92,1.69,1.69,0,0,1,.54-.61,1.39,1.39,0,0,1,.78-.22,1.72,1.72,0,0,1,.64.1,2.27,2.27,0,0,1,.48.27v.61h-.13V27.8a1.5,1.5,0,0,0-.41-.23,1.84,1.84,0,0,0-.58-.08,1.23,1.23,0,0,0-.7.21,1.36,1.36,0,0,0-.5.56,1.86,1.86,0,0,0-.18.84v.1a2.14,2.14,0,0,0,.17.87,1.34,1.34,0,0,0,.48.59,1.39,1.39,0,0,0,.77.21,2.16,2.16,0,0,0,.59-.08,2,2,0,0,0,.44-.18v-1H73v-.14h.9v1.24a3,3,0,0,1-.51.23A2.19,2.19,0,0,1,72.74,31Z"/><path class="cls-2" d="M76.65,31v-.13h.4V27.54h-.4v-.13h.92v.13h-.39v3.28h.39V31Z"/><path class="cls-2" d="M80.08,31v-.13h.4V27.54h-.4v-.13h.53l2.27,3.29h0V27.54H82.5v-.13h.92v.13H83V31h-.14l-2.27-3.3h0v3.16H81V31Z"/><path class="cls-2" d="M85.93,31v-.13h.39V27.54h-.39v-.13H88.4v.71h-.13v-.58H86.45V29H88v.13H86.45v1.65h1.9v-.58h.13V31Z"/><path class="cls-2" d="M91.18,31v-.13h.39V27.54h-.39v-.13h2.47v.71h-.13v-.58H91.7V29h1.53v.13H91.7v1.65h1.89v-.58h.14V31Z"/><path class="cls-2" d="M96.42,31v-.13h.4V27.54h-.4v-.13h1.42a1.71,1.71,0,0,1,.64.11.83.83,0,0,1,.39.32.94.94,0,0,1,.14.52.8.8,0,0,1-.15.5.94.94,0,0,1-.41.32,1.66,1.66,0,0,1-.61.11H97v1.53h.4V31ZM97,29.16h.88a1.16,1.16,0,0,0,.79-.23.73.73,0,0,0,.26-.57.76.76,0,0,0-.26-.61,1.23,1.23,0,0,0-.78-.21H97ZM98.84,31,98.1,29.2h.13l.7,1.62h.32V31Z"/><path class="cls-2" d="M101.9,31v-.13h.4V27.54h-.4v-.13h.92v.13h-.39v3.28h.39V31Z"/><path class="cls-2" d="M105.33,31v-.13h.39V27.54h-.39v-.13h.53l2.27,3.29h0V27.54h-.39v-.13h.92v.13h-.4V31h-.13l-2.27-3.3h0v3.16h.39V31Z"/><path class="cls-2" d="M112.88,31a1.53,1.53,0,0,1-.84-.23,1.43,1.43,0,0,1-.53-.63,2.13,2.13,0,0,1-.19-.94v-.09a2.08,2.08,0,0,1,.2-.92,1.52,1.52,0,0,1,.54-.61,1.39,1.39,0,0,1,.78-.22,1.67,1.67,0,0,1,.63.1,1.87,1.87,0,0,1,.48.27v.61h-.13V27.8a1.44,1.44,0,0,0-.4-.23,1.89,1.89,0,0,0-.58-.08,1.24,1.24,0,0,0-.71.21,1.44,1.44,0,0,0-.5.56,1.86,1.86,0,0,0-.18.84v.1a2.14,2.14,0,0,0,.17.87,1.36,1.36,0,0,0,.49.59,1.33,1.33,0,0,0,.76.21,2.16,2.16,0,0,0,.59-.08,2.34,2.34,0,0,0,.45-.18v-1h-.77v-.14h.9v1.24a3,3,0,0,1-.51.23A2.08,2.08,0,0,1,112.88,31Z"/></svg>