<svg id="Group_4" data-name="Group 4" xmlns="http://www.w3.org/2000/svg" width="120" height="120" viewBox="0 0 150 150">
  <rect id="Rectangle_1" data-name="Rectangle 1" width="150" height="150" rx="20" fill="#fff"/>
  <g id="original-wordmark" transform="translate(18.187 20.28)">
    <path id="path4" d="M34.492,67.264V43.2H35.8v3.786a4.951,4.951,0,0,0,.427-.533,6.47,6.47,0,0,1,5.9-3.661,6.931,6.931,0,0,1,6.816,3.661,11.766,11.766,0,0,1,.284,10.789c-1.324,2.968-4.595,4.444-8.1,3.9A6.55,6.55,0,0,1,35.9,57.693v9.571ZM35.8,51.712c.116,1.173.16,2.008.293,2.826.515,3.217,2.417,5.128,5.4,5.474a6.141,6.141,0,0,0,6.745-3.9,10.46,10.46,0,0,0-.231-8.6,6.017,6.017,0,0,0-6.336-3.5,5.857,5.857,0,0,0-5.234,4.328,29.681,29.681,0,0,0-.64,3.377Z" transform="translate(1.447 0.003)"/>
    <path id="path6" d="M75.893,54.983A7.039,7.039,0,0,1,69.014,61.2c-5.474.275-8.043-3.359-8.452-7.554a12.1,12.1,0,0,1,1.066-6.665,7.438,7.438,0,0,1,7.741-4.15,7.11,7.11,0,0,1,6.31,5.412,36.519,36.519,0,0,1,.613,4H61.9c-.267,3.8,1.777,6.861,4.675,7.6,3.608.889,6.692-.675,7.812-4.106C74.64,54.859,75.093,54.735,75.893,54.983ZM61.9,51.029h12.86c-.08-4.052-2.6-6.985-6.025-7.03C64.864,43.937,62.073,46.763,61.9,51.029Z" transform="translate(2.597 0.002)"/>
    <path id="path8" d="M77.775,55.074h1.262A5.057,5.057,0,0,0,82,59.429a7.758,7.758,0,0,0,6.736-.178,3.031,3.031,0,0,0,1.777-2.977,2.746,2.746,0,0,0-1.849-2.746c-1.386-.515-2.862-.8-4.275-1.253a31.325,31.325,0,0,1-4.3-1.573c-2.275-1.111-2.417-5.439.16-6.807a9.074,9.074,0,0,1,8.674-.133,4.568,4.568,0,0,1,2.311,4.657H90.154c0-.053-.1-.1-.1-.151-.133-3.457-3.03-4.524-6.141-4.221a8.15,8.15,0,0,0-2.666.809,2.846,2.846,0,0,0,.231,5.172c1.369.5,2.8.818,4.2,1.209,1.129.311,2.3.515,3.395.889a4.008,4.008,0,0,1,2.755,3.617,4.275,4.275,0,0,1-2.3,4.444c-2.968,1.68-7.856,1.235-10.033-.889a5.928,5.928,0,0,1-1.724-4.221Z" transform="translate(3.364 0)"/>
    <path id="path10" d="M107.126,48.417h-1.182a2.93,2.93,0,0,0-.08-.435,3.866,3.866,0,0,0-3.146-3.715,7.758,7.758,0,0,0-4.986.24,3.031,3.031,0,0,0-2.2,2.888A2.791,2.791,0,0,0,97.67,50.2c1.777.551,3.6.889,5.4,1.386a15.109,15.109,0,0,1,1.724.524,4.444,4.444,0,0,1,.24,8.274,9.891,9.891,0,0,1-8,.08A5.546,5.546,0,0,1,93.7,55.082h1.155a6.479,6.479,0,0,0,9.865,4.124,3.173,3.173,0,0,0,1.706-2.968,2.746,2.746,0,0,0-1.875-2.728c-1.386-.515-2.862-.791-4.275-1.244a31.486,31.486,0,0,1-4.328-1.555c-2.222-1.093-2.4-5.386.133-6.754a8.949,8.949,0,0,1,8.816-.1,4.648,4.648,0,0,1,2.231,4.559Z" transform="translate(4.068 0.001)"/>
    <path id="path12" d="M33.081,60.755a2.035,2.035,0,0,1-2.524-.96c-1.449-2.168-3.048-4.239-4.586-6.354l-.667-.889c-1.831,2.453-3.661,4.808-5.332,7.252a1.955,1.955,0,0,1-2.4.942l6.87-9.216L18.053,43.2a2.124,2.124,0,0,1,2.533.889c1.484,2.168,3.128,4.239,4.763,6.434,1.644-2.177,3.27-4.257,4.79-6.408a1.911,1.911,0,0,1,2.382-.889l-2.479,3.288c-1.111,1.466-2.2,2.942-3.359,4.372a.889.889,0,0,0,0,1.324C28.807,55.032,30.913,57.858,33.081,60.755Z" transform="translate(0.698 0.016)"/>
    <path id="path14" d="M60.7,43.113v1.244a6.443,6.443,0,0,0-6.861,6.656v9.776H52.568V43.184h1.244v3.608c1.537-2.631,3.91-3.608,6.887-3.679Z" transform="translate(2.247 0.017)"/>
    <path id="path16" d="M1.813,51.431c.187-.889.3-1.857.56-2.764,1.537-5.466,7.8-7.741,12.113-4.355,2.524,1.982,3.155,4.79,3.03,7.954H3.3c-.231,5.652,3.848,9.065,9.065,7.323a5.412,5.412,0,0,0,3.439-3.83c.276-.889.72-1.04,1.564-.782a7.216,7.216,0,0,1-3.448,5.27A8.354,8.354,0,0,1,4.186,59,8.754,8.754,0,0,1,2,53.866a4.258,4.258,0,0,0-.178-.889Q1.813,52.186,1.813,51.431Zm1.5-.382h12.86c-.08-4.1-2.666-7-6.114-7.03-3.839-.053-6.585,2.791-6.754,7.012Z" transform="translate(0 0)"/>
  </g>
</svg>
