<svg xmlns="http://www.w3.org/2000/svg" width="62" height="62" viewBox="0 0 62 62">
  <g id="Group_193" data-name="Group 193" transform="translate(-476 -336)">
    <g id="Group_192" data-name="Group 192">
      <rect id="Rectangle_9" data-name="Rectangle 9" width="62" height="62" rx="31" transform="translate(476 336)" fill="#fff" opacity="0.13"/>
      <rect id="Rectangle_8" data-name="Rectangle 8" width="50" height="50" rx="25" transform="translate(482 342)" fill="#04d48e" opacity="0.13"/>
    </g>
    <path id="_023-facebook" data-name="023-facebook" d="M6.812,13.937H9.33v9.312a.75.75,0,0,0,.75.75h4.007a.75.75,0,0,0,.75-.75V13.938h2.387a.75.75,0,0,0,.744-.657l.5-4a.751.751,0,0,0-.744-.843H14.837c.113-2.471-.435-3.2,1.172-3.2,1.088-.13,2.8.421,2.8-.75V.909a.75.75,0,0,0-.648-.743A26.926,26.926,0,0,0,15.071,0C8.061,0,9.5,7.772,9.331,8.437H6.812a.75.75,0,0,0-.75.75v4a.75.75,0,0,0,.75.75Zm.75-4H10.08a.75.75,0,0,0,.75-.75V6.037c0-2.883,1.545-4.536,4.24-4.536.878,0,1.686.043,2.242.087V3.737c-.4.2-3.976-.884-3.976,2.7V9.189a.75.75,0,0,0,.75.75h2.786l-.312,2.5H14.086a.75.75,0,0,0-.75.75V22.5H10.831V13.188a.75.75,0,0,0-.75-.75H7.562Z" transform="translate(494.938 355)" fill="#108f64"/>
  </g>
</svg>
