<svg id="Group_10" data-name="Group 10" xmlns="http://www.w3.org/2000/svg" width="120" height="120" viewBox="0 0 150 150">
  <rect id="Rectangle_1" data-name="Rectangle 1" width="150" height="150" rx="20" fill="#fff"/>
  <g id="firebase-ar21" transform="translate(8.079 41.581)">
    <g id="Group_9" data-name="Group 9" transform="translate(11.921 15.419)">
      <path id="Path_41" data-name="Path 41" d="M0,28.868l.217-.3L10.459,9.131l.022-.206L5.965.445A.838.838,0,0,0,4.4.709Z" transform="translate(0 0)" fill="#ffc24a"/>
      <path id="Path_42" data-name="Path 42" d="M.113,28.621.277,28.3,10.41,9.072,5.908.557A.761.761,0,0,0,4.459.82Z" transform="translate(0.015 0.015)" fill="#ffa712"/>
      <g id="Group_7" data-name="Group 7" transform="translate(0.128 0.133)">
        <path id="Path_43" data-name="Path 43" d="M.113,28.621.277,28.3,10.41,9.072,5.908.557A.761.761,0,0,0,4.459.82Z" transform="translate(-0.113 -0.117)"/>
      </g>
      <path id="Path_44" data-name="Path 44" d="M12.562,14.759l3.362-3.443L12.561,4.9a.866.866,0,0,0-1.526,0l-1.8,3.427v.292Z" transform="translate(1.209 0.581)" fill="#f4bd62"/>
      <path id="Path_45" data-name="Path 45" d="M12.5,14.6l3.268-3.347L12.5,5.03a.753.753,0,0,0-1.371-.061L9.321,8.447l-.054.178Z" transform="translate(1.213 0.596)" fill="#ffa50e"/>
      <g id="Group_8" data-name="Group 8" transform="translate(10.48 5.151)">
        <path id="Path_46" data-name="Path 46" d="M12.5,14.6l3.268-3.347L12.5,5.03a.753.753,0,0,0-1.371-.061L9.321,8.447l-.054.178Z" transform="translate(-9.267 -4.555)"/>
      </g>
      <path id="Path_47" data-name="Path 47" d="M10.457,7.857,0,27.84l.1-.1L.455,27.6,13.561,14.539l.166-.452Z" transform="translate(0 1.029)" fill="#f6820c"/>
      <path id="Path_48" data-name="Path 48" d="M14.191,34.608l11.861-6.615L22.666,7.133a.811.811,0,0,0-1.374-.443L0,28.024l11.793,6.584a2.461,2.461,0,0,0,2.4,0" transform="translate(0 0.845)" fill="#fde068"/>
      <path id="Path_49" data-name="Path 49" d="M25.931,27.926l-3.361-20.7a.712.712,0,0,0-1.235-.451L.117,27.971,11.781,34.49a2.443,2.443,0,0,0,2.38,0Z" transform="translate(0.015 0.856)" fill="#fcca3f"/>
      <path id="Path_50" data-name="Path 50" d="M14.191,31.941a2.461,2.461,0,0,1-2.4,0L.095,25.45l-.095.1,11.793,6.584a2.461,2.461,0,0,0,2.4,0l11.861-6.615-.029-.179Z" transform="translate(0 3.318)" fill="#eeab37"/>
    </g>
    <path id="Path_51" data-name="Path 51" d="M43.134,40.076H41.115V24.365h9.16V26.3H43.134v5.157h6.452v1.889H43.134Zm10.69-13.451a1.425,1.425,0,1,1,.418-1.009,1.375,1.375,0,0,1-.418,1.009Zm0,13.451H51.806V29.324h2.019Zm4.357,0h-2.02V29.324h1.93V31.08h.087a2.747,2.747,0,0,1,1.262-1.448,3.588,3.588,0,0,1,1.855-.571,3.824,3.824,0,0,1,1.515.264l-.769,1.889a2.818,2.818,0,0,0-1.074-.154,2.635,2.635,0,0,0-1.942.866,3.119,3.119,0,0,0-.845,2.271v5.881Zm9.938.339a5.182,5.182,0,0,1-3.96-1.624,5.758,5.758,0,0,1-1.527-4.1,5.96,5.96,0,0,1,1.47-4.037,4.812,4.812,0,0,1,3.785-1.69,4.979,4.979,0,0,1,3.829,1.558,5.9,5.9,0,0,1,1.436,4.17l-.023.373H64.649a3.654,3.654,0,0,0,1.086,2.567,3.291,3.291,0,0,0,2.338.943,2.9,2.9,0,0,0,2.94-1.843l1.809.746a4.745,4.745,0,0,1-1.734,2.1,5.038,5.038,0,0,1-2.963.845Zm2.9-7.012a2.874,2.874,0,0,0-.845-1.755,3.016,3.016,0,0,0-2.315-.833,2.9,2.9,0,0,0-1.942.7A3.588,3.588,0,0,0,64.783,33.4H71Zm9.458,7.012a4.56,4.56,0,0,1-2.205-.527,3.846,3.846,0,0,1-1.47-1.316h-.076v1.493h-1.93v-15.7H76.81v4.959l-.088,1.493h.088A3.686,3.686,0,0,1,78.28,29.5a4.608,4.608,0,0,1,2.205-.527,4.71,4.71,0,0,1,3.6,1.645A5.848,5.848,0,0,1,85.6,34.691a5.767,5.767,0,0,1-1.515,4.071,4.772,4.772,0,0,1-3.6,1.645Zm-.339-1.843a3.213,3.213,0,0,0,2.413-1.063,3.93,3.93,0,0,0,1.009-2.819,3.931,3.931,0,0,0-1.009-2.819,3.211,3.211,0,0,0-2.413-1.063,3.178,3.178,0,0,0-2.425,1.052,3.965,3.965,0,0,0-1,2.831,3.943,3.943,0,0,0,1,2.831,3.217,3.217,0,0,0,2.425,1.054Zm10.758,1.843a4.317,4.317,0,0,1-2.863-.987,3.487,3.487,0,0,1,.207-5.355,5.521,5.521,0,0,1,3.359-1,5.78,5.78,0,0,1,2.918.658v-.308a2.4,2.4,0,0,0-.812-1.9,2.918,2.918,0,0,0-2-.712,3.08,3.08,0,0,0-1.591.418,2.149,2.149,0,0,0-.976,1.141l-1.843-.789a4.165,4.165,0,0,1,1.47-1.787,4.714,4.714,0,0,1,2.9-.823,4.97,4.97,0,0,1,3.423,1.207,4.307,4.307,0,0,1,1.36,3.4v6.495H94.522V38.584h-.088A3.96,3.96,0,0,1,90.9,40.428Zm.339-1.843a3.286,3.286,0,0,0,2.271-.933,2.9,2.9,0,0,0,1.02-2.205,3.978,3.978,0,0,0-2.567-.7,3.34,3.34,0,0,0-2.217.637,1.911,1.911,0,0,0-.746,1.493,1.435,1.435,0,0,0,.681,1.251,2.712,2.712,0,0,0,1.558.461Zm11.083,1.843a4.847,4.847,0,0,1-2.974-.878,5.191,5.191,0,0,1-1.722-2.194l1.809-.746a2.961,2.961,0,0,0,2.918,2.019,2.655,2.655,0,0,0,1.547-.418,1.28,1.28,0,0,0,.6-1.1q0-1.052-1.47-1.425l-2.171-.527a5.173,5.173,0,0,1-1.953-1,2.365,2.365,0,0,1-.918-1.973,2.716,2.716,0,0,1,1.262-2.315,5.419,5.419,0,0,1,5.541-.242,3.658,3.658,0,0,1,1.6,1.855l-1.755.724a2.383,2.383,0,0,0-2.457-1.425,2.774,2.774,0,0,0-1.515.373,1.146,1.146,0,0,0-.614,1.009q0,.921,1.425,1.251l2.128.5a4.032,4.032,0,0,1,2.239,1.207,2.9,2.9,0,0,1,.724,1.93,2.992,2.992,0,0,1-1.185,2.413,4.674,4.674,0,0,1-3.05.966Zm10.752,0a5.18,5.18,0,0,1-3.96-1.624,5.763,5.763,0,0,1-1.527-4.1,5.96,5.96,0,0,1,1.47-4.037,4.812,4.812,0,0,1,3.785-1.69,4.979,4.979,0,0,1,3.829,1.558,5.9,5.9,0,0,1,1.436,4.17v.373h-8.482A3.644,3.644,0,0,0,110.7,37.63a3.291,3.291,0,0,0,2.336.943,2.9,2.9,0,0,0,2.94-1.843l1.809.746a4.745,4.745,0,0,1-1.734,2.1,5.038,5.038,0,0,1-2.963.845Zm2.9-7.012a2.874,2.874,0,0,0-.845-1.755,3.016,3.016,0,0,0-2.315-.833,2.9,2.9,0,0,0-1.942.7,3.593,3.593,0,0,0-1.131,1.889h6.22Z" transform="translate(3.822 1.148)" fill="#63666a"/>
  </g>
</svg>
