<svg id="Group_20" data-name="Group 20" xmlns="http://www.w3.org/2000/svg" width="120" height="120" viewBox="0 0 150 150">
  <rect id="Rectangle_1" data-name="Rectangle 1" width="150" height="150" rx="20" fill="#fff"/>
  <g id="google_analytics-ar21" transform="translate(-13.101 72.353)">
    <g id="Group_17" data-name="Group 17" transform="translate(68.324 -17.353)">
      <path id="Path_84" data-name="Path 84" d="M74.155,7.249l2.412,6.333H71.893l2.263-6.333ZM73.25,5.128,67.973,19h1.96l1.357-3.768h5.879L78.524,19h1.96L75.207,5.128h-1.96Zm28.484,13.88h1.818V5.138h-1.818V19.006ZM83.2,10.857A3.859,3.859,0,0,1,86.214,9.2c2.412,0,3.618,1.659,3.618,4.071v5.879H88.014V13.57c0-1.96-1.056-2.714-2.412-2.714a2.808,2.808,0,0,0-2.563,2.865V19H81.221V9.362h1.818l.152,1.508Zm8.141,5.287c0-2.121,1.96-3.317,4.222-3.317a4.118,4.118,0,0,1,2.563.6v-.3a2.253,2.253,0,0,0-2.412-2.263,2.21,2.21,0,0,0-2.263,1.357l-1.659-.754c.3-.905,1.508-2.263,3.919-2.263a3.912,3.912,0,0,1,4.222,4.071V19H98.274V17.648h-.152a3.632,3.632,0,0,1-3.166,1.659c-1.96,0-3.618-1.206-3.618-3.166m6.784-1.206a3.789,3.789,0,0,0-2.263-.6c-1.818,0-2.563,1.056-2.563,1.818,0,1.056,1.056,1.508,1.96,1.508a2.94,2.94,0,0,0,2.865-2.714" transform="translate(-67.973 17.579)" fill="#757575"/>
      <path id="Path_85" data-name="Path 85" d="M105.751,23.193l2.121-4.975-3.768-8.744h1.818l2.865,6.633,2.865-6.633h1.818l-5.879,13.719h-1.818Zm26.535-10.555a2.861,2.861,0,0,0-2.563-1.96A3.084,3.084,0,0,0,126.859,14a3.084,3.084,0,0,0,2.865,3.317,2.917,2.917,0,0,0,2.563-1.818l1.508.905a4.429,4.429,0,0,1-4.071,2.714,4.907,4.907,0,0,1-4.674-5.126,4.82,4.82,0,0,1,4.674-5.126,4.418,4.418,0,0,1,4.071,2.714l-1.508,1.056Z" transform="translate(-67.609 17.617)" fill="#757575" fill-rule="evenodd"/>
      <path id="Path_86" data-name="Path 86" d="M138.593,19.27c2.412,0,3.618-1.357,3.618-3.015,0-3.618-5.277-2.263-5.277-4.372,0-.754.6-1.206,1.659-1.206a3,3,0,0,1,2.563,1.206l1.056-1.056a5.611,5.611,0,0,0-3.768-1.818c-2.263,0-3.468,1.357-3.468,3.015,0,3.468,5.427,2.263,5.427,4.071,0,.905-.6,1.508-1.818,1.508a2.962,2.962,0,0,1-2.412-1.508l-1.339,1.066c.905.905,2.263,2.121,3.768,2.121Zm-17.186-.3h1.818V9.321h-1.818Z" transform="translate(-67.435 17.619)" fill="#757575"/>
      <path id="Path_87" data-name="Path 87" d="M122.236,4.7a1.206,1.206,0,1,1,0,2.412,1.3,1.3,0,0,1-1.206-1.206A1.3,1.3,0,0,1,122.236,4.7Zm-2.563,12.815.3,1.357h-1.818c-1.659,0-2.412-1.206-2.412-3.015V11.164h-1.818V9.346h1.818V6.5h1.818V9.365h2.121v1.818h-2.121v4.975c0,1.357,1.056,1.357,2.121,1.357Z" transform="translate(-67.51 17.575)" fill="#757575" fill-rule="evenodd"/>
      <path id="Path_88" data-name="Path 88" d="M77.129-9.968v2.263h5.277A4.53,4.53,0,0,1,81.2-4.992a5.415,5.415,0,0,1-4.071,1.659A5.761,5.761,0,0,1,71.4-9.212a5.856,5.856,0,0,1,5.729-5.879,5.829,5.829,0,0,1,3.919,1.508l1.508-1.508a7.84,7.84,0,0,0-5.427-2.263,8.173,8.173,0,0,0-8.141,7.98,8.171,8.171,0,0,0,8.141,7.98,7.046,7.046,0,0,0,5.578-2.263,7.12,7.12,0,0,0,1.96-5.126,3.722,3.722,0,0,0-.152-1.357H77.128Zm13.416-1.818A5,5,0,0,0,85.419-6.66a5,5,0,0,0,5.126,5.126,5.081,5.081,0,0,0,3.638-1.488A5.081,5.081,0,0,0,95.671-6.66,4.993,4.993,0,0,0,90.545-11.786Zm0,8.283A3.036,3.036,0,0,1,87.68-6.669a3.027,3.027,0,0,1,2.865-3.155,2.946,2.946,0,0,1,2.866,3.162A2.949,2.949,0,0,1,90.546-3.5Zm24.716-7.228a3.913,3.913,0,0,0-2.865-1.206,5.028,5.028,0,0,0-4.824,5.126A5.029,5.029,0,0,0,112.4-1.686a3.55,3.55,0,0,0,2.714-1.206h.152v.754c0,1.96-1.056,3.015-2.714,3.015a2.877,2.877,0,0,1-2.563-1.818l-1.96.754a4.989,4.989,0,0,0,4.523,3.015c2.714,0,4.975-1.508,4.975-5.427v-9.346H115.4v1.206ZM112.7-3.5a2.922,2.922,0,0,1-2.714-3.166A2.922,2.922,0,0,1,112.7-9.827a2.922,2.922,0,0,1,2.714,3.166A2.922,2.922,0,0,1,112.7-3.5Zm-11.007-8.283a5,5,0,0,0-5.126,5.126,5,5,0,0,0,5.126,5.126,5.081,5.081,0,0,0,3.638-1.488,5.081,5.081,0,0,0,1.488-3.638A4.908,4.908,0,0,0,101.692-11.778Zm0,8.283a3.036,3.036,0,0,1-2.865-3.166,3.036,3.036,0,0,1,2.865-3.166,2.943,2.943,0,0,1,2.865,3.166A2.943,2.943,0,0,1,101.692-3.5ZM119.2-17.2h2.263V-1.526H119.2Zm8.442,13.719a2.917,2.917,0,0,1-2.563-1.508l6.935-2.865-.3-.6a4.856,4.856,0,0,0-4.372-3.317,4.846,4.846,0,0,0-4.824,5.126A5.081,5.081,0,0,0,124-3.014a5.081,5.081,0,0,0,3.638,1.488,5.484,5.484,0,0,0,4.372-2.263L130.2-4.995a2.917,2.917,0,0,1-2.563,1.508Zm-.152-6.333a2.019,2.019,0,0,1,1.96,1.206l-4.674,1.96c0-2.263,1.508-3.166,2.714-3.166Z" transform="translate(-67.963 17.353)" fill="#757575"/>
    </g>
    <g id="Group_19" data-name="Group 19" transform="translate(33.101 -16.49)">
      <path id="Path_89" data-name="Path 89" d="M25.821,5.8V32.284A4.273,4.273,0,0,0,30.034,36.9c2.006,0,4.213-1.4,4.213-4.614V6a4.218,4.218,0,0,0-4.213-4.414A4.282,4.282,0,0,0,25.821,5.8Z" transform="translate(-3.752 -1.589)" fill="#f9ab00"/>
      <g id="Group_18" data-name="Group 18" transform="translate(0 13.442)">
        <path id="Path_90" data-name="Path 90" d="M14.9,19.11V32.15a4.273,4.273,0,0,0,4.213,4.614c2.006,0,4.213-1.4,4.213-4.614V19.31A4.218,4.218,0,0,0,19.11,14.9,4.282,4.282,0,0,0,14.9,19.11Z" transform="translate(-3.862 -14.896)" fill="#e37400"/>
        <circle id="Ellipse_1" data-name="Ellipse 1" cx="4.213" cy="4.213" r="4.213" transform="translate(0 13.442)" fill="#e37400"/>
      </g>
    </g>
  </g>
</svg>
