<svg id="Layer_1" data-name="Layer 1" xmlns="http://www.w3.org/2000/svg" viewBox="0 0 174 32"><defs><style>.cls-1{fill:#fff;}.cls-2{fill:#191919;}</style></defs><rect class="cls-1" width="174" height="32"/><path class="cls-2" d="M129.31,27.17H65.18c-.15,0-.1.12-.11.21s0,.18.12.17h64.4a.16.16,0,0,0,.16-.18C129.74,27,129.46,27.17,129.31,27.17Z"/><path class="cls-2" d="M88.34,26.44h13.14a12.75,12.75,0,0,0,3.14-.34,3.79,3.79,0,0,0,2.95-2.7,8.88,8.88,0,0,0,.33-2.51V15.13a10.57,10.57,0,0,0-.15-1.77,3.9,3.9,0,0,0-3.13-3.52,10.89,10.89,0,0,0-2.54-.3c-4.6,0-9.2,0-13.8,0-.31,0-.31.14-.31.37V26.05C88,26.33,88,26.44,88.34,26.44Zm15.78-11.79v.08h0v-.07ZM91.74,12.78l.35,0h9a6.92,6.92,0,0,1,1.2.08,1.81,1.81,0,0,1,1.77,1.7l0,.21v4c0,.88,0,1.77,0,2.66a1.88,1.88,0,0,1-1.91,1.77,6.44,6.44,0,0,1-1,.05H91.74l0,0,0,0Z"/><path class="cls-2" d="M130,14.9a8.87,8.87,0,0,0-.23-2,3.76,3.76,0,0,0-2.3-2.83,8.24,8.24,0,0,0-3.22-.54c-2.92,0-5.86-.18-8.78.1a8.53,8.53,0,0,0-1.81.28,3.66,3.66,0,0,0-2.66,2.5,8.25,8.25,0,0,0-.36,2.47v6a10.6,10.6,0,0,0,.15,1.78A3.78,3.78,0,0,0,113,25.78a6.69,6.69,0,0,0,2.1.53c1.72.19,3.45.09,4.92.12h3.53a13.59,13.59,0,0,0,3.18-.34,3.77,3.77,0,0,0,2.91-2.65,7.76,7.76,0,0,0,.34-2.19C130,19.13,130,17,130,14.9Zm-3.78,5.47a7.84,7.84,0,0,1-.07,1.19,1.66,1.66,0,0,1-1.57,1.56,9,9,0,0,1-1.16.07h-6.62a5.33,5.33,0,0,1-1-.09c-.84-.13-1.28-.66-1.4-1.65,0-.18,0-.36-.07-.54V15.06c0-.29.1-.57.14-.85a1.5,1.5,0,0,1,1.23-1.31c.26-.07.54-.09.81-.14h5a29.58,29.58,0,0,1,3,.06c1.35.21,1.75,1,1.75,2.37C126.2,16.91,126.18,18.62,126.18,20.37Z"/><path class="cls-2" d="M71.66,16.41H68.93c-.12-.09-.07-.22-.07-.34V14c0-.22,0-.25-.24-.14a27.68,27.68,0,0,0-3.37,2.33.49.49,0,0,0-.18.41v9.52c0,.25.08.3.31.3h3.13c.29,0,.36-.09.36-.37v-6c0-.31,0-.4.39-.4H80.9c.36,0,.41.12.41.44v6c0,.31.09.38.38.38h3c.33,0,.39-.1.39-.41V9.69c0-.16,0-.2-.21-.2H81.55c-.17,0-.23,0-.23.23v6.65l-.43,0Z"/><path class="cls-2" d="M65.59,2.65c.49-.59,1-1.15,1.51-1.74a26.1,26.1,0,0,0-11.52,9.23c-.64-.87-1.31-1.67-2-2.45a24.32,24.32,0,0,0-9.12-6.47c-.14-.05-.27-.14-.44,0a40.8,40.8,0,0,1,5.5,7.11,41,41,0,0,1,4.91,12.85,54.52,54.52,0,0,1,.82,5.67,13.31,13.31,0,0,0,.12,1.55A10.87,10.87,0,0,0,55.5,27c.11-.8.21-1.61.32-2.41a44.63,44.63,0,0,1,2.55-9.77A42.44,42.44,0,0,1,65.59,2.65Z"/><path class="cls-2" d="M73.69,11c.11,0,.26,0,.32-.2a23.81,23.81,0,0,0-6.55.91,14.29,14.29,0,0,0-7.24,4.73A16.36,16.36,0,0,0,57.33,22a23.76,23.76,0,0,0-1.07,5.47,7.85,7.85,0,0,0-.13,1.6c0,.34-.06.67-.07,1s0,.68,0,1a.42.42,0,0,0,.1-.2A35.29,35.29,0,0,1,59.34,23a26,26,0,0,1,7.39-8.38A27,27,0,0,1,73.69,11Z"/><path class="cls-2" d="M54.86,6A1.83,1.83,0,0,0,56,6a2.25,2.25,0,0,0,0-4.36,1.56,1.56,0,0,0-1.2,0,1.67,1.67,0,0,0-1,.53,2.18,2.18,0,0,0-.62,2.26A2.11,2.11,0,0,0,54.86,6Z"/><path class="cls-2" d="M64.84,8.22A2.15,2.15,0,1,0,67,6.09,2.18,2.18,0,0,0,64.84,8.22Z"/><path class="cls-2" d="M66.93,10.8a2.38,2.38,0,0,1-1.85-1v2.33A22.29,22.29,0,0,1,68,11.2c.3-.07.73,0,.87-.25s.05-.63.05-1l0-.16A2.27,2.27,0,0,1,66.93,10.8Z"/><polygon class="cls-2" points="66.48 29.66 65.65 29.66 65.65 28.83 65.22 28.83 65.22 30.9 65.65 30.9 65.65 30.01 66.48 30.01 66.48 30.9 66.91 30.9 66.91 28.83 66.48 28.83 66.48 29.66"/><path class="cls-2" d="M68.42,30.21c0,.25-.12.38-.36.38a.34.34,0,0,1-.35-.4V28.83h-.44v1.38a.67.67,0,0,0,.22.53.85.85,0,0,0,.57.19.83.83,0,0,0,.59-.2.72.72,0,0,0,.21-.54V28.83h-.43Z"/><polygon class="cls-2" points="70.3 30.33 69.76 28.83 69.2 28.83 69.2 30.9 69.63 30.9 69.63 30.33 69.59 29.36 70.15 30.9 70.44 30.9 71 29.36 70.96 30.33 70.96 30.9 71.39 30.9 71.39 28.83 70.83 28.83 70.3 30.33"/><path class="cls-2" d="M72.39,28.83l-.78,2.07h.44l.14-.44h.75l.14.44h.44l-.78-2.07Zm-.07,1.31.28-.79.27.78Z"/><polygon class="cls-2" points="75.01 30.19 74.18 28.83 73.75 28.83 73.75 30.9 74.18 30.9 74.18 29.53 75.01 30.9 75.44 30.9 75.44 28.83 75.01 28.83 75.01 30.19"/><rect class="cls-2" x="75.84" y="28.83" width="0.43" height="2.08"/><polygon class="cls-2" points="78.19 28.83 76.5 28.83 76.5 29.17 77.12 29.17 77.12 30.9 77.55 30.9 77.55 29.17 78.19 29.17 78.19 28.83"/><path class="cls-2" d="M78.85,28.83l-.77,2.07h.44l.14-.44h.75l.14.44H80l-.78-2.07Zm0,1.31.25-.78.27.78Z"/><path class="cls-2" d="M81.67,29.8a.59.59,0,0,0,.09-.35.54.54,0,0,0-.2-.46.84.84,0,0,0-.57-.16h-.77V30.9h.44v-.76H81l.39.76h.44L81.39,30A.7.7,0,0,0,81.67,29.8Zm-.44-.09a.38.38,0,0,1-.25.09h-.34v-.63H81a.35.35,0,0,1,.26.08.41.41,0,0,1,.08.24.29.29,0,0,1-.07.22Z"/><rect class="cls-2" x="82.11" y="28.83" width="0.43" height="2.08"/><path class="cls-2" d="M83.56,28.83l-.77,2.07h.43l.14-.44h.75l.15.44h.43L84,28.83Zm-.06,1.31.26-.78.26.78Z"/><polygon class="cls-2" points="86.19 30.19 85.36 28.83 84.93 28.83 84.93 30.9 85.36 30.9 85.36 29.53 86.19 30.9 86.61 30.9 86.61 28.83 86.19 28.83 86.19 30.19"/><path class="cls-2" d="M88.84,29a.91.91,0,0,0-.49-.12h-.63V30.9h.64a1,1,0,0,0,.49-.13.84.84,0,0,0,.34-.36,1.17,1.17,0,0,0,.12-.52V29.8a1.06,1.06,0,0,0-.13-.52A.77.77,0,0,0,88.84,29Zm0,1a.78.78,0,0,1-.12.49.46.46,0,0,1-.38.16h-.21v-1.4h.21a.48.48,0,0,1,.39.16.81.81,0,0,1,.13.48Z"/><polygon class="cls-2" points="90.04 30 90.86 30 90.86 29.66 90.04 29.66 90.04 29.17 91 29.17 91 28.83 89.61 28.83 89.61 30.9 91 30.9 91 30.55 90.04 30.55 90.04 30"/><polygon class="cls-2" points="92.03 30.39 91.55 28.83 91.08 28.83 91.8 30.9 92.25 30.9 92.97 28.83 92.49 28.83 92.03 30.39"/><polygon class="cls-2" points="93.59 30 94.41 30 94.41 29.66 93.59 29.66 93.59 29.17 94.55 29.17 94.55 28.83 93.16 28.83 93.16 30.9 94.56 30.9 94.56 30.55 93.59 30.55 93.59 30"/><polygon class="cls-2" points="95.23 28.83 94.81 28.83 94.81 30.9 96.14 30.9 96.14 30.55 95.23 30.55 95.23 28.83"/><path class="cls-2" d="M97.58,28.92a.89.89,0,0,0-.92,0,.77.77,0,0,0-.31.36,1.25,1.25,0,0,0-.12.54v.1a1.24,1.24,0,0,0,.12.53.71.71,0,0,0,.31.35.84.84,0,0,0,.46.13.85.85,0,0,0,.47-.13.79.79,0,0,0,.3-.35,1.27,1.27,0,0,0,.11-.54v-.09a1.24,1.24,0,0,0-.11-.54A.83.83,0,0,0,97.58,28.92Zm0,1a.85.85,0,0,1-.12.49.37.37,0,0,1-.32.17.38.38,0,0,1-.34-.18.85.85,0,0,1-.12-.49v-.1a.83.83,0,0,1,.12-.49.41.41,0,0,1,.66,0,.86.86,0,0,1,.12.5Z"/><path class="cls-2" d="M99.53,28.91a.84.84,0,0,0-.41-.08h-.81V30.9h.44v-.73h.38A.85.85,0,0,0,99.7,30a.58.58,0,0,0,.21-.48.77.77,0,0,0-.09-.36A.68.68,0,0,0,99.53,28.91Zm-.15.83a.34.34,0,0,1-.26.08h-.38v-.65h.39a.33.33,0,0,1,.25.1.35.35,0,0,1,0,.47Z"/><polygon class="cls-2" points="101.29 30.33 100.75 28.83 100.19 28.83 100.19 30.9 100.62 30.9 100.62 30.33 100.58 29.36 101.14 30.9 101.43 30.9 101.99 29.36 101.95 30.33 101.95 30.9 102.38 30.9 102.38 28.83 101.82 28.83 101.29 30.33"/><polygon class="cls-2" points="103.18 30 104 30 104 29.66 103.18 29.66 103.18 29.17 104.14 29.17 104.14 28.83 102.75 28.83 102.75 30.9 104.14 30.9 104.14 30.55 103.18 30.55 103.18 30"/><polygon class="cls-2" points="105.66 30.19 104.82 28.83 104.39 28.83 104.39 30.9 104.82 30.9 104.82 29.53 105.66 30.9 106.08 30.9 106.08 28.83 105.66 28.83 105.66 30.19"/><polygon class="cls-2" points="106.29 29.17 106.92 29.17 106.92 30.9 107.34 30.9 107.34 29.17 107.98 29.17 107.98 28.83 106.29 28.83 106.29 29.17"/><path class="cls-2" d="M110.14,28.92a.89.89,0,0,0-.92,0,.86.86,0,0,0-.32.36,1.24,1.24,0,0,0-.11.54v.1a1.21,1.21,0,0,0,.12.53.71.71,0,0,0,.31.35.89.89,0,0,0,.92,0,.75.75,0,0,0,.31-.35,1.27,1.27,0,0,0,.11-.54v-.09a1.24,1.24,0,0,0-.11-.54A.9.9,0,0,0,110.14,28.92Zm0,1a.94.94,0,0,1-.12.49.4.4,0,0,1-.33.17.38.38,0,0,1-.34-.18.85.85,0,0,1-.12-.49v-.1a.83.83,0,0,1,.12-.49.4.4,0,0,1,.33-.17.38.38,0,0,1,.34.17.86.86,0,0,1,.12.5Z"/><path class="cls-2" d="M112.32,29.8a.59.59,0,0,0,.09-.35.57.57,0,0,0-.2-.46.83.83,0,0,0-.57-.16h-.76V30.9h.44v-.76h.34l.38.76h.47l-.44-.87A.61.61,0,0,0,112.32,29.8Zm-.44-.09a.38.38,0,0,1-.25.09h-.34v-.63h.34a.34.34,0,0,1,.26.08.31.31,0,0,1,.08.24A.27.27,0,0,1,111.88,29.71Z"/><path class="cls-2" d="M113.24,29.31a.43.43,0,0,1,.6-.09.46.46,0,0,1,.13.27h.41a.73.73,0,0,0-.24-.52.86.86,0,0,0-.58-.17.76.76,0,0,0-.46.12.85.85,0,0,0-.31.34,1.44,1.44,0,0,0-.1.54v.14a1.32,1.32,0,0,0,.11.53.81.81,0,0,0,.32.34,1,1,0,0,0,.47.12,1.27,1.27,0,0,0,.47-.09.72.72,0,0,0,.33-.21V29.8h-.82v.31H114v.36a.47.47,0,0,1-.34.11.48.48,0,0,1-.37-.17.85.85,0,0,1-.12-.49v-.14A.86.86,0,0,1,113.24,29.31Z"/><path class="cls-2" d="M115.33,28.83l-.77,2.07H115l.15-.44h.74l.15.44h.46l-.78-2.07Zm-.06,1.31.26-.78.26.78Z"/><polygon class="cls-2" points="117.96 30.19 117.12 28.83 116.7 28.83 116.7 30.9 117.12 30.9 117.12 29.53 117.96 30.9 118.39 30.9 118.39 28.83 117.96 28.83 117.96 30.19"/><rect class="cls-2" x="118.79" y="28.83" width="0.43" height="2.08"/><polygon class="cls-2" points="121.09 29.07 121.09 28.83 119.53 28.83 119.53 29.17 120.55 29.17 119.53 30.65 119.53 30.9 121.11 30.9 121.11 30.55 120.06 30.55 121.09 29.07"/><path class="cls-2" d="M122,28.83l-.77,2.07h.44l.14-.44h.75l.14.44h.46l-.78-2.07Zm-.06,1.31.26-.78.26.78Z"/><polygon class="cls-2" points="123.06 29.17 123.69 29.17 123.69 30.9 124.12 30.9 124.12 29.17 124.75 29.17 124.75 28.83 123.06 28.83 123.06 29.17"/><rect class="cls-2" x="125.02" y="28.83" width="0.43" height="2.08"/><path class="cls-2" d="M127.13,28.92a.89.89,0,0,0-.92,0,.77.77,0,0,0-.31.36,1.25,1.25,0,0,0-.12.54v.1a1.24,1.24,0,0,0,.12.53.71.71,0,0,0,.31.35.84.84,0,0,0,.46.13.85.85,0,0,0,.47-.13.88.88,0,0,0,.31-.35,1.44,1.44,0,0,0,.1-.54v-.09a1.12,1.12,0,0,0-.11-.54A.83.83,0,0,0,127.13,28.92Zm0,1a.85.85,0,0,1-.12.49.41.41,0,0,1-.57.09.38.38,0,0,1-.09-.09.85.85,0,0,1-.12-.49v-.1a.86.86,0,0,1,.12-.5.38.38,0,0,1,.33-.16.37.37,0,0,1,.33.17.86.86,0,0,1,.12.5Z"/><polygon class="cls-2" points="129.13 30.19 128.29 28.83 127.86 28.83 127.86 30.9 128.29 30.9 128.29 29.53 129.12 30.9 129.55 30.9 129.55 28.83 129.13 28.83 129.13 30.19"/></svg>