<svg id="Layer_1" data-name="Layer 1" xmlns="http://www.w3.org/2000/svg" viewBox="0 0 174 32"><defs><style>.cls-1{fill:#fff;}.cls-2{fill:#191919;}</style></defs><rect class="cls-1" width="174" height="32"/><path class="cls-2" d="M44.53,13.71s0,.06-.06.09l-.53.53-1.4,1.4L41.28,17l-1.79,1.79c-.71.7-1.41,1.4-2.11,2.11-.08.07-.12.08-.2,0L35.34,19c-.05,0-.09-.07,0-.14l3-3,2.13-2.13c.08-.08.06-.12,0-.19l-1.84-1.82L37,10.22l-1.71-1.7s0-.07,0-.12l1.89-1.89c.08-.08.11,0,.15,0l1.17,1.16L40,9.15,41.85,11l2,2,.57.57S44.53,13.67,44.53,13.71Z"/><path class="cls-2" d="M42.63,21l-.07-.06-1.85-1.85c-.07-.07-.08-.11,0-.18l3-3c.68-.68,1.35-1.37,2-2,.09-.09.06-.12,0-.19L43,10.83,40.75,8.59c-.13-.13-.13-.13,0-.26l1.81-1.8c.06-.07.1-.08.16,0l4.05,4.05,3,3c.09.09.07.13,0,.21l-6.72,6.71-.39.4Z"/><path class="cls-2" d="M47.93,6.45l.07.06,4.13,4.13,3,3c.09.09.09.13,0,.23Q51.56,17.36,48,20.89c-.08.08-.11.08-.19,0L46,19.09c-.1-.1-.11-.15,0-.25l4-4,1-1c.07-.06.08-.1,0-.17l-2.37-2.37c-.78-.77-1.56-1.55-2.33-2.33L46,8.55c-.06-.06-.08-.1,0-.17.63-.62,1.26-1.25,1.88-1.88Z"/><path class="cls-2" d="M69.79,6.28V20.82H66.86V14.5H60.64v6.32h-2.9V6.28h2.9v5.89h6.22V6.28Z"/><path class="cls-2" d="M72.59,5a2.09,2.09,0,0,1,2.59,0,1.45,1.45,0,0,1,.5,1.14,1.42,1.42,0,0,1-.5,1.12,2.12,2.12,0,0,1-2.59,0,1.42,1.42,0,0,1-.5-1.12A1.45,1.45,0,0,1,72.59,5Zm2.74,4.41V20.82H72.42V9.41Z"/><path class="cls-2" d="M84.06,18.33v2.49H82.53a4.24,4.24,0,0,1-2.93-.92,4,4,0,0,1-1-3.09V11.86H77V9.41h1.59V6.59h2.9V9.41H84v2.45H81.48v5A1.64,1.64,0,0,0,81.81,18a1.56,1.56,0,0,0,1.11.33Z"/><path class="cls-2" d="M100.85,14.57a3.56,3.56,0,0,1,.8,2.3,3.62,3.62,0,0,1-1.23,2.89,5.26,5.26,0,0,1-3.55,1.06H90.63V6.28h6.11a5.27,5.27,0,0,1,3.39,1A3.34,3.34,0,0,1,101.32,10a3.46,3.46,0,0,1-.71,2.23,3.4,3.4,0,0,1-1.87,1.13A3.53,3.53,0,0,1,100.85,14.57Zm-7.32-2.19h2.62a2.44,2.44,0,0,0,1.65-.49,1.7,1.7,0,0,0,.57-1.39,1.78,1.78,0,0,0-.56-1.4,2.52,2.52,0,0,0-1.7-.49H93.53ZM98.06,18a1.77,1.77,0,0,0,.62-1.47,1.87,1.87,0,0,0-.63-1.5,2.69,2.69,0,0,0-1.78-.52H93.53v4h2.76a2.72,2.72,0,0,0,1.77-.5Z"/><path class="cls-2" d="M114.6,9.41V20.82h-2.9v-2.3a3.63,3.63,0,0,1-1.5,1.8,4.4,4.4,0,0,1-2.4.65,4,4,0,0,1-3.15-1.3,5.2,5.2,0,0,1-1.17-3.62V9.41h2.88v6.31a3,3,0,0,0,.7,2.11,2.51,2.51,0,0,0,1.9.75,2.6,2.6,0,0,0,2-.81,3.3,3.3,0,0,0,.74-2.3V9.41Z"/><path class="cls-2" d="M119.19,9.41l3.11,7.75,2.88-7.75h3.2l-7,16.85h-3.22l2.58-5.77L116,9.41Z"/><path class="cls-2" d="M137,10.32a4.54,4.54,0,0,1,1.56,2.8h-2.72a2.28,2.28,0,0,0-.74-1.32,2.21,2.21,0,0,0-1.5-.49,1.72,1.72,0,0,0-1.16.35,1.19,1.19,0,0,0-.41.94,1,1,0,0,0,.33.77,2.35,2.35,0,0,0,.82.45c.33.11.81.24,1.43.39a14.48,14.48,0,0,1,2.11.61,3.5,3.5,0,0,1,1.4,1,2.77,2.77,0,0,1,.58,1.86,2.86,2.86,0,0,1-1.14,2.37,4.9,4.9,0,0,1-3.08.91,5.86,5.86,0,0,1-3.56-1,4.22,4.22,0,0,1-1.63-2.86h2.78a1.87,1.87,0,0,0,.75,1.33,2.72,2.72,0,0,0,1.66.49,1.63,1.63,0,0,0,1.14-.36,1.24,1.24,0,0,0,.39-.94,1,1,0,0,0-.34-.8,2.31,2.31,0,0,0-.85-.48c-.33-.11-.81-.24-1.43-.39a15.21,15.21,0,0,1-2.07-.59,3.3,3.3,0,0,1-1.36-.95,2.7,2.7,0,0,1-.56-1.82,3,3,0,0,1,1.13-2.41,4.8,4.8,0,0,1,3.13-.92A5,5,0,0,1,137,10.32Z"/><path class="cls-2" d="M60.37,22.46h-1.3l-.49,3.93H58l.48-3.93H57.18l.06-.49h3.19Z"/><path class="cls-2" d="M60.61,24.14a3.47,3.47,0,0,1,.27-.46,1.07,1.07,0,0,1,.3-.3.68.68,0,0,1,.32-.13.56.56,0,0,1,.34.05l-.1.52a.63.63,0,0,0-.7.12,2,2,0,0,0-.5,1l-.17,1.44h-.54l.38-3.12h.27a.16.16,0,0,1,.19.13v.05Z"/><path class="cls-2" d="M64.28,25.81a2.06,2.06,0,0,1-.31.28,2,2,0,0,1-.3.2,2.13,2.13,0,0,1-.33.11,2.22,2.22,0,0,1-.37,0,1.14,1.14,0,0,1-.48-.09.9.9,0,0,1-.36-.25,1.23,1.23,0,0,1-.23-.4,1.89,1.89,0,0,1-.08-.53,2.42,2.42,0,0,1,0-.47,3.53,3.53,0,0,1,.15-.46,1.63,1.63,0,0,1,.24-.4,1.62,1.62,0,0,1,.32-.32,1.39,1.39,0,0,1,.4-.21,1.44,1.44,0,0,1,.46-.08,1.14,1.14,0,0,1,.41.07,1.05,1.05,0,0,1,.29.17.73.73,0,0,1,.16.23.71.71,0,0,1,.06.24.85.85,0,0,1-.09.38.81.81,0,0,1-.3.31,2.64,2.64,0,0,1-.61.23,7,7,0,0,1-1,.17v.13a1,1,0,0,0,.18.63.7.7,0,0,0,.54.22,1.24,1.24,0,0,0,.27,0l.2-.08.16-.1.13-.1.11-.07a.17.17,0,0,1,.1,0,.12.12,0,0,1,.1.05Zm-.87-2.19a.72.72,0,0,0-.35.08.89.89,0,0,0-.29.22,1.46,1.46,0,0,0-.22.33,2,2,0,0,0-.14.41,6.53,6.53,0,0,0,.77-.14,1.79,1.79,0,0,0,.44-.16.52.52,0,0,0,.2-.19.54.54,0,0,0,0-.21.33.33,0,0,0-.1-.23l-.14-.08a.78.78,0,0,0-.22,0Z"/><path class="cls-2" d="M65.56,24.06a1.91,1.91,0,0,1,.57-.63,1.11,1.11,0,0,1,.64-.21.85.85,0,0,1,.35.08.59.59,0,0,1,.24.23,1,1,0,0,1,.13.37,2.09,2.09,0,0,1,0,.5l-.23,2h-.55l.23-2a1,1,0,0,0,0-.55.33.33,0,0,0-.33-.17.61.61,0,0,0-.3.08A1.09,1.09,0,0,0,66,24a1.52,1.52,0,0,0-.26.35,2,2,0,0,0-.21.47l-.18,1.58h-.55l.38-3.13h.27a.18.18,0,0,1,.19.14v.05Z"/><path class="cls-2" d="M71,21.85l-.56,4.54H70.2a.15.15,0,0,1-.15-.06.19.19,0,0,1,0-.13l0-.66a3,3,0,0,1-.25.37,3.83,3.83,0,0,1-.29.28,2,2,0,0,1-.32.18,1,1,0,0,1-.34.06.73.73,0,0,1-.62-.29A1.4,1.4,0,0,1,68,25.3a2.94,2.94,0,0,1,0-.51,1.92,1.92,0,0,1,.15-.48,2,2,0,0,1,.23-.43,1.73,1.73,0,0,1,.31-.35,1.54,1.54,0,0,1,.37-.23,1.15,1.15,0,0,1,.41-.08,1,1,0,0,1,.42.09,1,1,0,0,1,.32.26l.21-1.72ZM70.25,24a.6.6,0,0,0-.29-.23.75.75,0,0,0-.33-.07.71.71,0,0,0-.44.15,1.31,1.31,0,0,0-.33.37,1.89,1.89,0,0,0-.21.51,2.15,2.15,0,0,0-.07.56.91.91,0,0,0,.13.56.4.4,0,0,0,.37.19.53.53,0,0,0,.3-.09,1.2,1.2,0,0,0,.29-.26,2,2,0,0,0,.26-.39,2.13,2.13,0,0,0,.21-.49Z"/><path class="cls-2" d="M73.32,23.77s0,0,0,.05l-.06,0a.18.18,0,0,1-.1,0L73,23.73l-.18-.08a.72.72,0,0,0-.25,0,.69.69,0,0,0-.25,0,.64.64,0,0,0-.2.11.51.51,0,0,0-.13.16.43.43,0,0,0,0,.19.28.28,0,0,0,.09.23.69.69,0,0,0,.24.15,1.52,1.52,0,0,0,.32.12,2.2,2.2,0,0,1,.31.15,1,1,0,0,1,.24.23.64.64,0,0,1,.09.36,1,1,0,0,1-.33.76,1.17,1.17,0,0,1-.38.24,1.43,1.43,0,0,1-.5.09,1.22,1.22,0,0,1-.53-.1,1.13,1.13,0,0,1-.37-.28l.13-.21.06-.06a.15.15,0,0,1,.09,0,.18.18,0,0,1,.1,0l.12.1a.72.72,0,0,0,.47.14.66.66,0,0,0,.28-.05.59.59,0,0,0,.2-.12.46.46,0,0,0,.13-.18.59.59,0,0,0,0-.22.32.32,0,0,0-.1-.25.78.78,0,0,0-.24-.16L72.1,25a1.73,1.73,0,0,1-.31-.14.64.64,0,0,1-.24-.22.65.65,0,0,1-.1-.36,1,1,0,0,1,.08-.38,1.23,1.23,0,0,1,.23-.33,1.2,1.2,0,0,1,.36-.22,1.28,1.28,0,0,1,.48-.09,1.37,1.37,0,0,1,.49.09,1.18,1.18,0,0,1,.37.26Z"/><path class="cls-2" d="M75.41,25.8v0a.34.34,0,0,1,0-.09s0-.08,0-.14,0-.14,0-.24l.19-1.56h-.34a.08.08,0,0,1-.07,0,.1.1,0,0,1,0-.09l0-.22.48-.07.24-1a.12.12,0,0,1,0-.08.11.11,0,0,1,.08,0h.29l-.13,1.08h.82l0,.4h-.82L76,25.26c0,.09,0,.16,0,.21a.57.57,0,0,0,0,.12.18.18,0,0,0,0,.06v0a.34.34,0,0,0,.07.24.31.31,0,0,0,.2.07l.14,0,.11,0,.08-.05a.05.05,0,0,1,0,0h0l0,0,.11.27a1.08,1.08,0,0,1-.34.21,1.23,1.23,0,0,1-.39.07.67.67,0,0,1-.47-.16A.7.7,0,0,1,75.41,25.8Z"/><path class="cls-2" d="M78.44,26.43a1,1,0,0,1-.46-.08,1.08,1.08,0,0,1-.37-.26,1.06,1.06,0,0,1-.24-.41,1.65,1.65,0,0,1-.09-.54,2.11,2.11,0,0,1,.13-.75,1.94,1.94,0,0,1,.34-.61,1.8,1.8,0,0,1,.5-.41,1.39,1.39,0,0,1,.63-.15,1.27,1.27,0,0,1,.47.09,1,1,0,0,1,.36.25A1.33,1.33,0,0,1,80,24a1.7,1.7,0,0,1,.08.55,2.34,2.34,0,0,1-.12.74,2,2,0,0,1-.34.61,1.57,1.57,0,0,1-.51.41A1.25,1.25,0,0,1,78.44,26.43ZM78.5,26a.68.68,0,0,0,.41-.12,1.09,1.09,0,0,0,.31-.33,1.52,1.52,0,0,0,.2-.47,2.1,2.1,0,0,0,.07-.56,1,1,0,0,0-.17-.65.58.58,0,0,0-.49-.22.73.73,0,0,0-.41.12,1.08,1.08,0,0,0-.31.33,1.63,1.63,0,0,0-.2.47,2.1,2.1,0,0,0-.08.56,1.13,1.13,0,0,0,.17.65.58.58,0,0,0,.5.22Z"/><path class="cls-2" d="M84.66,23.27l-2.11,4.05a.39.39,0,0,1-.08.1.23.23,0,0,1-.11,0H82l.68-1.25-.81-2.93h.45a.12.12,0,0,1,.1,0,.22.22,0,0,1,0,.08l.5,2a.51.51,0,0,1,0,.13.51.51,0,0,1,0,.13,1.12,1.12,0,0,0,.05-.13l.06-.13,1-2a.19.19,0,0,1,.07-.08.16.16,0,0,1,.09,0Z"/><path class="cls-2" d="M85.82,26.43a1.09,1.09,0,0,1-.47-.08,1,1,0,0,1-.36-.26,1.06,1.06,0,0,1-.24-.41,1.65,1.65,0,0,1-.09-.54,2.36,2.36,0,0,1,.12-.75,2.16,2.16,0,0,1,.34-.61,1.71,1.71,0,0,1,.51-.41,1.36,1.36,0,0,1,.63-.15,1.27,1.27,0,0,1,.47.09,1.11,1.11,0,0,1,.36.25,1.14,1.14,0,0,1,.24.41,1.71,1.71,0,0,1,.09.55,2.1,2.1,0,0,1-.13.74,2,2,0,0,1-.33.61,1.68,1.68,0,0,1-.51.41A1.27,1.27,0,0,1,85.82,26.43Zm.05-.43a.66.66,0,0,0,.41-.12,1,1,0,0,0,.32-.33,1.52,1.52,0,0,0,.2-.47,2.1,2.1,0,0,0,.07-.56,1.06,1.06,0,0,0-.17-.65.58.58,0,0,0-.49-.22.79.79,0,0,0-.42.12,1.22,1.22,0,0,0-.31.33,1.63,1.63,0,0,0-.2.47,2.1,2.1,0,0,0-.07.56,1.06,1.06,0,0,0,.17.65.56.56,0,0,0,.49.22Z"/><path class="cls-2" d="M90.68,23.27l-.37,3.12H90a.18.18,0,0,1-.2-.15v0l0-.57a1.92,1.92,0,0,1-.56.61,1.1,1.1,0,0,1-.63.2.71.71,0,0,1-.35-.07.79.79,0,0,1-.25-.23,1,1,0,0,1-.12-.37,1.46,1.46,0,0,1,0-.51l.23-2h.55l-.23,2a1,1,0,0,0,0,.55.34.34,0,0,0,.33.18.61.61,0,0,0,.3-.08,1.42,1.42,0,0,0,.29-.21,2.11,2.11,0,0,0,.46-.8l.2-1.62Z"/><path class="cls-2" d="M91.91,24.14a2.59,2.59,0,0,1,.26-.46,1.42,1.42,0,0,1,.3-.3.68.68,0,0,1,.33-.13.58.58,0,0,1,.34.05l-.1.53a.62.62,0,0,0-.71.11,2,2,0,0,0-.5,1l-.17,1.44h-.54l.38-3.12h.27a.16.16,0,0,1,.19.13v.05Z"/><path class="cls-2" d="M97.56,21.85,97,26.39h-.29a.13.13,0,0,1-.14-.06.2.2,0,0,1,0-.13l.06-.66a3.09,3.09,0,0,1-.26.37,1.94,1.94,0,0,1-.29.28,1.65,1.65,0,0,1-.32.18.92.92,0,0,1-.33.06.7.7,0,0,1-.62-.29,1.34,1.34,0,0,1-.23-.84,2.22,2.22,0,0,1,.06-.51,1.92,1.92,0,0,1,.15-.48,2,2,0,0,1,.23-.43,1.73,1.73,0,0,1,.31-.35,1.69,1.69,0,0,1,.36-.23,1.15,1.15,0,0,1,.41-.08,1,1,0,0,1,.42.09.93.93,0,0,1,.33.26L97,21.85Zm-.8,2.1a.62.62,0,0,0-.28-.23.8.8,0,0,0-.34-.07.68.68,0,0,0-.43.15,1.06,1.06,0,0,0-.33.37,1.92,1.92,0,0,0-.22.51,2.6,2.6,0,0,0-.07.56,1,1,0,0,0,.13.56.41.41,0,0,0,.38.19.5.5,0,0,0,.29-.09,1.48,1.48,0,0,0,.3-.26,2.65,2.65,0,0,0,.26-.39,3.61,3.61,0,0,0,.21-.49Z"/><path class="cls-2" d="M99,26.43a1.09,1.09,0,0,1-.47-.08,1,1,0,0,1-.36-.26,1.06,1.06,0,0,1-.24-.41,1.65,1.65,0,0,1-.09-.54,2.36,2.36,0,0,1,.12-.75,2.16,2.16,0,0,1,.34-.61,1.71,1.71,0,0,1,.51-.41,1.36,1.36,0,0,1,.63-.15,1.18,1.18,0,0,1,.46.09,1.05,1.05,0,0,1,.37.25,1.14,1.14,0,0,1,.24.41,1.71,1.71,0,0,1,.09.55,2.1,2.1,0,0,1-.13.74,2,2,0,0,1-.33.61,1.68,1.68,0,0,1-.51.41A1.27,1.27,0,0,1,99,26.43ZM99,26a.66.66,0,0,0,.41-.12,1,1,0,0,0,.32-.33,1.52,1.52,0,0,0,.2-.47,2.1,2.1,0,0,0,.07-.56,1,1,0,0,0-.17-.65.58.58,0,0,0-.49-.22.73.73,0,0,0-.41.12,1.12,1.12,0,0,0-.32.33,2,2,0,0,0-.2.47,2.6,2.6,0,0,0-.07.56,1.13,1.13,0,0,0,.17.65A.56.56,0,0,0,99,26Z"/><path class="cls-2" d="M102.18,26.43a1.09,1.09,0,0,1-.47-.08,1,1,0,0,1-.36-.26,1.06,1.06,0,0,1-.24-.41,1.65,1.65,0,0,1-.09-.54,2.36,2.36,0,0,1,.12-.75,2.16,2.16,0,0,1,.34-.61,1.71,1.71,0,0,1,.51-.41,1.36,1.36,0,0,1,.63-.15,1.18,1.18,0,0,1,.46.09,1.05,1.05,0,0,1,.37.25,1.14,1.14,0,0,1,.24.41,1.71,1.71,0,0,1,.09.55,2.1,2.1,0,0,1-.13.74,2,2,0,0,1-.33.61,1.68,1.68,0,0,1-.51.41A1.27,1.27,0,0,1,102.18,26.43Zm0-.43a.66.66,0,0,0,.41-.12,1,1,0,0,0,.32-.33,1.52,1.52,0,0,0,.2-.47,2.1,2.1,0,0,0,.07-.56,1,1,0,0,0-.17-.65.58.58,0,0,0-.49-.22.73.73,0,0,0-.41.12,1.12,1.12,0,0,0-.32.33,2,2,0,0,0-.2.47,2.6,2.6,0,0,0-.07.56,1.13,1.13,0,0,0,.17.65A.56.56,0,0,0,102.23,26Z"/><path class="cls-2" d="M105,24.14a2.13,2.13,0,0,1,.27-.46,1.07,1.07,0,0,1,.3-.3.61.61,0,0,1,.32-.13.57.57,0,0,1,.34.05l-.1.52a.64.64,0,0,0-.71.12,2.08,2.08,0,0,0-.49,1l-.18,1.44h-.53l.37-3.12h.27a.16.16,0,0,1,.19.13s0,0,0,.05Z"/><path class="cls-2" d="M109.66,23.77a.1.1,0,0,1,0,.05l-.07,0a.18.18,0,0,1-.09,0l-.12-.07-.18-.08a.72.72,0,0,0-.25,0,.77.77,0,0,0-.26,0,.72.72,0,0,0-.19.11.51.51,0,0,0-.13.16.43.43,0,0,0,0,.19.28.28,0,0,0,.09.23.61.61,0,0,0,.24.15,1.66,1.66,0,0,0,.31.12,1.48,1.48,0,0,1,.31.15.92.92,0,0,1,.25.23.64.64,0,0,1,.09.36,1,1,0,0,1-.33.76,1.17,1.17,0,0,1-.38.24,1.43,1.43,0,0,1-.5.09,1.22,1.22,0,0,1-.53-.1,1.13,1.13,0,0,1-.37-.28l.13-.21.06-.06a.17.17,0,0,1,.19,0l.12.1a.72.72,0,0,0,.47.14.62.62,0,0,0,.27-.05.55.55,0,0,0,.21-.12.46.46,0,0,0,.13-.18.59.59,0,0,0,0-.22.32.32,0,0,0-.1-.25.78.78,0,0,0-.24-.16l-.31-.11a1.73,1.73,0,0,1-.31-.14.64.64,0,0,1-.24-.22.58.58,0,0,1-.1-.36,1,1,0,0,1,.08-.38,1,1,0,0,1,.23-.33,1,1,0,0,1,.36-.22,1.27,1.27,0,0,1,.47-.09,1.43,1.43,0,0,1,.5.09,1.18,1.18,0,0,1,.37.26Z"/><path class="cls-2" d="M110.37,25.8v-.13a.93.93,0,0,1,0-.14c0-.06,0-.14,0-.24l.2-1.56h-.35a.09.09,0,0,1-.07,0,.1.1,0,0,1,0-.09l0-.22.48-.07.24-1a.2.2,0,0,1,0-.08.16.16,0,0,1,.09,0h.28l-.13,1.08H112l0,.4h-.83L111,25.26q0,.14,0,.21a.57.57,0,0,0,0,.12v.09a.34.34,0,0,0,.07.24.31.31,0,0,0,.2.07l.15,0,.1,0,.08-.05a.05.05,0,0,1,0,0h0l0,0,.12.27a1.13,1.13,0,0,1-.35.21,1.22,1.22,0,0,1-.38.07.66.66,0,0,1-.47-.16A.62.62,0,0,1,110.37,25.8Z"/><path class="cls-2" d="M114.69,25.81a2.06,2.06,0,0,1-.31.28,1.57,1.57,0,0,1-.3.2,2.13,2.13,0,0,1-.33.11,2.22,2.22,0,0,1-.37,0,1.14,1.14,0,0,1-.48-.09.9.9,0,0,1-.36-.25,1.23,1.23,0,0,1-.23-.4,1.89,1.89,0,0,1-.08-.53,2.42,2.42,0,0,1,0-.47,3.53,3.53,0,0,1,.15-.46,2.65,2.65,0,0,1,.24-.4,1.62,1.62,0,0,1,.32-.32,1.39,1.39,0,0,1,.4-.21,1.44,1.44,0,0,1,.46-.08,1.14,1.14,0,0,1,.41.07.92.92,0,0,1,.29.17.73.73,0,0,1,.16.23.53.53,0,0,1,.06.24.85.85,0,0,1-.09.38.81.81,0,0,1-.3.31,2.64,2.64,0,0,1-.61.23,6.74,6.74,0,0,1-1,.17v.13a1,1,0,0,0,.18.63.7.7,0,0,0,.55.22l.26,0,.21-.08.16-.1.12-.1.11-.07a.17.17,0,0,1,.1,0,.12.12,0,0,1,.1.05Zm-.86-2.19a.73.73,0,0,0-.36.08.89.89,0,0,0-.29.22,1.46,1.46,0,0,0-.22.33,2,2,0,0,0-.13.41,6.75,6.75,0,0,0,.76-.14,1.79,1.79,0,0,0,.44-.16.41.41,0,0,0,.25-.4.5.5,0,0,0,0-.12.44.44,0,0,0-.08-.11l-.14-.08a.78.78,0,0,0-.22,0Z"/><path class="cls-2" d="M116,24.11a2.31,2.31,0,0,1,.25-.36,2.06,2.06,0,0,1,.3-.29,1.65,1.65,0,0,1,.32-.18.92.92,0,0,1,.33-.06.73.73,0,0,1,.63.29,1.41,1.41,0,0,1,.22.85,2.07,2.07,0,0,1-.06.5,1.92,1.92,0,0,1-.15.48,2.22,2.22,0,0,1-.23.43,2,2,0,0,1-.3.35,1.76,1.76,0,0,1-.37.23,1.15,1.15,0,0,1-.41.08,1,1,0,0,1-.42-.09.82.82,0,0,1-.32-.26l-.17,1.36h-.53l.51-4.18h.27a.16.16,0,0,1,.18.14v0Zm-.17,1.6a.7.7,0,0,0,.28.23,1,1,0,0,0,.34.07.82.82,0,0,0,.3-.07,1.51,1.51,0,0,0,.26-.18,1.78,1.78,0,0,0,.21-.27,2.07,2.07,0,0,0,.15-.34,2,2,0,0,0,.13-.74.93.93,0,0,0-.13-.56.44.44,0,0,0-.37-.19.75.75,0,0,0-.3.09,1.2,1.2,0,0,0-.29.26,2,2,0,0,0-.26.39,3.06,3.06,0,0,0-.22.49Z"/></svg>