<svg xmlns="http://www.w3.org/2000/svg" xmlns:xlink="http://www.w3.org/1999/xlink" width="47" height="48" viewBox="0 0 47 48">
  <defs>
    <clipPath id="clip-path">
      <rect id="Rectangle_3" data-name="Rectangle 3" width="30" height="30.638" transform="translate(913 -202)" fill="#19664c"/>
    </clipPath>
    <clipPath id="clip-Artboard_1">
      <rect width="47" height="48"/>
    </clipPath>
  </defs>
  <g id="Artboard_1" data-name="Artboard – 1" clip-path="url(#clip-Artboard_1)">
    <rect id="Rectangle_1" data-name="Rectangle 1" width="47" height="48" rx="7" fill="#06b67b"/>
    <g id="Mask_Group_1" data-name="Mask Group 1" transform="translate(-904 211)" clip-path="url(#clip-path)">
      <g id="Group_1" data-name="Group 1" transform="translate(913 -196.894)">
        <path id="Path_1" data-name="Path 1" d="M509.692,116.39a8.617,8.617,0,0,0-1.868-1.634c-.906-.683-1.7-1.484-2.561-2.218,1.142-.777.834-3.087.819-4.254-.031-2.482-.123-4.97-.184-7.452a2.328,2.328,0,0,0-.664-2.009c-.717-.519-2.206-.31-3.07-.378-2.414-.191-4.869.1-7.3.006q-4.1.026-8.191.047c-.744,0-1.439-.074-1.928.572-.624.824-.481,2.058-.442,3.013.123,3.032-.183,6.074.025,9.117a1.633,1.633,0,0,0,.754,1.37c-1.133.8-2.3,1.561-3.382,2.43-.8.643-1.713,1.248-1.71,2.352a1.4,1.4,0,0,0,1.385,1.577,37.835,37.835,0,0,0,5.661.084c4.3-.156,8.589-.024,12.885-.142,1.861-.051,3.719,0,5.58.016,1.138.009,3.194.412,4.066-.535A1.521,1.521,0,0,0,509.692,116.39Zm-24.585-7.542c-.041-1.291-.076-2.583-.036-3.875.037-1.193.081-2.358.053-3.551-.018-.765-.013-1.778.9-2.073a6.848,6.848,0,0,1,1.792-.011q3.527-.02,7.054-.04c1.515.056,3.043.087,4.557,0,1.136-.064,5.183-.455,5.6.922a6.388,6.388,0,0,1,.026,1.695c0,1.138.028,2.275.078,3.412.04.907.085,1.814.1,2.723.01.567.01,1.134,0,1.7-.021.814.109,1.482-.62,1.917-.82.488-2.292.214-3.243.208-1.053-.006-2.1-.036-3.158-.021-2.064.029-4.125.145-6.189.166-.993.01-1.988-.028-2.981.014-.9.038-2.464.405-3.307-.056C484.819,111.482,485.135,109.7,485.107,108.847Zm23.506,9.132a8.875,8.875,0,0,1-2.888.062c-3.679-.021-7.379-.133-11.051-.085-3.839.051-7.673.288-11.52.2-.744-.017-2.235.16-2.314-.807-.051-.617.577-1.006,1-1.37,1.278-1.11,2.74-1.992,4.107-2.986a.447.447,0,0,0,.092-.092,10.042,10.042,0,0,0,2.082.033c2.676-.139,5.365-.1,8.045-.183,1.329-.043,2.659-.071,3.989-.051s2.792.188,4.128.1c.008.007.013.015.022.021,1.371,1.1,2.788,2.273,4.095,3.449C508.9,116.73,509.754,117.446,508.614,117.979Z" transform="translate(-479.994 -98.377)" fill="#fff"/>
        <path id="Path_2" data-name="Path 2" d="M503.221,116.623c2.755-.047,5.526-.042,8.279-.159a82.373,82.373,0,0,1,8.4-.089.32.32,0,0,0,.318-.317c-.076-3.136-.093-6.265-.217-9.4a.323.323,0,0,0-.318-.317c-5.534.067-11.07-.066-16.606-.007a.294.294,0,0,0-.179.063.277.277,0,0,0-.138.255q.074,4.83.148,9.661A.322.322,0,0,0,503.221,116.623Zm16.152-9.651c.108,2.921.132,5.834.2,8.752-2.667-.139-5.411-.009-8.073.1s-5.314.114-7.966.155q-.069-4.512-.138-9.024C508.722,106.91,514.048,107.029,519.373,106.972Z" transform="translate(-496.333 -104.072)" fill="#fff"/>
        <path id="Path_3" data-name="Path 3" d="M527.763,156.98a.333.333,0,0,0-.306-.233c-1.746-.119-3.481.045-5.228.054a.33.33,0,0,0-.306.233,8.654,8.654,0,0,0-.516,1.67.321.321,0,0,0,.016.186.288.288,0,0,0,.29.216,42.182,42.182,0,0,0,6.394-.166.319.319,0,0,0,.222-.391C528.139,158.026,527.964,157.5,527.763,156.98Zm-5.639,1.494a6.335,6.335,0,0,0,.211-.78c.035-.086.07-.172.105-.258l.027,0c.83-.059,1.669-.064,2.5-.084a14.318,14.318,0,0,1,2.255.018l.013,0,.113.293a3.845,3.845,0,0,0,.233.711A40.6,40.6,0,0,1,522.124,158.474Z" transform="translate(-509.716 -140.245)" fill="#fff"/>
        <path id="Path_4" data-name="Path 4" d="M532.029,103.485a.318.318,0,0,0,0-.635A.318.318,0,0,0,532.029,103.485Z" transform="translate(-517.125 -101.588)" fill="#fff"/>
        <path id="Path_5" data-name="Path 5" d="M506.7,111.294q.362.572.77,1.111a.329.329,0,0,0,.435.114.32.32,0,0,0,.114-.435q-.408-.54-.77-1.111C507.033,110.63,506.484,110.948,506.7,111.294Z" transform="translate(-499.13 -107.313)" fill="#fff"/>
        <path id="Path_6" data-name="Path 6" d="M511.271,112.1c.281.3.729-.152.449-.449l-.993-1.053c-.281-.3-.729.152-.449.449Z" transform="translate(-501.669 -107.083)" fill="#fff"/>
      </g>
    </g>
  </g>
</svg>
