<svg xmlns="http://www.w3.org/2000/svg" width="62" height="62" viewBox="0 0 62 62">
  <g id="instagram-filled" transform="translate(-1 -1)">
    <circle id="Ellipse_1" data-name="Ellipse 1" cx="11.6" cy="11.6" r="11.6" transform="translate(20.5 20.4)"/>
    <path id="Path_772" data-name="Path 772" d="M44.7,1H19.3A18.309,18.309,0,0,0,1,19.3V44.5A18.353,18.353,0,0,0,19.3,63H44.5A18.353,18.353,0,0,0,63,44.7V19.3A18.309,18.309,0,0,0,44.7,1ZM32.1,47.2A15.2,15.2,0,1,1,47.2,32,15.193,15.193,0,0,1,32.1,47.2Zm21-29a5.57,5.57,0,0,1-4.2,1.7,6.254,6.254,0,0,1-4.2-1.7A5.728,5.728,0,0,1,43,14a5.9,5.9,0,0,1,1.7-4.2A5.447,5.447,0,0,1,48.9,8a6.069,6.069,0,0,1,4.2,1.7,7.319,7.319,0,0,1,1.7,4.4A6.609,6.609,0,0,1,53.1,18.2Z"/>
    <path id="Path_773" data-name="Path 773" d="M49,11.6A2.4,2.4,0,1,0,51.4,14,2.369,2.369,0,0,0,49,11.6Z"/>
  </g>
</svg>
