<svg xmlns="http://www.w3.org/2000/svg" width="62" height="62" viewBox="0 0 62 62">
  <g id="Group_196" data-name="Group 196" transform="translate(-499 -345)">
    <g id="Group_192" data-name="Group 192" transform="translate(23 9)">
      <rect id="Rectangle_9" data-name="Rectangle 9" width="62" height="62" rx="31" transform="translate(476 336)" fill="#fff" opacity="0.13"/>
      <rect id="Rectangle_8" data-name="Rectangle 8" width="50" height="50" rx="25" transform="translate(482 342)" fill="#04d48e" opacity="0.13"/>
    </g>
    <g id="_044-instagram" data-name="044-instagram" transform="translate(518 364)">
      <path id="Path_14094" data-name="Path 14094" d="M4.75,24h14.5A4.756,4.756,0,0,0,24,19.25V4.75A4.756,4.756,0,0,0,19.25,0H4.75A4.756,4.756,0,0,0,0,4.75v14.5A4.756,4.756,0,0,0,4.75,24ZM1.5,4.75A3.254,3.254,0,0,1,4.75,1.5h14.5A3.254,3.254,0,0,1,22.5,4.75v14.5a3.254,3.254,0,0,1-3.25,3.25H4.75A3.254,3.254,0,0,1,1.5,19.25Z" fill="#108f64"/>
      <path id="Path_14095" data-name="Path 14095" d="M12,18.13A6.13,6.13,0,1,0,5.87,12,6.137,6.137,0,0,0,12,18.13ZM12,7.37A4.63,4.63,0,1,1,7.37,12,4.635,4.635,0,0,1,12,7.37Z" fill="#108f64"/>
      <path id="Path_14096" data-name="Path 14096" d="M18.358,7.362a1.687,1.687,0,0,0,1.729-1.721,1.729,1.729,0,0,0-3.457,0,1.684,1.684,0,0,0,1.728,1.721Zm.177-1.886c.316.279-.405.618-.405.166C18.13,5.372,18.5,5.442,18.535,5.476Z" fill="#108f64"/>
    </g>
  </g>
</svg>
