<svg id="Layer_1" data-name="Layer 1" xmlns="http://www.w3.org/2000/svg" viewBox="0 0 174 32"><defs><style>.cls-1{fill:#fff;}.cls-2{fill:#191919;}</style></defs><rect class="cls-1" width="174" height="32"/><path class="cls-2" d="M87.65,11.17a22.47,22.47,0,0,1-3.72.74c-.89.11-1.16-.11-1-1a.78.78,0,0,1,0-.14,16.51,16.51,0,0,0-.16-7.2c-.38-1.39-1.1-2.66-2.67-3a4.51,4.51,0,0,0-4.62,1.56,5,5,0,0,0-1.1,2.9A7.3,7.3,0,0,0,80,12.79c1.13.3,1.16.74.85,1.62-.44,1.24-.77,2.51-1.24,3.74a18.23,18.23,0,0,1-3,5.36c-.47.56-1,1.26-1.85,1s-1-1.08-1.1-1.8a19.23,19.23,0,0,1-.27-2.62,44,44,0,0,1,.53-8.27c.08-.6.14-1.16-.67-1.53A2.45,2.45,0,0,0,70,11.46a2.64,2.64,0,0,0-.17.47,38,38,0,0,1-2.7,7.21c-.4.81-.88,2.23-1.53,2.07-.88-.25-.63-1.64-.64-2.57a23.34,23.34,0,0,1,.27-3.54,38.69,38.69,0,0,1,.9-4.25c.14-.56.41-1.2-.27-1.66a2.7,2.7,0,0,0-3.68,1.31,33.26,33.26,0,0,0-1.05,4.6c0,.27-.08.53-.11.79a13.08,13.08,0,0,0,.14,6,2.71,2.71,0,0,0,4.58,1.34,10,10,0,0,0,2.68-3.7c.25-.53.51-1,.92-1.85.09,2.73,0,5.21,1.24,7.32a3.43,3.43,0,0,0,1.84,1.58,3.75,3.75,0,0,0,2.41-.06A6,6,0,0,0,77,25.09a12,12,0,0,0,2-2.69,30.46,30.46,0,0,0,3.22-8.14,2.17,2.17,0,0,1,.08-.3v0a.94.94,0,0,1,1.09-.71,13.48,13.48,0,0,0,5.39-1c.87-.34,1.54-.51,2,.73L92.74,9.3l-4-.27C89.35,10.65,89.34,10.64,87.65,11.17ZM81.74,9c-.07.66-.15,1.37-.21,2.08,0,.47-.15.67-.71.61-3.22-.37-5.86-4.26-5-7.32a3.2,3.2,0,0,1,3.3-2.47c1.27,0,2,.72,2.39,2.5A10.62,10.62,0,0,1,81.78,6c0,.27,0,.54,0,.82A13.66,13.66,0,0,1,81.74,9Z"/><path class="cls-2" d="M67.54,8.69s-1.07-6.59-6-.36C61.59,8.33,65.22,6.19,67.54,8.69Z"/><path class="cls-2" d="M89.5,18.28a3.47,3.47,0,0,0-1.34-1.68A4.1,4.1,0,0,0,85.9,16a4.51,4.51,0,0,0-2.37.64,4.37,4.37,0,0,0-1.65,1.86,6.51,6.51,0,0,0-.59,2.85,6.48,6.48,0,0,0,.59,2.85A4.32,4.32,0,0,0,83.53,26a4.42,4.42,0,0,0,2.37.64A3.85,3.85,0,0,0,88.16,26a3.47,3.47,0,0,0,1.34-1.68v2.18h2.63V16.11H89.5Zm-.8,5.25a2.86,2.86,0,0,1-4,0A3.11,3.11,0,0,1,84,21.34a3.18,3.18,0,0,1,.74-2.23,2.84,2.84,0,0,1,4,0,3,3,0,0,1,.79,2.21A3.06,3.06,0,0,1,88.7,23.53Z"/><polygon class="cls-2" points="99.17 23.19 96.33 16.11 93.36 16.11 97.75 26.23 95.41 31.5 98.34 31.5 104.72 16.12 101.8 16.12 99.17 23.19"/><rect class="cls-2" x="105" y="25.33" width="1.24" height="1.21"/><rect class="cls-2" x="107.01" y="20.46" width="1.16" height="6.09"/><polygon class="cls-2" points="111.34 24.25 113.26 21.98 111.89 21.98 110.4 23.87 110.4 20.46 109.22 20.46 109.22 26.54 110.38 26.54 110.38 24.55 111.89 26.54 113.31 26.54 111.34 24.25"/></svg>