<svg id="Layer_1" data-name="Layer 1" xmlns="http://www.w3.org/2000/svg" viewBox="0 0 174 32"><defs><style>.cls-1{fill:#fff;}.cls-2{fill:#191919;}</style></defs><rect class="cls-1" width="174" height="32"/><path class="cls-2" d="M40.53,8.84h3.4v9.51c0,4.29-2.06,5.78-5.36,5.78a9,9,0,0,1-2.48-.35L36.47,21a5.48,5.48,0,0,0,1.74.27c1.43,0,2.32-.65,2.32-3Z"/><path class="cls-2" d="M57.44,18.3a5.48,5.48,0,0,1-5.76,5.83A5.34,5.34,0,0,1,46,18.51a5.45,5.45,0,0,1,5.83-5.79A5.31,5.31,0,0,1,57.44,18.3Zm-7.91.12c0,1.87.79,3.28,2.24,3.28s2.16-1.32,2.16-3.28c0-1.63-.62-3.29-2.16-3.29S49.53,16.81,49.53,18.42Z"/><path class="cls-2" d="M59.54,8h3.39v6.23h0a3.84,3.84,0,0,1,3.3-1.54c2.61,0,4.53,2.17,4.51,5.52,0,3.93-2.5,5.89-5,5.89a3.63,3.63,0,0,1-3.28-1.76h0l-.13,1.52H59.45c0-.72.09-2,.09-3.26Zm3.39,11.21a2.27,2.27,0,0,0,.07.61,2,2,0,0,0,2,1.6c1.45,0,2.34-1.11,2.34-3.08,0-1.69-.76-3-2.34-3A2.1,2.1,0,0,0,63,17a2.53,2.53,0,0,0-.07.63Z"/><path class="cls-2" d="M106.54,20.45a1.22,1.22,0,0,0,1.34,1.29,1.86,1.86,0,0,0,1.77-1.25,2.72,2.72,0,0,0,.06-.58V18.73C107.93,18.71,106.54,19.13,106.54,20.45Z"/><path class="cls-2" d="M96.14,15.13c-1.63,0-2.24,1.68-2.24,3.29,0,1.87.79,3.28,2.24,3.28s2.16-1.32,2.16-3.28C98.3,16.79,97.68,15.13,96.14,15.13Z"/><path class="cls-2" d="M84.75,13c0-1.14-.87-1.75-2.41-1.75a9.84,9.84,0,0,0-1.45.09V14.8H82C83.79,14.8,84.75,14.06,84.75,13Z"/><path class="cls-2" d="M82.05,17.23H80.89v4.25a11.79,11.79,0,0,0,1.31,0c1.54,0,2.91-.6,2.91-2.17S83.74,17.23,82.05,17.23Z"/><path class="cls-2" d="M129.16,15.31c-1.54,0-2.34,1.39-2.34,3.11s.92,3,2.32,3a2,2,0,0,0,2-1.63,3.15,3.15,0,0,0,.09-.78V17.59c0-.18,0-.42,0-.6A2,2,0,0,0,129.16,15.31Z"/><path class="cls-2" d="M137.21,5H74.93a.69.69,0,0,0-.69.69V26.32a.69.69,0,0,0,.69.69h62.28a.69.69,0,0,0,.7-.69V5.68A.69.69,0,0,0,137.21,5ZM87.12,22.68C86,23.55,84.19,24,81.2,24a26.76,26.76,0,0,1-3.69-.22V9a27.15,27.15,0,0,1,4.4-.31,8.43,8.43,0,0,1,4.45.84,3.28,3.28,0,0,1,1.8,2.95,3.41,3.41,0,0,1-2.47,3.22v0a3.77,3.77,0,0,1,3,3.71A4,4,0,0,1,87.12,22.68Zm8.93,1.45a5.35,5.35,0,0,1-5.65-5.62,5.45,5.45,0,0,1,5.83-5.79,5.31,5.31,0,0,1,5.58,5.58A5.48,5.48,0,0,1,96.05,24.13Zm14.07-.24-.2-1.1h-.07a4,4,0,0,1-3.13,1.34,3.34,3.34,0,0,1-3.53-3.35c0-2.83,2.55-4.19,6.41-4.17v-.16c0-.58-.31-1.41-2-1.41a6.13,6.13,0,0,0-3,.83L104,13.68a9,9,0,0,1,4.24-1c3.64,0,4.8,2.15,4.8,4.71v3.8a16,16,0,0,0,.16,2.66ZM122.4,16a3.79,3.79,0,0,0-.92-.11,2.18,2.18,0,0,0-2.32,1.72,4.37,4.37,0,0,0-.07.76v5.54H115.7V16.56c0-1.6,0-2.65-.09-3.59h2.92l.12,2h.09a3.22,3.22,0,0,1,3.66-2.21Zm9.26,7.91-.15-1.61h0a3.79,3.79,0,0,1-3.41,1.85c-2.59,0-4.67-2.21-4.67-5.6,0-3.69,2.28-5.81,4.89-5.81A3.32,3.32,0,0,1,131.15,14h0V8h3.39v12.6c0,1.23,0,2.52.09,3.26Z"/></svg>