<svg xmlns="http://www.w3.org/2000/svg" width="62" height="62" viewBox="0 0 62 62">
  <g id="Group_194" data-name="Group 194" transform="translate(-482 -351)">
    <g id="Group_192" data-name="Group 192" transform="translate(6 15)">
      <rect id="Rectangle_9" data-name="Rectangle 9" width="62" height="62" rx="31" transform="translate(476 336)" fill="#fff" opacity="0.13"/>
      <rect id="Rectangle_8" data-name="Rectangle 8" width="50" height="50" rx="25" transform="translate(482 342)" fill="#04d48e" opacity="0.13"/>
    </g>
    <g id="_052-linkedin" data-name="052-linkedin" transform="translate(500.97 370)">
      <path id="Path_14091" data-name="Path 14091" d="M18.59,24h4.66a.75.75,0,0,0,.75-.75C23.65,15.392,25.842,7.1,17.662,7.1a5.95,5.95,0,0,0-3.729,1.247c0-1.461-1.579-.653-5.224-.87a.75.75,0,0,0-.75.75C8.261,22.394,7.285,24,8.709,24h4.66c1.353,0,.492-1.908.75-8.188,0-2.594.75-3.1,2.046-3.1,1.434,0,1.675,1,1.675,3.228C18.1,22.1,17.242,24,18.59,24ZM16.165,11.209c-4.491,0-3.546,4.938-3.546,11.29H9.459V8.978h2.974v1.3a.8.8,0,0,0,1.479.35A4.168,4.168,0,0,1,17.662,8.6c3.527,0,4.838,1.733,4.838,6.4v7.5H19.34c0-7.144.756-11.291-3.175-11.291Z" fill="#108f64"/>
      <path id="Path_14092" data-name="Path 14092" d="M1.122,7.479C-.3,7.479.674,9.064.372,23.25a.75.75,0,0,0,.75.75H5.787c1.42,0,.448-1.585.75-15.771,0-1.3-1.881-.531-5.415-.75ZM5.037,22.5H1.872V8.979H5.037Z" fill="#108f64"/>
      <path id="Path_14093" data-name="Path 14093" d="M3.452,0c-4.576,0-4.548,6.929,0,6.929S8.033,0,3.452,0Zm0,5.429a1.965,1.965,0,0,1,0-3.929A1.965,1.965,0,0,1,3.452,5.429Z" fill="#108f64"/>
    </g>
  </g>
</svg>
