<svg xmlns="http://www.w3.org/2000/svg" width="61.714" height="62" viewBox="0 0 61.714 62">
  <path id="linkedin-original" d="M58.5,1H5.6A4.481,4.481,0,0,0,1.1,5.5v53A4.546,4.546,0,0,0,5.6,63H58.3a4.481,4.481,0,0,0,4.5-4.5V5.4A4.172,4.172,0,0,0,58.5,1ZM19.4,53.7H10.3V24.2h9.1ZM14.8,20.1a5.271,5.271,0,0,1-5.3-5.3,5.3,5.3,0,1,1,10.6,0A5.209,5.209,0,0,1,14.8,20.1ZM53.9,53.7H44.8V39.4c0-3.4-.1-7.9-4.8-7.9-4.8,0-5.5,3.8-5.5,7.6V53.7H25.4V24.2h8.9v4.1h.1a9.588,9.588,0,0,1,8.7-4.8c9.3,0,11,6,11,14.2v16Z" transform="translate(-1.1 -1)"/>
</svg>
