<svg xmlns="http://www.w3.org/2000/svg" width="249.697" height="61.941" viewBox="0 0 249.697 61.941">
  <g id="Group_4" data-name="Group 4" transform="translate(-107.697 -149.671)">
    <path id="Path_14203" data-name="Path 14203" d="M762.149,166.582l4.616,19.736-5.626,1.363-2.2-9.36-3.033,10.549-15.516-17.186,5.758-1.363,7.56,8.659,2.768-11.076Zm-23.384,5.45,3.868,4.308h.044l-9.8,2.373,2.109,9.977L750.545,185l3.78,4.22-19.077,4.351-4.966,1.144-4.22-19.78Zm7.71-22.36q-1.079,0-2.172.075a30.967,30.967,0,1,0,2.172-.075Z" transform="translate(-420.033)" fill="#fff" fill-rule="evenodd"/>
    <g id="Group_3" data-name="Group 3" transform="translate(107.697 155.291)">
      <g id="Group_1" data-name="Group 1" transform="translate(112.218 33.377)">
        <path id="Path_14211" data-name="Path 14211" d="M473.381,279.616l-.88.659-.263,1.495h-1.23l-.044.219.22.7h.923l-.7,4.615c-.264,1.5.175,2.2,1.625,2.2a7.085,7.085,0,0,0,1.934-.312l.132-.879h0a7.045,7.045,0,0,1-1.89.264c-.7-.044-.967-.312-.832-1.275l.747-4.615h2.594l.131-.879h-2.6l.352-2.2Z" transform="translate(-470.964 -278.469)" fill="#fff" fill-rule="evenodd"/>
        <path id="Path_14212" data-name="Path 14212" d="M492.016,286.913a1.281,1.281,0,0,1,1.3,1.24c0,1.1-1.055,1.362-2.288,1.362H489.05a2.94,2.94,0,0,1,2.808-2.593A1.23,1.23,0,0,1,492.016,286.913Zm.2-.926a1.982,1.982,0,0,0-.222.011c-1.934.044-3.6,1.494-4,3.952-.4,2.417.7,3.952,2.768,3.952a9.744,9.744,0,0,0,2.726-.4l.131-.88h0a9.465,9.465,0,0,1-2.725.353c-1.187-.044-2.11-.66-1.976-2.55H490.9c1.89,0,3.3-.4,3.472-2.2a2.159,2.159,0,0,0-2.071-2.244l-.08,0Z" transform="translate(-482.679 -282.873)" fill="#fff" fill-rule="evenodd"/>
        <path id="Path_14213" data-name="Path 14213" d="M514.959,286a2.362,2.362,0,0,0-.256.009c-2.288,0-3.6,1.538-3.911,3.952s.4,3.952,2.681,3.952a6.272,6.272,0,0,0,2.2-.4l.132-.88h0a5.169,5.169,0,0,1-1.809.319c-.116,0-.231,0-.345-.01-1.714-.089-2.066-.967-1.847-3.034.264-2.022,1.144-2.989,2.77-2.989a7.323,7.323,0,0,1,1.934.263l.131-.88a5.019,5.019,0,0,0-1.678-.312Z" transform="translate(-498.441 -282.876)" fill="#fff" fill-rule="evenodd"/>
        <path id="Path_14214" data-name="Path 14214" d="M533.946,275.915l-.832.22-1.67,10.594h.967l.791-5.143a5.9,5.9,0,0,1,2.9-1.625h.084c1.28,0,1.318.994,1.144,2.2l-.7,4.615h.967l.7-4.7c.3-1.872-.429-3.037-2.023-3.037H536.1a5.431,5.431,0,0,0-2.681,1.274l.658-4.4Z" transform="translate(-512.761 -275.912)" fill="#fff" fill-rule="evenodd"/>
        <path id="Path_14215" data-name="Path 14215" d="M561.781,286h-.175a5.822,5.822,0,0,0-2.946,1.456l-.312-1.275h-.264l-1.182,7.515h1.011l.791-5.143a5.971,5.971,0,0,1,2.9-1.67h.08c1.284,0,1.322,1.04,1.15,2.2l-.744,4.613H563.1l.7-4.7C564.1,287.17,563.373,286,561.781,286Z" transform="translate(-530.355 -282.881)" fill="#fff" fill-rule="evenodd"/>
        <path id="Path_14216" data-name="Path 14216" d="M586.3,286.9c1.626,0,2.023,1.056,1.759,3.077s-1.1,2.989-2.681,2.989-1.976-1.012-1.715-3.034C583.879,287.914,584.714,286.9,586.3,286.9Zm.176-.879c-2.2,0-3.56,1.538-3.824,3.952-.312,2.462.44,3.952,2.594,3.952s3.473-1.539,3.781-3.952C589.334,287.518,588.629,286.023,586.472,286.023Z" transform="translate(-548.1 -282.899)" fill="#fff" fill-rule="evenodd"/>
        <path id="Path_14217" data-name="Path 14217" d="M608.071,275.913l-.88.22-1.627,10.594h.967l1.715-10.816Z" transform="translate(-563.984 -275.91)" fill="#fff" fill-rule="evenodd"/>
        <path id="Path_14218" data-name="Path 14218" d="M618.1,286.95c1.583,0,2.023,1.011,1.714,3.033-.264,2.023-1.054,3.034-2.681,3.034-1.582,0-1.933-1.011-1.714-3.034C615.68,287.917,616.523,286.95,618.1,286.95Zm.132-.923c-2.154,0-3.516,1.538-3.824,3.952-.264,2.462.44,3.952,2.594,3.952s3.515-1.539,3.824-3.952c.259-2.457-.438-3.952-2.591-3.952Z" transform="translate(-570.062 -282.902)" fill="#fff" fill-rule="evenodd"/>
        <path id="Path_14219" data-name="Path 14219" d="M641.472,286.731a8.655,8.655,0,0,1,1.8.176l-.527,3.165c-.312,1.714-1.187,2.726-2.373,2.726-1.274,0-1.934-1.144-1.714-2.9C638.924,288.1,639.891,286.91,641.472,286.731Zm.506-.95c-.214,0-.427.009-.638.028A4.264,4.264,0,0,0,637.6,289.9c-.312,2.418.88,3.823,2.638,3.823h.15a2.682,2.682,0,0,0,1.96-.839h0l-.087.4c-.22,1.495-.791,2.2-2.55,2.241-.14.008-.279.011-.416.011a11.527,11.527,0,0,1-1.914-.187l-.087.88a8.154,8.154,0,0,0,1.883.231c.133,0,.268,0,.4-.01h.11a3.363,3.363,0,0,0,3.58-3.132c0-.011,0-.023,0-.034l1.1-7.165a9.177,9.177,0,0,0-2.392-.329Z" transform="translate(-585.914 -282.732)" fill="#fff" fill-rule="evenodd"/>
        <path id="Path_14220" data-name="Path 14220" d="M664.126,277.186a.577.577,0,0,0-.583.572v0c-.044.312.044.615.484.615a.64.64,0,0,0,.659-.615.455.455,0,0,0-.317-.559.461.461,0,0,0-.107-.016.48.48,0,0,0-.059,0q-.039,0-.077,0Zm-.187,2.906-.747.22-1.144,7.3h1.011l1.144-7.517Z" transform="translate(-603.019 -276.792)" fill="#fff" fill-rule="evenodd"/>
        <path id="Path_14221" data-name="Path 14221" d="M675,286.913a1.281,1.281,0,0,1,1.3,1.24c0,1.1-1.056,1.362-2.242,1.362h-2.022a2.94,2.94,0,0,1,2.808-2.593,1.25,1.25,0,0,1,.152-.009Zm.2-.926a1.983,1.983,0,0,0-.222.011c-1.934.044-3.6,1.494-4,3.952-.4,2.417.7,3.952,2.768,3.952a9.737,9.737,0,0,0,2.725-.4l.132-.88h0a9.474,9.474,0,0,1-2.725.353c-1.187-.044-2.11-.66-1.976-2.55h1.976c1.89,0,3.3-.4,3.473-2.2a2.16,2.16,0,0,0-2.073-2.244l-.083,0Z" transform="translate(-609.138 -282.873)" fill="#fff" fill-rule="evenodd"/>
        <path id="Path_14222" data-name="Path 14222" d="M696.66,286.027c-1.714,0-2.988.7-3.208,2.065-.264,1.451,1.1,1.891,2.329,2.11,1.1.176,2.11.44,1.976,1.319-.175,1.011-.922,1.406-2.418,1.495a10.2,10.2,0,0,1-2.288-.312l-.132.924a7.983,7.983,0,0,0,2.288.312c2.065,0,3.3-.832,3.561-2.507.22-1.451-.923-1.89-2.373-2.2-.879-.131-2.11-.264-1.976-1.144.131-.791.923-1.144,2.109-1.144a12.387,12.387,0,0,1,2.154.22l.132-.879A9.012,9.012,0,0,0,696.66,286.027Z" transform="translate(-624.353 -282.902)" fill="#fff" fill-rule="evenodd"/>
      </g>
      <g id="Group_2" data-name="Group 2">
        <path id="Path_1" data-name="Path 1" d="M119.616,219.8a11.76,11.76,0,0,1-10.32-5.806,11.849,11.849,0,0,1,4.273-16.324,11.821,11.821,0,0,1,6.047-1.577,13.255,13.255,0,0,1,5.237,1.052,11.711,11.711,0,0,1,4.229,3.024l-3.637,3.9a8.664,8.664,0,0,0-2.651-2.059,6.9,6.9,0,0,0-3-.657,5.915,5.915,0,0,0-5.346,3.2,7.2,7.2,0,0,0-.789,3.418,6.828,6.828,0,0,0,.833,3.352,6.391,6.391,0,0,0,2.235,2.389,5.906,5.906,0,0,0,3.2.876,6.418,6.418,0,0,0,2.87-.657,8.954,8.954,0,0,0,2.564-1.972l3.593,3.768a12.828,12.828,0,0,1-4.207,3A12.461,12.461,0,0,1,119.616,219.8Z" transform="translate(-107.697 -187.373)" fill="#fff"/>
        <path id="Path_2" data-name="Path 2" d="M186.57,199.854V169.178l6-1.314v11.043a9.385,9.385,0,0,1,6.442-2.322,9.264,9.264,0,0,1,4.667,1.161,8.26,8.26,0,0,1,3.177,3.2,9.5,9.5,0,0,1,1.14,4.711v14.2h-5.96V186.576a4.768,4.768,0,0,0-1.293-3.527,4.708,4.708,0,0,0-3.484-1.293,6,6,0,0,0-2.717.592,5.352,5.352,0,0,0-1.972,1.687v15.82Z" transform="translate(-162.205 -167.864)" fill="#fff"/>
        <path id="Path_3" data-name="Path 3" d="M275.566,219.757a9.867,9.867,0,0,1-4.295-.9,7.1,7.1,0,0,1-2.936-2.476,6.4,6.4,0,0,1-1.052-3.637,5.985,5.985,0,0,1,2.454-5.105,11.286,11.286,0,0,1,6.836-1.819,16.862,16.862,0,0,1,5.61.92v-1.665a3.636,3.636,0,0,0-1.227-2.98,5.548,5.548,0,0,0-3.593-1.008,12.074,12.074,0,0,0-3.111.46,26.3,26.3,0,0,0-3.856,1.424l-2.147-4.469a33.144,33.144,0,0,1,5.171-1.8,20.178,20.178,0,0,1,4.908-.613q4.688,0,7.23,2.213a7.838,7.838,0,0,1,2.542,6.244v14.812h-5.916v-1.621a9.555,9.555,0,0,1-3.024,1.534A12.6,12.6,0,0,1,275.566,219.757Zm-2.586-7.143a2.387,2.387,0,0,0,1.139,2.082,5.33,5.33,0,0,0,3.024.767,10.1,10.1,0,0,0,2.739-.351,6.918,6.918,0,0,0,2.3-1.14v-3.33a9.543,9.543,0,0,0-2.279-.679,15.465,15.465,0,0,0-2.542-.2,5.937,5.937,0,0,0-3.221.745A2.363,2.363,0,0,0,272.981,212.614Z" transform="translate(-217.985 -187.373)" fill="#fff"/>
        <path id="Path_4" data-name="Path 4" d="M349.418,219.363V196.532h6v1.884a9.386,9.386,0,0,1,6.442-2.322,9.264,9.264,0,0,1,4.667,1.161,8.26,8.26,0,0,1,3.177,3.2,9.492,9.492,0,0,1,1.14,4.711v14.2h-5.96V206.085a4.768,4.768,0,0,0-1.293-3.527,4.709,4.709,0,0,0-3.484-1.293,6,6,0,0,0-2.717.592,5.35,5.35,0,0,0-1.972,1.687v15.82Z" transform="translate(-274.747 -187.373)" fill="#fff"/>
        <path id="Path_5" data-name="Path 5" d="M433.537,219.363V196.532h6v1.753a9.24,9.24,0,0,1,9.947-1.293,7.888,7.888,0,0,1,2.892,2.52,9.394,9.394,0,0,1,3.331-2.541,10.147,10.147,0,0,1,4.251-.876,8.617,8.617,0,0,1,4.492,1.161,8.291,8.291,0,0,1,3.068,3.2,9.644,9.644,0,0,1,1.117,4.711v14.2h-6V206.085a5.086,5.086,0,0,0-1.162-3.527,4,4,0,0,0-3.133-1.293,5.554,5.554,0,0,0-2.476.548,4.878,4.878,0,0,0-1.906,1.731q.044.394.088.789a7.668,7.668,0,0,1,.044.833v14.2h-6V206.085a5.086,5.086,0,0,0-1.162-3.527,4,4,0,0,0-3.133-1.293,5.451,5.451,0,0,0-2.432.526,4.8,4.8,0,0,0-1.819,1.577v15.995Z" transform="translate(-332.88 -187.373)" fill="#fff"/>
        <path id="Path_6" data-name="Path 6" d="M566.936,219.757a9.865,9.865,0,0,1-4.294-.9,7.11,7.11,0,0,1-2.937-2.476,6.405,6.405,0,0,1-1.052-3.637,5.985,5.985,0,0,1,2.454-5.105,11.284,11.284,0,0,1,6.836-1.819,16.861,16.861,0,0,1,5.609.92v-1.665a3.635,3.635,0,0,0-1.227-2.98,5.547,5.547,0,0,0-3.593-1.008,12.078,12.078,0,0,0-3.111.46,26.311,26.311,0,0,0-3.856,1.424l-2.147-4.469a33.167,33.167,0,0,1,5.171-1.8,20.182,20.182,0,0,1,4.908-.613q4.688,0,7.23,2.213a7.838,7.838,0,0,1,2.542,6.244v14.812h-5.916v-1.621a9.557,9.557,0,0,1-3.024,1.534A12.6,12.6,0,0,1,566.936,219.757Zm-2.585-7.143a2.386,2.386,0,0,0,1.139,2.082,5.329,5.329,0,0,0,3.024.767,10.1,10.1,0,0,0,2.739-.351,6.921,6.921,0,0,0,2.3-1.14v-3.33a9.54,9.54,0,0,0-2.279-.679,15.459,15.459,0,0,0-2.542-.2,5.939,5.939,0,0,0-3.221.745A2.363,2.363,0,0,0,564.351,212.614Z" transform="translate(-419.347 -187.373)" fill="#fff"/>
        <path id="Path_7" data-name="Path 7" d="M632.844,220.343l8.764-11.613-8.545-11.218h6.968l5.039,6.792,5-6.792h6.748l-8.414,11.13,8.9,11.7h-6.968l-5.39-7.275-5.346,7.275Z" transform="translate(-470.619 -188.353)" fill="#fff"/>
      </g>
    </g>
  </g>
</svg>
