<svg id="Group_4" data-name="Group 4" xmlns="http://www.w3.org/2000/svg" xmlns:xlink="http://www.w3.org/1999/xlink" width="120" height="120" viewBox="0 0 150 150">
  <defs>
    <clipPath id="clip-path">
      <path id="Path_6" data-name="Path 6" d="M205.463,226.094l-10.476,6.047a1.264,1.264,0,0,0-.633,1.1v12.1a1.264,1.264,0,0,0,.633,1.1l10.477,6.051a1.268,1.268,0,0,0,1.266,0l10.475-6.051a1.267,1.267,0,0,0,.632-1.1v-12.1a1.264,1.264,0,0,0-.634-1.1l-10.474-6.047a1.274,1.274,0,0,0-1.268,0" transform="translate(-194.354 -225.925)"/>
    </clipPath>
    <linearGradient id="linear-gradient" x1="-0.847" y1="-1.034" x2="-0.838" y2="-1.034" gradientUnits="objectBoundingBox">
      <stop offset="0.3" stop-color="#3e863d"/>
      <stop offset="0.5" stop-color="#55934f"/>
      <stop offset="0.8" stop-color="#5aad45"/>
    </linearGradient>
    <clipPath id="clip-path-2">
      <path id="Path_8" data-name="Path 8" d="M195.4,246.215a1.268,1.268,0,0,0,.373.327l8.987,5.191,1.5.86a1.27,1.27,0,0,0,.73.165,1.3,1.3,0,0,0,.249-.045l11.049-20.231a1.253,1.253,0,0,0-.294-.234l-6.86-3.961L207.5,226.2a1.323,1.323,0,0,0-.328-.132Zm0,0" transform="translate(-195.398 -226.069)"/>
    </clipPath>
    <linearGradient id="linear-gradient-2" x1="-0.742" y1="-0.932" x2="-0.737" y2="-0.932" gradientUnits="objectBoundingBox">
      <stop offset="0.57" stop-color="#3e863d"/>
      <stop offset="0.72" stop-color="#619857"/>
      <stop offset="1" stop-color="#76ac64"/>
    </linearGradient>
    <clipPath id="clip-path-3">
      <path id="Path_10" data-name="Path 10" d="M207.973,225.939a1.278,1.278,0,0,0-.506.162l-10.446,6.029,11.264,20.517a1.256,1.256,0,0,0,.45-.155l10.476-6.051a1.269,1.269,0,0,0,.612-.864L208.34,225.959a1.316,1.316,0,0,0-.256-.025c-.035,0-.07,0-.1,0" transform="translate(-197.021 -225.934)"/>
    </clipPath>
    <linearGradient id="linear-gradient-3" x1="-2.148" y1="-2.103" x2="-2.138" y2="-2.103" gradientUnits="objectBoundingBox">
      <stop offset="0.16" stop-color="#6bbf47"/>
      <stop offset="0.38" stop-color="#79b461"/>
      <stop offset="0.47" stop-color="#75ac64"/>
      <stop offset="0.7" stop-color="#659e5a"/>
      <stop offset="0.9" stop-color="#3e863d"/>
    </linearGradient>
  </defs>
  <rect id="Rectangle_1" data-name="Rectangle 1" width="150" height="150" rx="20" fill="#fff"/>
  <g id="node-node-js-seeklogo.com" transform="translate(20 41)">
    <path id="Path_1" data-name="Path 1" d="M182.3,189.016a2.091,2.091,0,0,1-1.042-.278l-3.316-1.963c-.5-.277-.254-.375-.09-.431a6.7,6.7,0,0,0,1.5-.684.252.252,0,0,1,.247.017l2.548,1.512a.336.336,0,0,0,.308,0l9.934-5.734a.313.313,0,0,0,.152-.269V169.723a.319.319,0,0,0-.154-.274l-9.93-5.729a.306.306,0,0,0-.306,0l-9.928,5.729a.317.317,0,0,0-.157.271v11.463a.306.306,0,0,0,.154.266l2.72,1.572c1.477.739,2.38-.132,2.38-1.007V170.7a.283.283,0,0,1,.288-.286h1.258a.284.284,0,0,1,.286.286v11.319c0,1.969-1.074,3.1-2.942,3.1a4.258,4.258,0,0,1-2.29-.622l-2.606-1.5a2.1,2.1,0,0,1-1.042-1.813V169.72a2.087,2.087,0,0,1,1.042-1.81l9.944-5.737a2.178,2.178,0,0,1,2.089,0l9.931,5.739a2.1,2.1,0,0,1,1.042,1.81v11.463a2.1,2.1,0,0,1-1.042,1.81l-9.931,5.737a2.088,2.088,0,0,1-1.047.278" transform="translate(-127.933 -121.647)" fill="#689f63"/>
    <path id="Path_2" data-name="Path 2" d="M215.1,197.087c-4.347,0-5.258-2-5.258-3.669a.286.286,0,0,1,.288-.286h1.283a.287.287,0,0,1,.284.243c.194,1.307.771,1.967,3.4,1.967,2.094,0,2.984-.473,2.984-1.583,0-.639-.254-1.114-3.506-1.432-2.72-.269-4.4-.868-4.4-3.044,0-2,1.691-3.2,4.523-3.2,3.18,0,4.757,1.1,4.956,3.476a.29.29,0,0,1-.077.221.3.3,0,0,1-.211.092h-1.291a.285.285,0,0,1-.279-.224c-.311-1.375-1.062-1.815-3.1-1.815-2.285,0-2.551.8-2.551,1.392,0,.724.313.935,3.4,1.343,3.054.405,4.5.977,4.5,3.123,0,2.163-1.805,3.4-4.953,3.4m12.1-12.157h.333a.29.29,0,0,0,.326-.3c0-.293-.2-.293-.313-.293h-.343Zm-.405-.94h.739c.254,0,.751,0,.751.567a.494.494,0,0,1-.405.527c.3.02.316.214.356.487a2.1,2.1,0,0,0,.112.567h-.455c-.012-.1-.082-.647-.082-.676-.03-.122-.072-.182-.224-.182H227.2v.86h-.415Zm-.888,1.069a1.605,1.605,0,1,0,1.6-1.6,1.607,1.607,0,0,0-1.6,1.6m3.521.007a1.915,1.915,0,1,1-1.915-1.915,1.92,1.92,0,0,1,1.915,1.915" transform="translate(-157.663 -137.616)" fill="#689f63"/>
    <path id="Path_3" data-name="Path 3" d="M23.607,22.516a1.272,1.272,0,0,0-.636-1.105l-10.532-6.06a1.23,1.23,0,0,0-.579-.167h-.109a1.251,1.251,0,0,0-.582.167L.637,21.411A1.282,1.282,0,0,0,0,22.518L.023,38.84a.627.627,0,0,0,.316.55.6.6,0,0,0,.632,0L7.232,35.8a1.284,1.284,0,0,0,.637-1.1V27.074a1.268,1.268,0,0,1,.635-1.1l2.666-1.535a1.265,1.265,0,0,1,.637-.171,1.242,1.242,0,0,1,.633.171L15.1,25.972a1.269,1.269,0,0,1,.637,1.1V34.7a1.288,1.288,0,0,0,.638,1.1l6.257,3.583a.622.622,0,0,0,.637,0,.639.639,0,0,0,.315-.55Zm49.7,8.5a.316.316,0,0,1-.159.275l-3.618,2.085a.319.319,0,0,1-.318,0L65.594,31.29a.315.315,0,0,1-.159-.275V26.838a.32.32,0,0,1,.157-.276l3.616-2.089a.321.321,0,0,1,.321,0l3.618,2.089a.317.317,0,0,1,.159.276ZM74.283.081a.636.636,0,0,0-.946.556V16.8a.445.445,0,0,1-.667.385l-2.638-1.52a1.27,1.27,0,0,0-1.271,0l-10.536,6.08a1.269,1.269,0,0,0-.637,1.1V35.01a1.273,1.273,0,0,0,.637,1.1L68.76,42.2a1.277,1.277,0,0,0,1.272,0l10.536-6.087a1.275,1.275,0,0,0,.637-1.1V4.691a1.275,1.275,0,0,0-.654-1.112Zm35.084,26.647a1.272,1.272,0,0,0,.632-1.1V22.68a1.273,1.273,0,0,0-.633-1.1L98.9,15.5a1.271,1.271,0,0,0-1.276,0l-10.533,6.08a1.27,1.27,0,0,0-.637,1.1v12.16a1.276,1.276,0,0,0,.642,1.107L97.56,41.916a1.269,1.269,0,0,0,1.248.007l6.331-3.519a.635.635,0,0,0,0-1.107l-10.6-6.082a.631.631,0,0,1-.321-.55V26.852a.631.631,0,0,1,.318-.551l3.3-1.9a.629.629,0,0,1,.634,0l3.3,1.9a.634.634,0,0,1,.318.55v3a.634.634,0,0,0,.955.55Zm0,0" transform="translate(0 0)" fill="#333" fill-rule="evenodd"/>
    <path id="Path_4" data-name="Path 4" d="M388.058,105.1a.241.241,0,0,1,.244,0l2.022,1.166a.244.244,0,0,1,.122.211v2.335a.244.244,0,0,1-.122.211L388.3,110.19a.241.241,0,0,1-.244,0l-2.02-1.166a.243.243,0,0,1-.124-.211v-2.335a.241.241,0,0,1,.122-.211Zm0,0" transform="translate(-289.952 -78.941)" fill="#689f63" fill-rule="evenodd"/>
    <g id="Group_1" data-name="Group 1" transform="translate(28.857 15.394)" clip-path="url(#clip-path)">
      <path id="Path_5" data-name="Path 5" d="M196.434,203.073l-29.52-14.47L151.778,219.48l29.519,14.47Zm0,0" transform="translate(-162.365 -197.884)" fill="url(#linear-gradient)"/>
    </g>
    <g id="Group_2" data-name="Group 2" transform="translate(29.116 15.43)" clip-path="url(#clip-path-2)">
      <path id="Path_7" data-name="Path 7" d="M144.07,202.467l20.844,28.211,27.566-20.367L171.635,182.1Zm0,0" transform="translate(-156.833 -193.034)" fill="url(#linear-gradient-2)"/>
    </g>
    <g id="Group_3" data-name="Group 3" transform="translate(29.52 15.397)" clip-path="url(#clip-path-3)">
      <path id="Path_9" data-name="Path 9" d="M197.02,225.934v26.714h22.8V225.934Zm0,0" transform="translate(-197.02 -225.934)" fill="url(#linear-gradient-3)"/>
    </g>
  </g>
</svg>
