<svg id="Layer_1" data-name="Layer 1" xmlns="http://www.w3.org/2000/svg" viewBox="0 0 174 32"><defs><style>.cls-1{fill:#fff;}.cls-2{fill:#191919;}</style></defs><rect class="cls-1" width="174" height="32"/><path class="cls-2" d="M56.81,17.94H52.67a1,1,0,0,0-1,1v4.15a1,1,0,0,0,1,1h4.14a1,1,0,0,0,1-1V19A1,1,0,0,0,56.81,17.94Zm5.46-5.82H58.62a.78.78,0,0,0-.78.78v3.65a.78.78,0,0,0,.78.78h3.65a.78.78,0,0,0,.78-.78V12.9A.78.78,0,0,0,62.27,12.12Zm-8-.68h3a.58.58,0,0,0,.58-.58v-3a.58.58,0,0,0-.58-.57h-3a.58.58,0,0,0-.58.57v3A.58.58,0,0,0,54.26,11.44Zm4-4.68h1.43A.38.38,0,0,0,60,6.38V5a.38.38,0,0,0-.38-.38H58.22a.38.38,0,0,0-.38.38V6.38A.38.38,0,0,0,58.22,6.76Z"/><path class="cls-2" d="M26.39,6.6,37.33,23.27a5.94,5.94,0,0,0,2.19,2,6,6,0,0,0,7.93-2l3-4.53v5.41a15.65,15.65,0,1,1,0-16.34.56.56,0,0,1,.05.08L50.44,8,42.78,20.32a.46.46,0,0,1-.78,0L35.35,9.51A7.41,7.41,0,0,0,29,6H26.71A.39.39,0,0,0,26.39,6.6Z"/><path class="cls-2" d="M68.74,11.48a6.92,6.92,0,0,1,9.31,0A6,6,0,0,1,79.9,16a6,6,0,0,1-1.85,4.52,6.92,6.92,0,0,1-9.31,0A6,6,0,0,1,66.89,16,6,6,0,0,1,68.74,11.48Zm7.42,1.72a4.14,4.14,0,0,0-5.53,0A3.75,3.75,0,0,0,69.56,16a3.65,3.65,0,0,0,3.83,3.86,3.79,3.79,0,0,0,2.77-1.06A3.75,3.75,0,0,0,77.22,16,3.75,3.75,0,0,0,76.16,13.2Z"/><path class="cls-2" d="M90.79,10.06h1.26L87.27,21.94H84.91L80.15,10.06h1.27a2.35,2.35,0,0,1,2.23,1.61l2.44,7.26,2.47-7.27A2.36,2.36,0,0,1,90.79,10.06Z"/><path class="cls-2" d="M98.09,22.32A5.51,5.51,0,0,1,94,20.6,6.34,6.34,0,0,1,92.31,16,6.34,6.34,0,0,1,94,11.4a5.51,5.51,0,0,1,4.11-1.72,4.28,4.28,0,0,1,4,2.13h.06a1.74,1.74,0,0,1,1.74-1.75h.77V21.94h-2.51V20.19h-.06A4.28,4.28,0,0,1,98.09,22.32ZM96,18.79a3.8,3.8,0,0,0,5.29,0,3.9,3.9,0,0,0,1-2.79,3.9,3.9,0,0,0-1-2.79,3.8,3.8,0,0,0-5.29,0A3.9,3.9,0,0,0,95,16,3.9,3.9,0,0,0,96,18.79Z"/><path class="cls-2" d="M107.76,21.94V10.06h.77a1.75,1.75,0,0,1,1.75,1.75v.1h0a3.56,3.56,0,0,1,3.57-2.23,3.61,3.61,0,0,1,3.6,2.41h0a3.74,3.74,0,0,1,1.52-1.81,4.21,4.21,0,0,1,2.21-.6,3.82,3.82,0,0,1,2.93,1.21,5.25,5.25,0,0,1,1.13,3.7v7.35h-2.52V14.71c0-1.67-.78-2.51-2.34-2.51a2.39,2.39,0,0,0-2,.86,4.16,4.16,0,0,0-.72,2.71v6.17h-2.52V14.71c0-1.67-.79-2.51-2.37-2.51a2.37,2.37,0,0,0-1.92.87,4.23,4.23,0,0,0-.72,2.72v6.15Z"/><path class="cls-2" d="M133.59,9.68a5.29,5.29,0,0,1,4.18,1.71,6.73,6.73,0,0,1,1.5,4.61v.41h-9.2a3.62,3.62,0,0,0,1.07,2.53,3.45,3.45,0,0,0,2.53,1,4,4,0,0,0,2.55-.92,1.87,1.87,0,0,1,2.44.1l.43.41a6.35,6.35,0,0,1-5.37,2.82,6,6,0,0,1-4.51-1.73A6.3,6.3,0,0,1,127.52,16a6.52,6.52,0,0,1,1.64-4.57A5.68,5.68,0,0,1,133.59,9.68ZM133.44,12a3.34,3.34,0,0,0-2.16.67,3,3,0,0,0-1.08,1.93h6.35a2.58,2.58,0,0,0-.92-1.92A3.37,3.37,0,0,0,133.44,12Z"/><path class="cls-2" d="M146.88,9.68a5.29,5.29,0,0,1,4.18,1.71,6.73,6.73,0,0,1,1.5,4.61v.41h-9.2a3.61,3.61,0,0,0,1.06,2.53,3.47,3.47,0,0,0,2.54,1,4,4,0,0,0,2.55-.92,1.87,1.87,0,0,1,2.44.1l.43.41A6.35,6.35,0,0,1,147,22.32a6,6,0,0,1-4.51-1.73A6.25,6.25,0,0,1,140.81,16a6.52,6.52,0,0,1,1.64-4.57A5.68,5.68,0,0,1,146.88,9.68ZM146.72,12a3.33,3.33,0,0,0-2.15.67,3,3,0,0,0-1.08,1.93h6.34a2.54,2.54,0,0,0-.91-1.92A3.38,3.38,0,0,0,146.72,12Z"/></svg>