<svg id="Layer_1" data-name="Layer 1" xmlns="http://www.w3.org/2000/svg" viewBox="0 0 174 32"><defs><style>.cls-1{fill:#fff;}</style></defs><rect class="cls-1" width="174" height="32"/><path d="M70,12.84c0,2.17-.68,3.58-2.06,4.25a14.34,14.34,0,0,1-4.83.51,10.39,10.39,0,0,1-4.93-1.1q-1.83-.93-1.83-1.86a21,21,0,0,1,1.28-6c.75-2.41,1.48-3.62,2.17-3.62a1.65,1.65,0,0,1,1.19.5,1.55,1.55,0,0,1,.5,1.09,24,24,0,0,1-1.05,2.91,12.13,12.13,0,0,0-1.06,3.92c0,.43.51.8,1.52,1.1a11.94,11.94,0,0,0,2.9.34,5,5,0,0,0,2.36-.55,1.77,1.77,0,0,0,1-1.65A13.43,13.43,0,0,0,66,8.05,30.84,30.84,0,0,1,64.66,4.6,2.9,2.9,0,0,1,65,3.12a1.07,1.07,0,0,1,1-.62,1.81,1.81,0,0,1,1.55,1.14l1,2.58A20.06,20.06,0,0,1,70,12.84Z"/><path d="M82.72,16.16a1.07,1.07,0,0,1-.43.93,2.14,2.14,0,0,1-.91.38,1.57,1.57,0,0,1-.91-.44A1.31,1.31,0,0,1,79.93,16l-.07-1-.17-1.86-.21-2.83c-.2-1.43-.61-2.21-1.2-2.35-.72.35-1.79,2-3.21,5l-1.24,2.76C73.41,16.51,73,17,72.55,17a2.34,2.34,0,0,1-1-.29,1,1,0,0,1-.56-.88q0-1.66,2.79-6.28,3-5,5-5,1.27,0,2.28,1.83A14.76,14.76,0,0,1,82.29,11,38.71,38.71,0,0,1,82.72,16.16Z"/><path d="M103.28,12a5.59,5.59,0,0,1-1.49,3.79,3.86,3.86,0,0,1-2.89,1.52,1.2,1.2,0,0,1-.92-.45,1.48,1.48,0,0,1-.39-1,1.63,1.63,0,0,1,.72-1.41l1.48-1a2.37,2.37,0,0,0,.76-1.9A2.92,2.92,0,0,0,99.93,10a2.44,2.44,0,0,0-2-1.07L97.21,9a4,4,0,0,1,.48,2.1,3.36,3.36,0,0,1-1,2.45,4.15,4.15,0,0,1-2.89.93,2.84,2.84,0,0,1-2.17-1.1,3.32,3.32,0,0,1-1-2.17,3.57,3.57,0,0,1,1-2.8l-.55-.07a3.58,3.58,0,0,0-2.9,1.83,5.12,5.12,0,0,0-1.1,2.72c0,1.2.64,1.8,1.93,1.8a4.43,4.43,0,0,1,1.55.17,1.25,1.25,0,0,1,.73,1.28c0,.87-.84,1.31-2.52,1.31a4.6,4.6,0,0,1-2.83-1,3.89,3.89,0,0,1-1.55-3.24A8.1,8.1,0,0,1,86.29,8a5.61,5.61,0,0,1,4.4-2.35c2.07,0,3.5.41,4.31,1.21a8.42,8.42,0,0,1,1.57-.62A6,6,0,0,1,98.21,6a4.5,4.5,0,0,1,3.79,2A6.73,6.73,0,0,1,103.28,12Zm-8.35-.79c0-.95-.19-1.42-.59-1.42a1,1,0,0,0-.74.33,1.41,1.41,0,0,0-.39.88c0,.55.28.83.86.83S94.93,11.57,94.93,11.16Z"/><path d="M117.62,15.16a26.76,26.76,0,0,1-1.21,5.51c-.36,1.38-.65,2.63-.86,3.76a15.6,15.6,0,0,0-.31,2.73,8.42,8.42,0,0,1-.1,1.58,1.13,1.13,0,0,1-1.17.76,1.48,1.48,0,0,1-1.16-.53,1.92,1.92,0,0,1-.47-1.3,30,30,0,0,1,1.18-6.38,46.52,46.52,0,0,0,1.17-5.1,3.85,3.85,0,0,0-.41-1.72,1.28,1.28,0,0,0-1.18-.83A5.4,5.4,0,0,1,111,16a6,6,0,0,1-3.68,1.3c-1.9,0-2.86-.69-2.86-2.07q0-2.52,2.76-3.9a9.56,9.56,0,0,1,4.14-.93l.07-.72a6.4,6.4,0,0,0,0-.9,5.48,5.48,0,0,0-.2-.83c-.21-.62-.48-.93-.8-.93s-.61.44-1.2,1.31a2.35,2.35,0,0,1-2,1.31c-.6,0-.9-.42-.9-1.27A3.91,3.91,0,0,1,107.48,6,3.28,3.28,0,0,1,110,4.67a3.21,3.21,0,0,1,2.79,1.55,6.47,6.47,0,0,1,1,3.66v.38c0,.14,0,.37-.07.69a4.79,4.79,0,0,1,2.72,1.52A3.65,3.65,0,0,1,117.62,15.16Zm-7-2.52a5,5,0,0,0-2.33.79c-.93.53-1.4,1-1.4,1.35,0,.2.24.31.73.31a3,3,0,0,0,1.63-.73A3.81,3.81,0,0,0,110.59,12.64Z"/></svg>