<svg id="Layer_1" data-name="Layer 1" xmlns="http://www.w3.org/2000/svg" viewBox="0 0 174 32"><defs><style>.cls-1{fill:#fff;}.cls-2{fill:#191919;}</style></defs><rect class="cls-1" width="174" height="32"/><path class="cls-2" d="M74.36,26.67h.23l-.6,3h1.85l0,.21H73.72Z"/><path class="cls-2" d="M76.48,28.74a.86.86,0,0,0,0,.15.78.78,0,0,0,.23.6,1,1,0,0,0,.66.2,1.14,1.14,0,0,0,.46-.08,1,1,0,0,0,.36-.24l.1.16a.92.92,0,0,1-.41.27,1.32,1.32,0,0,1-.53.1,1.12,1.12,0,0,1-.8-.27.91.91,0,0,1-.29-.73,1.46,1.46,0,0,1,.17-.73,1.37,1.37,0,0,1,.46-.52,1.29,1.29,0,0,1,.67-.18,1.07,1.07,0,0,1,.75.26,1,1,0,0,1,.27.74c0,.07,0,.16,0,.27Zm.4-.83a1.14,1.14,0,0,0-.37.65h1.84a.41.41,0,0,0,0-.12.78.78,0,0,0-.22-.57.83.83,0,0,0-.59-.2A1,1,0,0,0,76.88,27.91Z"/><path class="cls-2" d="M79.45,29.19a.5.5,0,0,0,0,.17c0,.23.12.34.36.34a.59.59,0,0,0,.39-.13l.07.17a.76.76,0,0,1-.51.16.55.55,0,0,1-.4-.13.49.49,0,0,1-.15-.38,1.1,1.1,0,0,1,0-.18l.31-1.53h-.45l0-.19h.45l.1-.53h.23l-.1.53h.76l0,.19h-.76Z"/><path class="cls-2" d="M81.61,26.51a.18.18,0,0,1,.06.14.29.29,0,0,1,0,.09.31.31,0,0,1-.05.1l-.32.65h-.16l.28-.66a.15.15,0,0,1-.09-.06.2.2,0,0,1,0-.11.17.17,0,0,1,.06-.14.2.2,0,0,1,.14-.06A.17.17,0,0,1,81.61,26.51Z"/><path class="cls-2" d="M81.82,29.82a1.16,1.16,0,0,1-.4-.22l.13-.18a1,1,0,0,0,.35.2,1.5,1.5,0,0,0,.47.08,1.06,1.06,0,0,0,.58-.13.41.41,0,0,0,.2-.37.25.25,0,0,0-.08-.21.43.43,0,0,0-.2-.11l-.33-.09a2,2,0,0,1-.4-.11.56.56,0,0,1-.26-.17.46.46,0,0,1-.11-.32.59.59,0,0,1,.28-.52,1.14,1.14,0,0,1,.72-.2,1.68,1.68,0,0,1,.45.06.9.9,0,0,1,.34.17l-.1.18a1.07,1.07,0,0,0-.32-.16,1.67,1.67,0,0,0-.39,0,1,1,0,0,0-.55.14.42.42,0,0,0-.2.36.33.33,0,0,0,.08.22.72.72,0,0,0,.21.12l.34.09a3.59,3.59,0,0,1,.39.1.65.65,0,0,1,.26.17.43.43,0,0,1,.1.31.61.61,0,0,1-.28.53,1.25,1.25,0,0,1-.74.19A1.91,1.91,0,0,1,81.82,29.82Z"/><path class="cls-2" d="M85.38,29.78a1.12,1.12,0,0,1-.47-.3L85,29.3a1,1,0,0,0,.43.29,1.71,1.71,0,0,0,.59.11,1.3,1.3,0,0,0,.75-.19.59.59,0,0,0,.27-.52.41.41,0,0,0-.1-.29.78.78,0,0,0-.26-.17l-.41-.14a4.4,4.4,0,0,1-.49-.17.79.79,0,0,1-.31-.23.61.61,0,0,1-.13-.39.86.86,0,0,1,.16-.51,1,1,0,0,1,.45-.33,1.59,1.59,0,0,1,.64-.11,1.88,1.88,0,0,1,.53.07,1.38,1.38,0,0,1,.44.21l-.11.19a1.36,1.36,0,0,0-.4-.2,1.84,1.84,0,0,0-.47-.07,1.26,1.26,0,0,0-.73.2.59.59,0,0,0-.27.52.44.44,0,0,0,.1.3,1,1,0,0,0,.26.18l.43.14a4.94,4.94,0,0,1,.48.17.73.73,0,0,1,.3.22.53.53,0,0,1,.13.38.81.81,0,0,1-.36.7,1.58,1.58,0,0,1-.91.25A1.67,1.67,0,0,1,85.38,29.78Z"/><path class="cls-2" d="M88.29,29.19a.5.5,0,0,0,0,.17c0,.23.12.34.36.34a.59.59,0,0,0,.39-.13l.07.17a.76.76,0,0,1-.51.16.55.55,0,0,1-.4-.13.49.49,0,0,1-.15-.38,1.1,1.1,0,0,1,0-.18l.31-1.53h-.45l0-.19h.45l.1-.53h.23l-.11.53h.77l0,.19h-.76Z"/><path class="cls-2" d="M92.22,27.49l-.48,2.39h-.22l.09-.47a1.07,1.07,0,0,1-.43.36,1.24,1.24,0,0,1-.58.13,1,1,0,0,1-.75-.27.94.94,0,0,1-.28-.72,1.61,1.61,0,0,1,.17-.74,1.29,1.29,0,0,1,1.18-.7,1.08,1.08,0,0,1,.62.16.84.84,0,0,1,.33.45l.12-.59Zm-1,2.05a1.16,1.16,0,0,0,.41-.44,1.38,1.38,0,0,0,.14-.62.76.76,0,0,0-.22-.59.89.89,0,0,0-.63-.22,1.11,1.11,0,0,0-.57.16,1.06,1.06,0,0,0-.4.44,1.26,1.26,0,0,0-.15.62.76.76,0,0,0,.22.59.89.89,0,0,0,.63.21A1.1,1.1,0,0,0,91.22,29.54Z"/><path class="cls-2" d="M93.72,27.6a1.25,1.25,0,0,1,.61-.13l0,.22h-.07a1,1,0,0,0-.67.24,1.36,1.36,0,0,0-.36.72l-.25,1.23h-.22l.47-2.39h.23l-.1.5A1,1,0,0,1,93.72,27.6Z"/><path class="cls-2" d="M95,29.19a1,1,0,0,0,0,.17c0,.23.12.34.37.34a.61.61,0,0,0,.39-.13l.07.17a.79.79,0,0,1-.52.16.57.57,0,0,1-.4-.13.48.48,0,0,1-.14-.38.55.55,0,0,1,0-.18l.3-1.53h-.44l0-.19h.45l.1-.53h.23l-.1.53h.76l0,.19H95.3Z"/><path class="cls-2" d="M98.88,26.88H97.72l0-.21h2.54l0,.21H99.12l-.6,3h-.24Z"/><path class="cls-2" d="M102.4,27.67a.73.73,0,0,1,.22.56,2.65,2.65,0,0,1,0,.27l-.28,1.38h-.23l.28-1.38a1.64,1.64,0,0,0,0-.23.57.57,0,0,0-.17-.44.78.78,0,0,0-.51-.16,1,1,0,0,0-.68.24,1.11,1.11,0,0,0-.37.67l-.26,1.3h-.23l.68-3.4h.23l-.29,1.45a1.15,1.15,0,0,1,1-.46A.9.9,0,0,1,102.4,27.67Z"/><path class="cls-2" d="M103.46,28.74c0,.06,0,.11,0,.15a.78.78,0,0,0,.23.6,1,1,0,0,0,.66.2,1.22,1.22,0,0,0,.47-.08,1,1,0,0,0,.35-.24l.11.16a1,1,0,0,1-.41.27,1.4,1.4,0,0,1-.54.1,1.12,1.12,0,0,1-.8-.27.94.94,0,0,1-.29-.73,1.57,1.57,0,0,1,.17-.73,1.31,1.31,0,0,1,.47-.52,1.27,1.27,0,0,1,.67-.18,1,1,0,0,1,.74.26,1,1,0,0,1,.28.74,1.57,1.57,0,0,1,0,.27Zm.4-.83a1.14,1.14,0,0,0-.37.65h1.84a.41.41,0,0,0,0-.12.74.74,0,0,0-.22-.57.81.81,0,0,0-.59-.2A1,1,0,0,0,103.86,27.91Z"/><path class="cls-2" d="M107.11,29.78a.73.73,0,0,1-.32-.33l.17-.15a.69.69,0,0,0,.27.29.74.74,0,0,0,.4.1.65.65,0,0,0,.49-.17,1,1,0,0,0,.26-.57l.42-2.07h-1.19l0-.21h1.42L108.61,29a1.35,1.35,0,0,1-.34.73,1,1,0,0,1-.65.22A1,1,0,0,1,107.11,29.78Z"/><path class="cls-2" d="M109.69,29.63a.94.94,0,0,1-.28-.72,1.61,1.61,0,0,1,.17-.74,1.27,1.27,0,0,1,.49-.51,1.33,1.33,0,0,1,.71-.19,1.08,1.08,0,0,1,.77.27,1,1,0,0,1,.29.72,1.5,1.5,0,0,1-.18.74,1.34,1.34,0,0,1-1.19.7A1.09,1.09,0,0,1,109.69,29.63Zm1.37-.09a1.14,1.14,0,0,0,.4-.44,1.26,1.26,0,0,0,.15-.62.76.76,0,0,0-.22-.59.89.89,0,0,0-.63-.22,1.15,1.15,0,0,0-.58.16,1.14,1.14,0,0,0-.4.44,1.26,1.26,0,0,0-.14.62.76.76,0,0,0,.22.59.89.89,0,0,0,.63.21A1.1,1.1,0,0,0,111.06,29.54Z"/><path class="cls-2" d="M114.87,27.49l-.47,2.39h-.23l.09-.45a1.13,1.13,0,0,1-1,.47.89.89,0,0,1-.62-.2.74.74,0,0,1-.22-.57,1.22,1.22,0,0,1,0-.26l.27-1.38H113l-.27,1.38a.85.85,0,0,0,0,.23.57.57,0,0,0,.17.44.73.73,0,0,0,.5.15,1,1,0,0,0,.68-.23,1.15,1.15,0,0,0,.36-.67l.26-1.3Z"/><path class="cls-2" d="M116.37,27.6a1.28,1.28,0,0,1,.61-.13l0,.22h-.08a1,1,0,0,0-.67.24,1.29,1.29,0,0,0-.35.72l-.25,1.23h-.23l.48-2.39h.22l-.1.5A1.09,1.09,0,0,1,116.37,27.6Z"/><path class="cls-2" d="M119.36,27.67a.77.77,0,0,1,.22.56,1.31,1.31,0,0,1,0,.27l-.28,1.38H119l.28-1.38a.86.86,0,0,0,0-.23.54.54,0,0,0-.17-.44.73.73,0,0,0-.5-.16,1,1,0,0,0-.69.24,1.15,1.15,0,0,0-.36.67l-.26,1.3h-.23l.47-2.39h.23l-.09.45a1,1,0,0,1,.42-.36,1.48,1.48,0,0,1,.57-.11A.93.93,0,0,1,119.36,27.67Z"/><path class="cls-2" d="M120.42,28.74a.86.86,0,0,0,0,.15.78.78,0,0,0,.22.6,1,1,0,0,0,.66.2,1.19,1.19,0,0,0,.47-.08,1.13,1.13,0,0,0,.36-.24l.1.16a1,1,0,0,1-.41.27,1.39,1.39,0,0,1-.53.1,1.17,1.17,0,0,1-.81-.27.94.94,0,0,1-.29-.73,1.57,1.57,0,0,1,.17-.73,1.39,1.39,0,0,1,.47-.52,1.27,1.27,0,0,1,.67-.18,1,1,0,0,1,.74.26,1,1,0,0,1,.28.74,1.57,1.57,0,0,1,0,.27Zm.39-.83a1.2,1.2,0,0,0-.37.65h1.85v-.12a.74.74,0,0,0-.22-.57.79.79,0,0,0-.58-.2A1,1,0,0,0,120.81,27.91Z"/><path class="cls-2" d="M125.32,27.49l-1.79,2.75a1.51,1.51,0,0,1-.38.43.75.75,0,0,1-.43.12,1.06,1.06,0,0,1-.31-.05.5.5,0,0,1-.23-.16l.13-.17a.55.55,0,0,0,.43.18.53.53,0,0,0,.3-.09,1.16,1.16,0,0,0,.29-.32l.2-.31-.6-2.38h.23l.54,2.14,1.38-2.14Z"/><path class="cls-2" d="M125.06,29.85a.2.2,0,0,1-.06-.14.18.18,0,0,1,.06-.14.2.2,0,0,1,.14-.06.18.18,0,0,1,.14.06.19.19,0,0,1,0,.13.2.2,0,0,1-.06.14.18.18,0,0,1-.14.06A.19.19,0,0,1,125.06,29.85Z"/><path class="cls-2" d="M126,29.85a.2.2,0,0,1-.06-.14.18.18,0,0,1,.06-.14.2.2,0,0,1,.14-.06.21.21,0,0,1,.19.19.21.21,0,0,1-.2.2A.19.19,0,0,1,126,29.85Z"/><path class="cls-2" d="M126.89,29.85a.24.24,0,0,1,0-.14.21.21,0,0,1,.2-.2.21.21,0,0,1,.19.19.21.21,0,0,1-.2.2A.22.22,0,0,1,126.89,29.85Z"/><path class="cls-2" d="M127.81,29.85a.19.19,0,0,1,0-.14.21.21,0,0,1,.2-.2.18.18,0,0,1,.13.06.16.16,0,0,1,.06.13.2.2,0,0,1-.06.14.2.2,0,0,1-.15.06A.21.21,0,0,1,127.81,29.85Z"/><path class="cls-2" d="M128.73,29.85a.2.2,0,0,1-.06-.14.18.18,0,0,1,.06-.14.2.2,0,0,1,.15-.06.18.18,0,0,1,.13.06.15.15,0,0,1,.05.13.2.2,0,0,1-.06.14.18.18,0,0,1-.14.06A.21.21,0,0,1,128.73,29.85Z"/><path class="cls-2" d="M75.72,14.5h1.76a.45.45,0,0,0,.33-.1A.68.68,0,0,0,78,14l.33-2h1a4.5,4.5,0,0,0,2.85-.79A3.8,3.8,0,0,0,83.43,8.7a6.56,6.56,0,0,0,.06-.79,2.27,2.27,0,0,0-.84-2,4.19,4.19,0,0,0-2.47-.61h-3a.48.48,0,0,0-.5.47L75.33,14C75.28,14.35,75.41,14.5,75.72,14.5ZM79,7.66h.84a1.13,1.13,0,0,1,.69.17.58.58,0,0,1,.22.52,1.56,1.56,0,0,1,0,.35,1.28,1.28,0,0,1-.37.8,1.34,1.34,0,0,1-.86.24h-.83Z"/><path class="cls-2" d="M83.22,12.91a1.57,1.57,0,0,0,.53,1.26,2.17,2.17,0,0,0,1.44.44,2.47,2.47,0,0,0,2-.82l0,.38a.36.36,0,0,0,.4.33H89c.26,0,.41-.14.46-.44L90.18,10a2.67,2.67,0,0,0,0-.58c0-1.37-1-2.05-2.85-2.05a7.06,7.06,0,0,0-2.61.52.49.49,0,0,0-.35.56l.13,1q.06.42.48.27a4.86,4.86,0,0,1,1.72-.34,1.41,1.41,0,0,1,.78.17.46.46,0,0,1,.17.49l0,.2c-.38,0-.69,0-.91,0s-.52,0-.87.08a5.26,5.26,0,0,0-.85.17,4.52,4.52,0,0,0-.71.31,1.78,1.78,0,0,0-.59.47,2.7,2.7,0,0,0-.36.7A3,3,0,0,0,83.22,12.91Zm4.23-1.44-.08.53a1,1,0,0,1-1.08,1c-.39,0-.58-.18-.58-.53Q85.71,11.52,87.45,11.47Z"/><path class="cls-2" d="M91,14.5h1.72c.25,0,.4-.14.45-.44l.5-3a1.46,1.46,0,0,1,.47-.9,1.42,1.42,0,0,1,1-.32l.29,0,.25,0a.4.4,0,0,0,.42-.35l.28-1.76q.09-.42-.33-.42a2.06,2.06,0,0,0-1.13.35,2.87,2.87,0,0,0-.85.81l0-.68a.34.34,0,0,0-.38-.37H92.16c-.26,0-.41.14-.46.44l-1,6.11C90.62,14.36,90.74,14.5,91,14.5Z"/><path class="cls-2" d="M95.9,11.94a3.24,3.24,0,0,0-.14,1,1.57,1.57,0,0,0,.52,1.26,2.19,2.19,0,0,0,1.44.44,2.46,2.46,0,0,0,2-.82l0,.38a.36.36,0,0,0,.41.33h1.42c.26,0,.41-.14.46-.44l.69-4.08a3.48,3.48,0,0,0,0-.58c0-1.37-1-2.05-2.86-2.05a7,7,0,0,0-2.6.52.5.5,0,0,0-.36.56l.14,1q.06.42.48.27a4.82,4.82,0,0,1,1.72-.34,1.35,1.35,0,0,1,.77.17.43.43,0,0,1,.17.49l0,.2c-.39,0-.69,0-.92,0s-.51,0-.87.08a5.11,5.11,0,0,0-.84.17,4.15,4.15,0,0,0-.71.31,1.72,1.72,0,0,0-.6.47A2.7,2.7,0,0,0,95.9,11.94Zm4.09-.47L99.9,12a1,1,0,0,1-1.08,1c-.39,0-.58-.18-.58-.53C98.24,11.82,98.82,11.5,100,11.47Z"/><path class="cls-2" d="M103.42,15.67a3.61,3.61,0,0,0,1.06.29,8.93,8.93,0,0,0,1.4.12q3.38,0,3.89-3L110.63,8c.05-.3-.08-.44-.38-.44h-1.46a.48.48,0,0,0-.45.33l-.16.38a1.41,1.41,0,0,0-.67-.62,2.4,2.4,0,0,0-1-.22c-1.54,0-2.48,1-2.83,3a4.86,4.86,0,0,0-.07.82,2.13,2.13,0,0,0,.61,1.67,2.38,2.38,0,0,0,1.63.54,2.07,2.07,0,0,0,1.67-.78l-.06.3a1.51,1.51,0,0,1-.48.93,1.71,1.71,0,0,1-1.12.3,4.21,4.21,0,0,1-1.59-.31.42.42,0,0,0-.58.27l-.4,1A.39.39,0,0,0,103.42,15.67Zm3.33-4c-.42,0-.64-.26-.64-.79,0-.07,0-.23,0-.47.13-.83.45-1.25,1-1.25s.64.27.64.79a2.77,2.77,0,0,1,0,.46C107.58,11.28,107.25,11.7,106.75,11.7Z"/><path class="cls-2" d="M114,14.66a3.77,3.77,0,0,0,2.62-.91A4.47,4.47,0,0,0,118,11a5.3,5.3,0,0,0,.07-.85,2.7,2.7,0,0,0-.81-2.11A3.22,3.22,0,0,0,115,7.35a3.77,3.77,0,0,0-2.62.91A4.47,4.47,0,0,0,111.07,11a5.3,5.3,0,0,0-.07.85,2.7,2.7,0,0,0,.81,2.11A3.22,3.22,0,0,0,114,14.66ZM113.67,11a3,3,0,0,1,.41-1.25.81.81,0,0,1,.71-.39c.43,0,.65.3.65.88a4.8,4.8,0,0,1-.08.76,3.3,3.3,0,0,1-.41,1.25.83.83,0,0,1-.71.38c-.43,0-.65-.3-.65-.88A4.57,4.57,0,0,1,113.67,11Z"/><path class="cls-2" d="M123.85,7.35a2.5,2.5,0,0,0-2,1l-.06-.46c0-.22-.15-.33-.39-.33H119.9c-.26,0-.41.14-.46.44l-1,6.11c-.05.3.07.44.37.44h1.71c.27,0,.42-.14.47-.44l.58-3.45c.12-.7.44-1.06,1-1.06.35,0,.52.19.52.56a2.39,2.39,0,0,1,0,.44l-.58,3.51c0,.3.07.44.36.44h1.72a.43.43,0,0,0,.46-.44l.64-3.77a6.14,6.14,0,0,0,.11-1Q125.68,7.35,123.85,7.35Z"/><path class="cls-2" d="M83.68,15.25H82a.61.61,0,0,0-.52.26L79,18.94,77.7,15.51a.47.47,0,0,0-.49-.26h-1.6c-.27,0-.44.16-.49.47L73.74,24c0,.31.07.46.38.46h1.69a.49.49,0,0,0,.51-.46l.7-4.21,1.11,2.78a.29.29,0,0,0,.29.2.4.4,0,0,0,.34-.2l2-2.78L80.11,24c0,.31.07.46.38.46h1.7a.48.48,0,0,0,.5-.46l1.38-8.24C84.12,15.41,84,15.25,83.68,15.25Z"/><path class="cls-2" d="M88.15,17.27a3.81,3.81,0,0,0-2.62.91,4.47,4.47,0,0,0-1.32,2.71,5.3,5.3,0,0,0-.07.85A2.7,2.7,0,0,0,85,23.85a3.17,3.17,0,0,0,2.21.73,3.77,3.77,0,0,0,2.62-.91A4.44,4.44,0,0,0,91.1,21a5.51,5.51,0,0,0,.07-.86,2.66,2.66,0,0,0-.81-2.1A3.17,3.17,0,0,0,88.15,17.27Zm.35,3.66a3.13,3.13,0,0,1-.41,1.25.82.82,0,0,1-.71.38c-.43,0-.65-.3-.65-.88a4.57,4.57,0,0,1,.08-.75,3,3,0,0,1,.41-1.25.81.81,0,0,1,.71-.39c.43,0,.65.3.65.88A4.8,4.8,0,0,1,88.5,20.93Z"/><path class="cls-2" d="M96.33,17.74h-1l.25-1.53a.3.3,0,0,0-.07-.29.4.4,0,0,0-.31-.1h-1.6a.43.43,0,0,0-.47.39l-.27,1.53h-.43c-.25,0-.41.15-.47.44l-.16,1c0,.29.07.44.36.44h.38l-.44,2.54a3.92,3.92,0,0,0-.06.71,1.48,1.48,0,0,0,.52,1.29,2.55,2.55,0,0,0,1.55.38,5.05,5.05,0,0,0,1.08-.11,1,1,0,0,0,.34-.15.53.53,0,0,0,.14-.31l.19-1c0-.27-.06-.4-.28-.4h-.26a1,1,0,0,1-.2,0,.41.41,0,0,1-.49-.57l.39-2.38h1a.45.45,0,0,0,.48-.44l.16-1C96.75,17.89,96.63,17.74,96.33,17.74Z"/><path class="cls-2" d="M100.83,17.27a3.81,3.81,0,0,0-2.62.91,4.47,4.47,0,0,0-1.32,2.71,5.3,5.3,0,0,0-.07.85,2.7,2.7,0,0,0,.81,2.11,3.17,3.17,0,0,0,2.21.73,3.77,3.77,0,0,0,2.62-.91,4.44,4.44,0,0,0,1.32-2.7,5.51,5.51,0,0,0,.07-.86A2.66,2.66,0,0,0,103,18,3.17,3.17,0,0,0,100.83,17.27Zm.35,3.66a3.13,3.13,0,0,1-.41,1.25.82.82,0,0,1-.7.38c-.44,0-.66-.3-.66-.88a4.57,4.57,0,0,1,.08-.75,3.17,3.17,0,0,1,.41-1.25.82.82,0,0,1,.71-.39c.43,0,.65.3.65.88A4.8,4.8,0,0,1,101.18,20.93Z"/><path class="cls-2" d="M109.66,19.5l.29-1.76q.08-.42-.33-.42a2.06,2.06,0,0,0-1.13.35,2.87,2.87,0,0,0-.85.81l0-.68c0-.25-.14-.37-.38-.37h-1.51c-.26,0-.41.15-.46.44l-1,6.11c0,.3.08.44.38.44h1.72c.25,0,.4-.14.45-.44l.5-2.95a1.45,1.45,0,0,1,.46-.89,1.42,1.42,0,0,1,1-.33l.28,0,.26,0A.38.38,0,0,0,109.66,19.5Z"/><path class="cls-2" d="M114.83,21a3.63,3.63,0,0,0-1.25-.78c-.55-.22-.82-.44-.82-.65s.26-.4.77-.4a4,4,0,0,1,1.15.17.45.45,0,0,0,.58-.29l.37-.85a.38.38,0,0,0-.18-.56,5.14,5.14,0,0,0-2.1-.35,5.05,5.05,0,0,0-1.22.14,3.15,3.15,0,0,0-1,.42,1.89,1.89,0,0,0-.67.78,2.73,2.73,0,0,0-.24,1.18,1.94,1.94,0,0,0,.15.78,1.46,1.46,0,0,0,.44.57,2.54,2.54,0,0,0,.53.35,5.43,5.43,0,0,0,.61.25c.52.18.79.37.79.56s-.34.4-1,.4a3.77,3.77,0,0,1-1.22-.21.44.44,0,0,0-.58.29l-.38.85c-.11.27,0,.46.19.56a5.54,5.54,0,0,0,2.25.39c2.18,0,3.27-.8,3.27-2.41A1.65,1.65,0,0,0,114.83,21Z"/><path class="cls-2" d="M69,5.41,67.72,3.16A4.21,4.21,0,0,0,64,.92H53.83a4.22,4.22,0,0,0-3.69,2.24L48.91,5.41,45,12.47A4.69,4.69,0,0,0,45,17l3.77,6.89,1.33,2.43a4.24,4.24,0,0,0,3.69,2.24H64a4.23,4.23,0,0,0,3.68-2.24l1.33-2.43L72.83,17a4.69,4.69,0,0,0,0-4.48ZM71,17l-3.48,6.34h0l-.71,1.31a4.24,4.24,0,0,1-3.69,2.24H54.74a4.23,4.23,0,0,1-3.68-2.24l-.72-1.31L46.87,17a4.69,4.69,0,0,1,0-4.48l3.47-6.34.72-1.3a4.21,4.21,0,0,1,3.68-2.24h8.38a4.22,4.22,0,0,1,3.69,2.24l.71,1.3L71,12.47A4.69,4.69,0,0,1,71,17Z"/><path class="cls-2" d="M68.11,9.84h-2a.73.73,0,0,0-.63.32l-3,4.21-1.62-4.21a.57.57,0,0,0-.6-.32H58.24a.55.55,0,0,0-.5.26,3.45,3.45,0,0,1,1,.49,2.77,2.77,0,0,1,1,2.41,7.71,7.71,0,0,1-.07,1,6.87,6.87,0,0,1-.14.71h0a4.24,4.24,0,0,1-1.44,2.45,4.19,4.19,0,0,1-1.5.72,4.22,4.22,0,0,0,1.25-.65A4.79,4.79,0,0,0,59.53,14a7.85,7.85,0,0,0,.07-1,2.86,2.86,0,0,0-1.07-2.48A3.87,3.87,0,0,0,57.47,10a7.15,7.15,0,0,0-2-.25H51.8a.65.65,0,0,0-.69.64L49.42,20.5a.6.6,0,0,0,.1.5.58.58,0,0,0,.47.17h2.15a.69.69,0,0,0,.48-.15.94.94,0,0,0,.2-.51l.4-2.32h1.15A8.36,8.36,0,0,0,56.09,18l.28-.07-.43,2.56c-.07.38.09.57.47.57h2.07c.34,0,.54-.19.61-.57L60,15.35l1.35,3.41a.37.37,0,0,0,.36.24.49.49,0,0,0,.42-.24l2.5-3.41-.84,5.16c-.07.38.08.57.46.57h2.08c.34,0,.54-.19.61-.57l1.69-10.1a.46.46,0,0,0-.13-.48A.58.58,0,0,0,68.11,9.84ZM54.65,15.15h-.92l.4-2.36h.95a1.37,1.37,0,0,1,.8.18.66.66,0,0,1,.23.57,2.37,2.37,0,0,1,0,.42,1.4,1.4,0,0,1-.42.92A1.54,1.54,0,0,1,54.65,15.15Z"/><polygon class="cls-2" points="116.64 24.45 124.73 16.55 124.73 14.89 114.94 24.45 116.64 24.45"/><polygon class="cls-2" points="120.04 24.45 124.73 19.87 124.73 18.21 118.34 24.45 120.04 24.45"/><polygon class="cls-2" points="123.45 24.45 124.73 23.2 124.73 21.53 121.75 24.45 123.45 24.45"/></svg>