<svg id="Layer_1" data-name="Layer 1" xmlns="http://www.w3.org/2000/svg" viewBox="0 0 174 32"><defs><style>.cls-1{fill:#fff;}.cls-2{fill:#191919;}.cls-3{fill:#a8a8a8;}</style></defs><rect class="cls-1" width="174" height="32"/><g id="a"><path class="cls-2" d="M67.66,16.27c0,.53.15,1.06.16,1.6a12.21,12.21,0,0,1-5.3,10.92,12.39,12.39,0,0,1-4.87,2.1,12.16,12.16,0,0,1-5.3-.18,12.29,12.29,0,0,1-7.94-6.16,11.63,11.63,0,0,1-1.51-6.73,10.09,10.09,0,0,1,.33-2c.06-.23.06-.23.3-.17l.57.13,0,0c0,.06,0,.11,0,.17a12.87,12.87,0,0,0,1.5,3.76,12.13,12.13,0,0,0,5.17,4.86A26.89,26.89,0,0,0,55.54,26c.12,0,.17,0,.19-.14a6.12,6.12,0,0,0,.2-.87L56,25a6.21,6.21,0,0,0,2.54-.81,6.29,6.29,0,0,0,3.12-6.91,6.42,6.42,0,0,0-4.78-4.89c-.66-.18-1.33-.33-2-.51-.37-.1-.34,0-.25-.4.17-.67.35-1.33.52-2,.2-.82.44-1.64.61-2.47l0,0h.34a6.45,6.45,0,0,1,6.64,6.24,6.4,6.4,0,0,1-.15,1.51c-.05.23,0,.24.2.3l4.77,1.21Z"/><path class="cls-2" d="M44.13,15.78l0,0a11.39,11.39,0,0,1-.2-2.47A12.16,12.16,0,0,1,49.76,2.85,12.48,12.48,0,0,1,54,1.14a12.08,12.08,0,0,1,5.76.24,12.38,12.38,0,0,1,8,6.74,11.58,11.58,0,0,1,1.15,6.26,10.89,10.89,0,0,1-.31,1.87c-.05.18-.11.21-.29.15a5.07,5.07,0,0,0-.56-.13l-.06,0,0-.24a12.92,12.92,0,0,0-2-4.5A11.86,11.86,0,0,0,60.86,7.4a14.92,14.92,0,0,0-3-1L56.3,6c-.23,0-.25,0-.31.18A4.54,4.54,0,0,0,55.8,7l0,0-.34,0a6.86,6.86,0,0,0-2.58,1A6.3,6.3,0,0,0,50,14.48a6.37,6.37,0,0,0,4.7,5.09c.73.21,1.47.38,2.2.57.25.06.26.07.19.32-.2.8-.41,1.6-.61,2.4S56.12,24.27,56,25l-.06,0c-.49,0-1,0-1.47-.07A6.41,6.41,0,0,1,49,17.83c0-.26.07-.51.11-.76A.24.24,0,0,0,49,17c-1.06-.28-2.13-.56-3.19-.82C45.22,16.05,44.69,15.87,44.13,15.78Z"/><path class="cls-2" d="M120.89,13.52V7a1.94,1.94,0,0,1,0-.48A1.09,1.09,0,0,1,122,5.7h8a1.1,1.1,0,0,1,1.11,1.09,1.08,1.08,0,0,1-1,1.17h-6.76c-.26,0-.26,0-.26.27v3.17c0,.28,0,.28.29.28h5.52a1.71,1.71,0,0,1,.45,0,1.14,1.14,0,0,1,.86,1.18,1.12,1.12,0,0,1-1,1.06h-5.91c-.13,0-.19,0-.18.18v4.62c0,.24,0,.24.32.24h6.35a1.69,1.69,0,0,1,.55.06,1.15,1.15,0,0,1,.77,1.31,1.06,1.06,0,0,1-1.05.91h-7.91a1.77,1.77,0,0,1-.51-.05,1,1,0,0,1-.76-1c0-.12,0-.25,0-.38Z"/><path class="cls-2" d="M100.87,5.7h.76a1,1,0,0,1,1,.75c.64,1.84,1.27,3.69,1.91,5.53q1.34,3.89,2.69,7.75a1.18,1.18,0,0,1,.08.67,1.16,1.16,0,0,1-.92.88,1.1,1.1,0,0,1-1.13-.49,1.93,1.93,0,0,1-.2-.44l-1.23-3.48c-.1-.27-.1-.28-.38-.28H98.27c-.32,0-.28,0-.4.3-.39,1.15-.8,2.3-1.19,3.45a1.39,1.39,0,0,1-.58.75,1,1,0,0,1-1.22,0,1.06,1.06,0,0,1-.45-1.14c.14-.48.31-.94.47-1.41L99,6.78l.1-.3a1.12,1.12,0,0,1,1.17-.78Zm0,2.64h-.07l-2.08,6H103Z"/><path class="cls-2" d="M83.82,13.52c0-2.21,0-4.42,0-6.62a1.2,1.2,0,0,1,.88-1.18,2.07,2.07,0,0,1,.35,0h4.52a4.89,4.89,0,0,1,4.61,3.73,4.82,4.82,0,0,1-3.6,5.78l-.29.06a5.54,5.54,0,0,1-1,.07H86.42c-.31,0-.31,0-.31.33V20c0,.13,0,.25,0,.38a1.08,1.08,0,0,1-1.23.86,1.07,1.07,0,0,1-1-1c0-.12,0-.25,0-.38Zm2.28-3v2.27c0,.29,0,.29.29.29h3.06a2.71,2.71,0,0,0,.41,0A2.54,2.54,0,0,0,92,10.27,2.57,2.57,0,0,0,89.52,8H86.38c-.27,0-.28,0-.28.29Z"/><path class="cls-2" d="M74.92,21.29H72.09a1,1,0,0,1-1-.66,1.13,1.13,0,0,1,.15-1.21A1,1,0,0,1,72,19h.34c1.76,0,3.52,0,5.28,0a1.11,1.11,0,0,0,1.12-1.1V17.8a1.25,1.25,0,0,0-.45-.82l-1.48-1.3c-1.53-1.35-3.06-2.69-4.57-4a3.37,3.37,0,0,1,2.2-5.93H79.9a1.13,1.13,0,0,1,1.23,1,1.21,1.21,0,0,1-.09.53,1,1,0,0,1-.89.71H74.59a1.24,1.24,0,0,0-.57.08,1.1,1.1,0,0,0-.63,1.43,1,1,0,0,0,.31.44l5.07,4.47,1.08,1a3.23,3.23,0,0,1,1,3.51,3.29,3.29,0,0,1-2.79,2.4,3.91,3.91,0,0,1-.49,0Z"/><path class="cls-2" d="M109,13.49c0-.73,0-1.47,0-2.21a5.75,5.75,0,0,1,4.87-5.52,9.55,9.55,0,0,1,1.2-.07h2.31a1.11,1.11,0,0,1,1,.82A1.13,1.13,0,0,1,118,7.77a1.42,1.42,0,0,1-.72.2c-.82,0-1.64,0-2.45,0a3.5,3.5,0,0,0-3.52,3,2.43,2.43,0,0,0,0,.38c0,1.44,0,2.87,0,4.31a3.49,3.49,0,0,0,2.55,3.23,4.06,4.06,0,0,0,.92.11h2.55a1.14,1.14,0,0,1,1.13,1.49,1,1,0,0,1-1,.78h-1.86a12.53,12.53,0,0,1-1.62-.05,5.74,5.74,0,0,1-4.76-4.41,4.87,4.87,0,0,1-.14-1.26V13.49Z"/><path class="cls-2" d="M87.83,24.4c-.12.05-.16.16-.22.25-.22.34-.43.68-.65,1s-.29.26-.47,0-.5-.69-.75-1c-.07-.09-.11-.2-.24-.25s-.06.19-.06.28c0,.81,0,1.63,0,2.45a2.45,2.45,0,0,1,0,.27.17.17,0,0,1-.21.14.17.17,0,0,1-.17-.14,1.94,1.94,0,0,1,0-.24v-3c0-.14,0-.33.17-.36s.39-.08.53.13.51.71.77,1.06c.07.09.11.2.22.25s.13-.13.18-.21l.66-1a.39.39,0,0,1,.26-.21c.37-.05.48,0,.48.42,0,1,0,2,0,3,0,.28-.07.4-.22.39s-.19-.11-.19-.39V24.74A.51.51,0,0,0,87.83,24.4Z"/><path class="cls-2" d="M81.33,25.24c.25-.4.53-.8.77-1.21a.48.48,0,0,1,.54-.26.21.21,0,0,1,.22.21h0v3.38a.19.19,0,0,1-.19.17h0a.19.19,0,0,1-.2-.16,2.45,2.45,0,0,1,0-.27V24.39c-.12,0-.13.07-.17.13-.25.37-.48.75-.73,1.13s-.3.27-.49,0l-.83-1.15c0-.06-.08-.14-.19-.17a.57.57,0,0,0,0,.26v2.55c0,.27-.08.41-.23.38s-.18-.24-.18-.39v-3c0-.15,0-.33.17-.36s.38-.07.53.13.49.7.74,1C81.13,25.06,81.18,25.18,81.33,25.24Z"/><path class="cls-2" d="M104.4,26.94V24.21a1.23,1.23,0,0,1,0-.27.18.18,0,0,1,.19-.16.19.19,0,0,1,.19.17,2.44,2.44,0,0,1,0,.27c0,.94,0,1.89,0,2.83,0,.18.1.41-.18.49s-.45,0-.62-.33l-1.26-2.49a.64.64,0,0,0-.21-.32c0,.11,0,.19,0,.27v2.49c0,.27,0,.36-.19.38s-.22-.09-.22-.39c0-1,0-2,0-3,0-.39.07-.44.52-.4.15,0,.19.15.24.26l1.31,2.58A.66.66,0,0,0,104.4,26.94Z"/><path class="cls-2" d="M106.9,25.65V24.14c0-.32,0-.36.35-.37h.9A1.36,1.36,0,0,1,109.49,25a8.55,8.55,0,0,1,0,1.24,1.35,1.35,0,0,1-1.32,1.26c-.32,0-.64,0-1,0s-.29-.06-.3-.32Zm.4,0v1.24c0,.25,0,.25.26.25s.41,0,.62,0a1,1,0,0,0,.91-.94c0-.34,0-.67,0-1a1,1,0,0,0-1-1c-.19,0-.39,0-.58,0s-.25,0-.24.23c0,.4,0,.8,0,1.2Z"/><path class="cls-2" d="M74.86,25.66c0-.19,0-.37,0-.56a1.37,1.37,0,0,1,1.32-1.33A1.35,1.35,0,0,1,77.58,25a8.55,8.55,0,0,1,0,1.24,1.35,1.35,0,0,1-1.37,1.27,1.39,1.39,0,0,1-1.36-1.34C74.85,26,74.86,25.84,74.86,25.66Zm.41-.05h0c0,.21,0,.42,0,.62a1,1,0,0,0,1.91,0c0-.36,0-.71,0-1.07a1,1,0,0,0-1.92,0c0,.16,0,.32,0,.48Z"/><path class="cls-2" d="M100.32,27.33a.2.2,0,0,1-.16.21.17.17,0,0,1-.22-.12c-.09-.21-.16-.43-.24-.64-.16-.46-.07-.4-.57-.4h-.9a.28.28,0,0,0-.32.22h0c0,.18-.13.37-.19.55s0,.11,0,.16-.13.28-.3.22-.14-.2-.09-.35c.18-.52.36-1,.53-1.56l.54-1.56a.51.51,0,0,1,.68-.27h0a.28.28,0,0,1,.11.17l1.14,3.28S100.31,27.3,100.32,27.33ZM98.12,26c.46,0,.87,0,1.31,0l-.62-1.75h-.07Z"/><path class="cls-2" d="M91.69,23.77h.69c.15,0,.26.06.26.22s-.12.2-.27.2H91.13a.42.42,0,0,0-.42.24.37.37,0,0,0,.16.45l1,.91.46.42a.74.74,0,0,1,.22.79.7.7,0,0,1-.62.53c-.49,0-1,0-1.48,0a.2.2,0,0,1-.22-.18,0,0,0,0,1,0,0c0-.14.09-.2.22-.21h1.31a.34.34,0,0,0,.38-.23.36.36,0,0,0-.14-.43l-.15-.14-1.19-1a1.8,1.8,0,0,1-.2-.19.74.74,0,0,1-.17-.8.72.72,0,0,1,.68-.49c.23,0,.46,0,.69,0Z"/><path class="cls-2" d="M122.19,27c.29-.79.57-1.55.84-2.3.08-.22.15-.43.24-.65a.81.81,0,0,1,.1-.21.18.18,0,0,1,.25,0,.16.16,0,0,1,.09.2l-.06.2-1.09,3c-.1.28-.14.31-.38.32s-.29,0-.38-.26c-.37-1-.74-2.08-1.12-3.11l0-.13a.2.2,0,0,1,.14-.25.19.19,0,0,1,.23.1,1.09,1.09,0,0,1,.1.25l.93,2.56A.75.75,0,0,0,122.19,27Z"/><path class="cls-2" d="M71,25.65v-.52a1.36,1.36,0,0,1,1.35-1.36H73c.15,0,.26.06.26.22s-.12.2-.26.2h-.52a1,1,0,0,0-1,.9v1.05a.92.92,0,0,0,.87,1h.08c.18,0,.37,0,.55,0s.28,0,.3.21-.08.22-.28.22a3.52,3.52,0,0,1-.86,0A1.35,1.35,0,0,1,71,26.23v-.59Z"/><path class="cls-2" d="M115.94,23.78c.13,0,.27,0,.41,0a.19.19,0,0,1,.19.19v0a.19.19,0,0,1-.17.2h-.58a1,1,0,0,0-1.05.91.65.65,0,0,0,0,.14c0,.3,0,.6,0,.9a.92.92,0,0,0,.87,1h.63c.15,0,.28,0,.3.2s-.08.22-.28.23a4.1,4.1,0,0,1-.86,0,1.33,1.33,0,0,1-1.06-1.28c0-.34,0-.69,0-1a1.38,1.38,0,0,1,1.32-1.43h.29Z"/><path class="cls-2" d="M128.3,25.67V24.15c0-.26.06-.37.2-.37s.21.1.21.36c0,.54,0,1.08,0,1.62v.9c0,.47-.06.45.48.45h1.27a.21.21,0,0,1,.22.21h0c0,.14-.1.19-.23.21h-1.82c-.28,0-.33-.06-.33-.33C128.29,26.71,128.3,26.19,128.3,25.67Z"/><path class="cls-2" d="M125.73,25.63V24.19a1.93,1.93,0,0,1,0-.24.19.19,0,0,1,.19-.17.19.19,0,0,1,.2.15,1.93,1.93,0,0,1,0,.24v3c0,.27-.06.37-.2.38s-.21-.1-.21-.36Z"/><path class="cls-2" d="M118.84,25.66v1.48a1.93,1.93,0,0,1,0,.24.16.16,0,0,1-.16.15.17.17,0,0,1-.2-.13h0a1.24,1.24,0,0,1,0-.27V24.19a1.24,1.24,0,0,1,0-.27.18.18,0,0,1,.2-.14h0a.17.17,0,0,1,.15.16,1,1,0,0,1,0,.24C118.85,24.67,118.85,25.17,118.84,25.66Z"/><path class="cls-3" d="M55.8,7a4.24,4.24,0,0,1,.19-.8c.06-.23.09-.24.31-.19l1.57.4a15,15,0,0,1,3,1,11.8,11.8,0,0,1,4.71,4.09,12.92,12.92,0,0,1,2,4.5l0,.24L62.83,15c-.24-.06-.25-.07-.2-.3a6.4,6.4,0,0,0,.15-1.51A6.45,6.45,0,0,0,56.14,7Z"/><path class="cls-3" d="M44.13,15.78c.56.09,1.09.27,1.64.4,1.06.26,2.13.54,3.19.82a.24.24,0,0,1,.17.07c0,.25-.08.5-.11.76A6.41,6.41,0,0,0,54.46,25c.49.08,1,0,1.47.07a6.45,6.45,0,0,1-.2.87c0,.11-.07.17-.19.14a26.89,26.89,0,0,1-4.72-1.47,12.13,12.13,0,0,1-5.17-4.86A12.87,12.87,0,0,1,44.15,16C44.14,15.89,44.14,15.84,44.13,15.78Z"/></g></svg>