<svg id="Layer_1" data-name="Layer 1" xmlns="http://www.w3.org/2000/svg" viewBox="0 0 174 32"><defs><style>.cls-1{fill:#fff;}.cls-2{fill:#191919;}</style></defs><rect class="cls-1" width="174" height="32"/><g id="a"><path class="cls-2" d="M104.32,25.83a12.65,12.65,0,0,0-3.18.21c-1.12.28-1.17.74-1.28,1.57a11,11,0,0,1-.1,1.39,1.35,1.35,0,0,1-.59.83,2.88,2.88,0,0,1-1.26.37,1,1,0,0,1-1.12-.8,9.73,9.73,0,0,1-.42-2.57A64.85,64.85,0,0,1,96.14,20a4.57,4.57,0,0,1,.4-1.86,1,1,0,0,1,.87-.61,4.48,4.48,0,0,1,1.67.1.87.87,0,0,1,.65.64,5.26,5.26,0,0,1,.24,1.47c0,.4,0,.8,0,1.21,0,1.26.5,1.68,1.5,1.88a11,11,0,0,0,4.64.06A2,2,0,0,0,107.72,21c.14-1.12.24-2.24.34-3.37a1.9,1.9,0,0,1,2-1.78,2,2,0,0,1,1,.37,1.11,1.11,0,0,1,.47.69,13.25,13.25,0,0,1,.12,4.35c-.07.63-.06,1.26-.1,1.89q-.15,2.73-.57,5.45a5.86,5.86,0,0,1-.42,1.41c-.37.81-.91,1-2,.83-.63-.13-1-.65-1-1.45a11.68,11.68,0,0,0-.08-2.21,1.46,1.46,0,0,0-1-1.15A6.5,6.5,0,0,0,104.32,25.83Z"/><path class="cls-2" d="M88.37,24.2A7.12,7.12,0,0,0,88.69,27a5,5,0,0,0,.23.53.89.89,0,0,0,1.63,0,8.52,8.52,0,0,0,.4-.8,1.49,1.49,0,0,1,2-1.06,5.25,5.25,0,0,1,1.1.36,1.18,1.18,0,0,1,.55,1.3A5,5,0,0,1,89.94,31c-2.42.06-4-1.17-5.26-3a6.49,6.49,0,0,1-1.22-3.5,7,7,0,0,1,.56-3,9.06,9.06,0,0,1,2.22-3.47,5.05,5.05,0,0,1,4.2-1.13,6.47,6.47,0,0,1,1.51.27,4.83,4.83,0,0,1,2.78,2.28,2.08,2.08,0,0,1-1.87,3.29c-1.31.07-1.45-.22-1.74-1.25a4.29,4.29,0,0,0-.14-.62c-.17-.39-.33-.83-.85-.85a1.22,1.22,0,0,0-1.14.73,5.63,5.63,0,0,0-.62,2.45C88.35,23.54,88.37,23.87,88.37,24.2Z"/><path class="cls-2" d="M63.5,20.58h-.71c-.93,0-1-.07-1.23-1a1.31,1.31,0,0,1,1-1.83,11.05,11.05,0,0,1,2.67-.45c2.49-.2,5-.33,7.48-.31a4.68,4.68,0,0,1,1.17.14c.82.22,1.06.54,1,1.2a1.35,1.35,0,0,1-1.38,1.5c-.62,0-1.24.13-1.86.2s-1,.57-1.22,1.13a7.84,7.84,0,0,0-.35,2c-.15,1.38,0,2.76-.12,4.13A16.51,16.51,0,0,1,69.67,30c-.28,1.15-.89,1.15-1.92.91S66.62,29.8,66.5,29c-.18-1.1-.19-2.22-.26-3.33a16.46,16.46,0,0,0-.41-3.83c-.28-.95-.78-1.37-1.73-1.28C63.9,20.59,63.7,20.58,63.5,20.58Z"/><path class="cls-2" d="M75,23c0-.87,0-1.75,0-2.62a6.45,6.45,0,0,1,.59-2.68,1.86,1.86,0,0,1,1.58-1.06,14.75,14.75,0,0,1,5,.53A1.09,1.09,0,0,1,83,18.46c0,.84-.31,1.08-1,1.26a7.71,7.71,0,0,1-1.66.09,1.32,1.32,0,0,0-1.23,2,.57.57,0,0,0,.54.29,6.72,6.72,0,0,1,1.61.08c.78.24,1,.47,1,1.21a1.26,1.26,0,0,1-1,1.33c-.54.16-1.1.06-1.64.2s-.65.26-.7.67c0,.14-.09.27-.11.41-.15,1.08.18,1.45,1.28,1.45h1.8c.72,0,1,.25,1,1,0,1.16-.41,1.59-1.78,1.65a19.61,19.61,0,0,1-2.76.12A3,3,0,0,1,76,29.35a3.92,3.92,0,0,1-.73-1.79A23.75,23.75,0,0,1,75,23Z"/><path class="cls-2" d="M65,5.36l-.77,1a2.56,2.56,0,0,1-.2.26c-.25.21-.54.49-.86.32S62.94,6.34,63,6a16.16,16.16,0,0,1,2.65-4.81.52.52,0,0,1,.72-.14h0a2.17,2.17,0,0,1,1,1C68,3.34,68.6,4.58,69.17,5.82c.14.29.35.7.09.91s-.64-.1-.91-.29a2.23,2.23,0,0,1-.67-.85c-.22-.41-.44-.83-.7-1.23.1,1.75.2,3.48.16,5.22a10.08,10.08,0,0,1-.56,3.21,2.62,2.62,0,0,1-2.1,1.92c-2,.33-3.05-.46-3.35-2.46a27.24,27.24,0,0,1-.08-4.14c0-.07,0-.18,0-.21a2.2,2.2,0,0,1,1.57-.2c.4,0,.43.41.4.72A20.72,20.72,0,0,0,63,11.26a4.07,4.07,0,0,0,.31,1.54c.13.28.29.54.62.55s.47-.32.56-.59a10.56,10.56,0,0,0,.32-2.37c.08-.84,0-1.68.11-2.51s.13-1.66.18-2.5Z"/><path class="cls-2" d="M107.2,7.08a7.67,7.67,0,0,1,2.39.16,4.41,4.41,0,0,1,3.2,2.86A3.07,3.07,0,0,1,111.16,14a11.09,11.09,0,0,1-4.42,1.07,1.86,1.86,0,0,1-2.2-1.79,17.05,17.05,0,0,1-.22-4.89c.12-.95.42-1.23,1.36-1.34A11,11,0,0,1,107.2,7.08Zm-.57,3.66a3.66,3.66,0,0,0,.26,1.7,1.39,1.39,0,0,0,1.83.83,4.46,4.46,0,0,0,1.29-.69,1.79,1.79,0,0,0,.78-1.7c-.06-1.08-.84-1.5-1.68-1.86-1.45-.63-2.41,0-2.48,1.55v.17Z"/><path class="cls-2" d="M89.79,11.22a4.27,4.27,0,0,0,.15,1.51c.09.29.18.62.57.65s.56-.25.7-.57c.37-.8.65-.93,1.44-.71s.87.6.58,1.21A2.91,2.91,0,0,1,90.86,15c-2.29.32-4.39-2.64-3.64-4.79A9.57,9.57,0,0,1,88,8.44c1.1-1.92,4.19-1.69,5.27,0a1.17,1.17,0,0,1,.09,1.42,1.47,1.47,0,0,1-1.53.49.57.57,0,0,1-.4-.41c-.06-.17-.09-.35-.14-.52s-.17-.49-.48-.53a.7.7,0,0,0-.72.39,3.18,3.18,0,0,0-.34,1.48C89.78,10.9,89.79,11.08,89.79,11.22Z"/><path class="cls-2" d="M76.6,11.13a6.75,6.75,0,0,0,.16,1.55c.1.32.18.66.59.7s.56-.27.7-.58c.36-.77.62-.9,1.39-.71s.9.62.6,1.28a3,3,0,0,1-4,1.36,2.83,2.83,0,0,1-.59-.38c-2.44-2.12-1.78-4.77,0-6.57,1.21-1.25,3.8-.81,4.72.66a1.25,1.25,0,0,1,0,1.48,1.6,1.6,0,0,1-1.52.37c-.33-.13-.36-.44-.43-.71s-.15-.71-.6-.73-.63.3-.77.65a2.38,2.38,0,0,0-.15.52C76.65,10.42,76.63,10.82,76.6,11.13Z"/><path class="cls-2" d="M69.8,7.24a6.4,6.4,0,0,1,1.69.13,2.54,2.54,0,0,1,2.1,2.78,2.67,2.67,0,0,1-2.35,2.55c-.94.17-.94.17-.94,1.14,0,.51.06,1-.64,1.2s-1.11,0-1.34-.77A13.87,13.87,0,0,1,68,11.63c-.08-1-.14-1.93-.14-2.89,0-1.27.23-1.49,1.5-1.5ZM70.22,10a4,4,0,0,0,.17,1.33c.15.41.39.45.68.14a2.1,2.1,0,0,0,0-2.34.52.52,0,0,0-.46-.25c-.21,0-.27.24-.3.41s-.09.57-.11.7Z"/><path class="cls-2" d="M84.63,11.93l-.24.09c-1.73.78-3,.09-3.34-1.79a7,7,0,0,1,0-2.23.79.79,0,0,1,.83-.76H82c1.34-.08,1.48.08,1.21,1.38A4.78,4.78,0,0,0,83,10.08c0,.31,0,.66.39.76a.8.8,0,0,0,.86-.33A3.34,3.34,0,0,0,85,8.6c0-.18,0-.36,0-.55,0-.79.11-.9.73-1s1,.1,1.06.85a13.79,13.79,0,0,1-.12,3.27,7.71,7.71,0,0,1-.6,2.59,2.4,2.4,0,0,1-3.23,1,2.49,2.49,0,0,1-.3-.19c-.35-.28-.36-.67-.08-1.18s.48-.17.74-.07a.86.86,0,0,0,1.27-.53A1.93,1.93,0,0,0,84.63,11.93Z"/><path class="cls-2" d="M101.09,14.56c-.17,0-.4,0-.64,0a1.32,1.32,0,0,1-1.34-1.07,6.67,6.67,0,0,1-.24-1.89A18.44,18.44,0,0,1,99,8.27c.17-1,.58-1.34,1.55-1.33a9.31,9.31,0,0,1,2.16.26.71.71,0,0,1,.63.86c-.06.49-.38.61-.81.61a6.33,6.33,0,0,0-.76.05c-.59.08-.74.28-.69.87a.46.46,0,0,0,.42.49h.1a5.58,5.58,0,0,1,.71,0,.6.6,0,0,1,.62.57.66.66,0,0,1-.47.77,5.59,5.59,0,0,1-.91.16c-.61,0-.57.48-.6.91s.27.6.65.61.62,0,.93,0,.7.07.72.54a.71.71,0,0,1-.56.83h0A6.13,6.13,0,0,1,101.09,14.56Z"/><path class="cls-2" d="M94.21,10.74a11.52,11.52,0,0,1,.16-2.69c.16-.72.51-.93,1.28-.85s.91.35.92,1.06c0,.88,0,1.75-.06,2.62,0,.2,0,.4,0,.6,0,1,.18,1.15,1.2,1,.8-.13,1.08.24.79,1a1.42,1.42,0,0,1-.53.68,3.61,3.61,0,0,1-2.39.58,1.16,1.16,0,0,1-1.07-.94A17.76,17.76,0,0,1,94.21,10.74Z"/></g></svg>