<svg id="Layer_1" data-name="Layer 1" xmlns="http://www.w3.org/2000/svg" viewBox="0 0 174 32"><defs><style>.cls-1{fill:#fff;}.cls-2{fill:#191919;}</style></defs><rect class="cls-1" width="174" height="32"/><path class="cls-2" d="M65.27,18.14a8.32,8.32,0,0,1-1.49-.75c.31-.52,1-.52,1.32-.9-.2-.44-.95-.4-.95-.87s.74-.44.86-.92c-1.21-.47-1.21-.47-.33-1.41,0,0,.06-.14.09-.23l-1.08-.42c.09-.55.7-.79.75-1.37-1.7.11-.31-1-.67-1.5-.21-.15-.53.17-.83.05.09-.33.45-.42.44-.74-.23-.2-.55.11-.75-.19l1.81-3c-.63.36-.88.86-1.5,1.06l.21-.54c-.63,0-1,.75-1.68.5a15,15,0,0,0,.87-2.6l-1.7,2.19c.16-.69.25-1.13.37-1.68l-1,.63c0-1,.49-1.91.47-3-.75.6-1.08,1.44-1.81,2,0-.59.3-1.1.09-1.7L57.66,3.9V2l-1,1.56c-.09-.75-.16-1.35-.23-2-.35.48-.29,1-.65,1.41-.1-.5-.2-1-.29-1.49-.44.28-.35.88-.81,1.08-.1-.7-.19-1.35-.31-2.17-.33.75-.25,1.5-.75,2.24L53.17.39c-.39,1-.19,1.82-.57,2.61l-.74-1.87-.24,2.69A24,24,0,0,0,50.37.9c.14,1.17.25,2.15.37,3.13l-.13,0-.66-1-.15.05.2,2L48.74,3.65c-.13.6.15,1,.12,1.65L47,3.19l-.12.08,1.26,3.09L46.8,6.27c-.15.62.89.78.34,1.58-.43.63-.75,0-1.08.18.06.44.51.74.51,1.21h0l-.37,0h0a3.86,3.86,0,0,0-1.37-.58l.7.88h0c.86,1-.19,1.75-.3,2.62s-1,.32-1.43.82c.32.23.64.41.91.65.53.46.35.74-.65.91.27.56,1.13,1,.33,1.78,0,0,.06.15.1.22.34.49.54,1,0,1.44a.18.18,0,0,0-.07.23s0,0,.07.06c.91.62.55,1.15-.21,1.67.4.27.92.18,1,.7s-.66.48-.66.93c.33.31.85.11,1.18.47l-.75.9c1.31,0,1,.66.56,1.29.35.11.62-.23.89,0,0,.26-.45.63-.15.64.75,0,.24.37.16.52-.38.68-.81,1.34-1.22,2l.29.25,1.61-1.82.11.12-.75,1.49.11.05.8-.75c-.22.85-.79,1.44-.89,2.31L48,27.49c.29.28-.3.54,0,.8.28-.06.25-.51.59-.46.17.37-.25.64,0,1.11.12-.55.86-.27.91-.88,0-.08,0-.39.34-.26s.21.23.19.43c-.07.51-.1,1-.18,1.78l1-1.61c.08.66.14,1.16.2,1.74l.54-.61-.1,1c.27.07.2-.28.44-.3L52,31c.58-.4.41-1.21,1-1.61a5.29,5.29,0,0,0,.31,1.85l.61-1.3c.11.55.19,1,.33,1.63l.35-1.5c.52.41.38,1.18.95,1.5l.33-1.7c.48.49.42,1.23,1,1.64V29.23c.29.59.49,1,.71,1.44.4-.68,0-1.42.46-2.05l.68,1.44.21,0V27.69c.47.31.54.87,1.07,1.1a6.46,6.46,0,0,1-.17-2l3,3.25.16-.12-1.18-2.18c.27-.13.31.29.58.09a10.88,10.88,0,0,0-.74-1.49.73.73,0,0,1,.11-.94c.19-.3.4.15.6.26.37.21.7.49,1.06.74l.07-.09L62.14,24.5a2.71,2.71,0,0,1,2.07.14l-1.34-1.58c.47-.09.8.36,1.3.21L63,21.66h1.71c-.38-.58-.93-.95-1.15-1.54.44-.2.89,0,1.29-.24-.21-.48-.81-.56-1-1C64.25,18.51,64.88,18.61,65.27,18.14Zm-2.33-.75c0,.27-.07.55-.11.82A12,12,0,0,1,59,25.79a6.71,6.71,0,0,1-9.49-.07l-.1-.1a12.17,12.17,0,0,1-3.52-7.53,5.67,5.67,0,0,1-.15-1.16,19.47,19.47,0,0,1,1.17-6.54V10.1c.36-.16.42-.6.64-.9a16.18,16.18,0,0,1,2.1-2.5,6.72,6.72,0,0,1,8.21-1A9.1,9.1,0,0,1,59.65,7c.21.2.37.5.74.45,0,.39.25.65.43,1a15,15,0,0,1,2.08,6,5.74,5.74,0,0,0,.09.71,3.85,3.85,0,0,1-.05,2.23Z"/><path class="cls-2" d="M60.56,20.13a2.23,2.23,0,0,1-.83,1.06,4.21,4.21,0,0,1-1.49-.3c.46-.85-.49-.54-.7-.83l.14.49c-.75-.27-.68-.92-.82-1.49.14.12.2.35.44.29h0c-.3-1.28-.58-2.56-.87-3.85,0-.14-.12-.27-.16-.41-.09-.36.06-.86-.42-1s-.75.24-1,.75a4.54,4.54,0,0,1-.21-.45c-.11-.38-.31-1-.65-.85-.75.22-1.49-.24-2.16.15a.55.55,0,0,0-.19.76.05.05,0,0,0,0,0c.41.61.11.91-.43,1.15s-.31.74-.33,1.13c.42.64-.54.75-.48,1.27-.9.29-1.35,1.16-2.09,1.65a.64.64,0,0,0-.19.89.35.35,0,0,0,0,.08c.32.35.65,0,.84-.22.56-.68,1.5-1,1.92-1.77a.54.54,0,0,1,.72-.23l0,0c.67.32,1.58.26,1.88,1.2A.82.82,0,0,0,54,20c1.18.57,2.39,1.13,3.59,1.7a3,3,0,0,0,2.19-.41c.19-.07.34-.3.6-.17.12.87-.55.69-1,.75h0c.63.37.94,0,1.18-.5a.82.82,0,0,0,.16-1.15Zm-4.47-4.36a1,1,0,0,1,0,1.1A1,1,0,0,1,56.09,15.77ZM56,17.21c.57-.26.82-.08.68.54a4.38,4.38,0,0,0,.18,2.43c-.8-.41-1.4-.75-2-1a.64.64,0,0,1-.39-.75.61.61,0,0,1,.43-.68A9.67,9.67,0,0,0,56,17.21Zm-.88-2.33c.2-.14.2-.62.54-.5s0,.47.06.75a4.83,4.83,0,0,1-.38,1.76.64.64,0,0,1-.75.43c-.27,0-.46-.11-.55-.38s.11-.51.42-.64C55,16,54.6,15.22,55.11,14.88Zm-1,1.33.08-1.38a.94.94,0,0,1,0,1.33ZM51.92,14c.13-.34.47-.26.7-.16a.83.83,0,0,0,.75,0c.59-.31.8.06,1,.57-.65-.2-.84,0-.56.6.09.2.29.57-.05.7s-.3-.28-.45-.44a1.74,1.74,0,0,0-.92-.65.51.51,0,0,1-.43-.57.43.43,0,0,1,0-.05ZM53,16.74c-.45-.45-.17-1-.38-1.45.65.33.63.82.39,1.42Zm-.44,1.71A12.07,12.07,0,0,0,51.15,18c-.64.5-.9,1.49-1.87,1.56.21-.57.21-.57,1.16-1.31l.5-.46c.08-.46.51-.35.79-.46s.34-.2.33-.46,0-.36-.28-.36c-1.31,0-.57-.47-.25-.88.57,0,1.06.13,1,.9,0,.46.62.38.75.79.1.24.51.39.22.75s-.42.58-.92.36ZM57,21.09a29.37,29.37,0,0,0-2.76-1.35c-.51-.23-.71-.49-.32-1h-.48c.09-.37.54-.47.51-.94.35.44-.07.68,0,1h0a22.83,22.83,0,0,0,5,2.66A2.67,2.67,0,0,1,57,21.09Z"/><path class="cls-2" d="M57.53,20l-.24-.71C57,19.7,57.14,19.91,57.53,20Z"/><path class="cls-2" d="M58.24,22.92c-.32-.2-.66-.4-1-.14a3.08,3.08,0,0,1-2.62.57l-1.5.47h0a2.89,2.89,0,0,1-1.1-.35c-.25-.1-.57-.47-.79-.14s-.61.8-.28,1.23A1.14,1.14,0,0,1,51,25.81c-.1.25-.31.66.11.75s.84.2,1.11-.33c.55-1,.57-1,1.63-.41.8.45,1.57.65,2.28-.13.21-.22.37-.18.62,0,.63.36,1.12.1,1.34-.62a7.47,7.47,0,0,1,.27-1.33.56.56,0,0,0-.11-.79Zm-5.79,1.66c-.12.43-.27.86-.38,1.3a.45.45,0,0,1-.5.4l-.11,0c-.35-.11-.15-.43-.07-.61s.24-.65,0-.93a.76.76,0,0,1,0-1c.21-.37.43-.05.61,0a.63.63,0,0,1,.54.71A.74.74,0,0,1,52.45,24.58Zm2.91.86c0,.74-.43.51-.8.38-.58-.2-1.09-.57-1.7-.74-.38-.12-.26-.81.29-1,.44.13.82-.45,1.28-.15-.34.19-.54.49-.33.82s.49.13.75,0c.6-.43.9.22,1.39.33a.65.65,0,0,0-.85.32.16.16,0,0,0,0,.09Zm1.06-.87c-.41.06-.74-.26-1.08-.38s-.61.33-1,.33c-.16-.35.22-.4.28-.61h.5a4.08,4.08,0,0,0,1.15-.2c.48-.19.57.25.64.53C57.07,24.7,56.63,24.53,56.42,24.57Z"/><polygon class="cls-2" points="54.65 23.91 54.65 23.91 54.65 23.91 54.65 23.91"/><polygon class="cls-2" points="54.65 23.91 54.65 23.9 54.65 23.91 54.65 23.91"/><polygon class="cls-2" points="54.65 23.91 54.65 23.91 54.65 23.91 54.65 23.91"/><polygon class="cls-2" points="54.65 23.91 54.65 23.91 54.65 23.91 54.65 23.91"/><polygon class="cls-2" points="54.65 23.91 54.65 23.91 54.65 23.91 54.65 23.91"/><polygon class="cls-2" points="54.65 23.9 54.65 23.91 54.65 23.91 54.65 23.9"/><path class="cls-2" d="M59.55,18.52c-.42.2-.06.62-.26.89-.47-.15-.27-.5-.24-.81l.28-.23c.3-.63-.13-1.21-.12-1.81-.14-.8-.75-.21-1.07-.35l.17.7c-.65.9.11,1.74.14,2.61,0,.4.61.07.94.21.57.27.74,0,.87-.57S60,18.56,59.55,18.52Zm-1.08-.05a1.57,1.57,0,0,1,0-1.49h0c.17.06,0-.45.25-.17a1.49,1.49,0,0,1,.17,1.75C58.79,18.68,58.63,18.76,58.47,18.47Z"/><path class="cls-2" d="M57.87,9.42V9.1l-.33-.83c-.1-.27-.21-.57-.48-.62s-.32.32-.45.5-.3.53-.67.5c.63-2,.19-3.35-1-3.23,0,.26.34.46.25.75s-.23-.07-.36,0c-.14-.21-.33-.43-.57-.37s-.16.41-.16.62A2.23,2.23,0,0,1,53.68,8a2.83,2.83,0,0,0-.88.94c-.13.62-.74.47-1.12.66-.16.37-.57,1-.17,1.06.64,0,.58.34.65.67a1.15,1.15,0,0,0,1.11.91,1.91,1.91,0,0,0,1.85-1.08c.64-1,.92-1.05,1.85-.36.59.44.83.33.92-.43A7.07,7.07,0,0,0,57.87,9.42Zm-.42,1.25a8.16,8.16,0,0,0-.83-.52,1,1,0,0,0-1.44.26,1.14,1.14,0,0,0-.1.19,2.64,2.64,0,0,1-.9,1.11,1.07,1.07,0,0,1-1.52-.17,1,1,0,0,1-.24-.57.86.86,0,0,0-.29-.64c-.12-.08-.44.1-.36-.23s.27-.45.44-.39c.74.33.57-.34.74-.62l.88-.94c.59-.47.35-1.28.78-1.82l.5.75c.37-.25.34-.63.42-1,.81,1-.08,2,0,3.07A2.25,2.25,0,0,0,57,8c.44.39.39,1,.64,1.4C57.62,9.84,57.8,10.3,57.45,10.67Z"/><path class="cls-2" d="M73.15,5.55c0,.1.13.38.26.87a2.61,2.61,0,0,1,.09.69h-.43a3.21,3.21,0,0,0-.95-1A2,2,0,0,0,71,5.81a1.45,1.45,0,0,0-1.2.61,3.76,3.76,0,0,0-.62,2.32A4.55,4.55,0,0,0,69.31,10a3.38,3.38,0,0,0,.43,1,1.54,1.54,0,0,0,.53.45,1.79,1.79,0,0,0,.9.22,1.69,1.69,0,0,0,1-.34,3.88,3.88,0,0,0,1-1,1.79,1.79,0,0,1,.46,0,1.94,1.94,0,0,1-.06.4c0,.05,0,.27-.11.64l0,.16-.07.23a1.78,1.78,0,0,1-.82.36,5.72,5.72,0,0,1-1.3.12A5.26,5.26,0,0,1,70.08,12a2.7,2.7,0,0,1-.9-.36,3.4,3.4,0,0,1-.86-.79,2.89,2.89,0,0,1-.46-.93,3.84,3.84,0,0,1-.16-1.12,3.48,3.48,0,0,1,.94-2.49,3.18,3.18,0,0,1,2.41-1,7,7,0,0,1,1.12.07,4.13,4.13,0,0,1,1,.18"/><path class="cls-2" d="M77.36,11l.11.07a.18.18,0,0,1,.06.09v0a1.33,1.33,0,0,1-.3.62.67.67,0,0,1-.47.16.72.72,0,0,1-.49-.16,1.38,1.38,0,0,1-.37-.58,1.61,1.61,0,0,1-.58.58,2,2,0,0,1-.91.19,1.07,1.07,0,0,1-.73-.22.71.71,0,0,1-.23-.58,1,1,0,0,1,.06-.34,1.13,1.13,0,0,1,.23-.34,2.63,2.63,0,0,1,.49-.39L74.6,10l1.21-.51V9.11a1.85,1.85,0,0,0-.16-.93A.39.39,0,0,0,75.31,8a1.13,1.13,0,0,0-.44.1.65.65,0,0,0-.3.25,1.19,1.19,0,0,0-.11.42,1.22,1.22,0,0,1-.06.26.56.56,0,0,1-.26.17l-.26.11a1,1,0,0,1-.41.14.24.24,0,0,1-.07-.18,1,1,0,0,1,.12-.49A2,2,0,0,1,74,8.23a2.5,2.5,0,0,1,.65-.39,3.18,3.18,0,0,1,1-.13,1.49,1.49,0,0,1,.66.15.75.75,0,0,1,.38.44,3.42,3.42,0,0,1,.11,1.06V11a.65.65,0,0,0,0,.31.17.17,0,0,0,.14.07.14.14,0,0,0,.09,0l.15-.24ZM75.79,9.87a4.3,4.3,0,0,0-.6.32,1.38,1.38,0,0,0-.47.46.79.79,0,0,0-.1.4.54.54,0,0,0,.13.37.39.39,0,0,0,.29.13.62.62,0,0,0,.45-.16,1.08,1.08,0,0,0,.3-.34,3.59,3.59,0,0,0,0-.73c0-.15,0-.3,0-.45"/><path class="cls-2" d="M77.62,11.73a.51.51,0,0,1,.16-.09,1.6,1.6,0,0,0,.47-.19,4.62,4.62,0,0,0,0-.83,16.1,16.1,0,0,0-.06-1.73.21.21,0,0,0-.07-.14,1.17,1.17,0,0,0-.33-.11.14.14,0,0,1-.11-.11V8.34a1.48,1.48,0,0,0,.64-.25,1.6,1.6,0,0,0,.43-.43l.14-.18h.33a1.38,1.38,0,0,1,0,.2v.85a4.55,4.55,0,0,1,.3-.47,1.88,1.88,0,0,1,.25-.24.53.53,0,0,1,.37-.13.63.63,0,0,1,.63.6.71.71,0,0,1-.14.42.42.42,0,0,1-.38.19.69.69,0,0,1-.43-.18.36.36,0,0,0-.21-.11h0a.39.39,0,0,0-.19.19,1.22,1.22,0,0,0-.13.53v.13c0,.25,0,.84,0,1.75a.62.62,0,0,0,.09.26,1,1,0,0,0,.17.1,1.57,1.57,0,0,0,.3,0,.5.5,0,0,1,.27.07.15.15,0,0,1,0,.14.4.4,0,0,1,0,.15h-.47l-.9-.05a4.09,4.09,0,0,0-.63,0h-.09l-.51,0v-.13a.45.45,0,0,0,0-.11"/><path class="cls-2" d="M81,12v-.32l.54-.08a.25.25,0,0,0,.16-.11.6.6,0,0,0,0-.3V9a1.66,1.66,0,0,0,0-.32.38.38,0,0,0-.19-.14A1.62,1.62,0,0,0,81,8.41V8.13a2.33,2.33,0,0,0,.87-.22,2.42,2.42,0,0,0,.56-.44h.32c0,.42,0,1,0,1.63l0,2.06c0,.13,0,.26,0,.39a2.68,2.68,0,0,0,.49.11l.2.05V12h-.41l-1.31,0a3.62,3.62,0,0,0-.46,0H81m.65-6a.68.68,0,0,1,.17-.45.64.64,0,0,1,.44-.17.62.62,0,0,1,.46.19.53.53,0,0,1,.19.41,1,1,0,0,1-.07.35.57.57,0,0,1-.24.27.54.54,0,0,1-.32.11.59.59,0,0,1-.43-.21.7.7,0,0,1-.2-.5"/><path class="cls-2" d="M83.07,8.15a2.78,2.78,0,0,0,.81-.49,2.93,2.93,0,0,0,.55-.8h.27a.8.8,0,0,1,0,.31V8h.11l.45,0h.37a1.64,1.64,0,0,1,0,.23,1.27,1.27,0,0,1,0,.28l-.24,0-.15,0h-.57v1.93a5.4,5.4,0,0,0,0,.7.66.66,0,0,0,.12.27.4.4,0,0,0,.24,0,.44.44,0,0,0,.2,0,1,1,0,0,0,.21-.15s0,0,.09-.07a.86.86,0,0,1,.19.19l0,.06a1.17,1.17,0,0,1-.47.44,1.33,1.33,0,0,1-.65.16.93.93,0,0,1-.72-.3,1.28,1.28,0,0,1-.28-.92l0-.91V8.48h-.49l-.06,0a.16.16,0,0,1,0-.09.41.41,0,0,1,0-.22"/><path class="cls-2" d="M89.51,11l.11.07a.12.12,0,0,1,0,.09v0a1.24,1.24,0,0,1-.3.62.63.63,0,0,1-.46.16.72.72,0,0,1-.49-.16,1.5,1.5,0,0,1-.38-.58,1.47,1.47,0,0,1-.58.58,2,2,0,0,1-.9.19,1.08,1.08,0,0,1-.74-.22.78.78,0,0,1-.23-.58.8.8,0,0,1,.07-.34,1.11,1.11,0,0,1,.22-.34,2.69,2.69,0,0,1,.5-.39l.37-.17L88,9.49V9.11a1.75,1.75,0,0,0-.16-.93A.36.36,0,0,0,87.46,8a1.13,1.13,0,0,0-.44.1.61.61,0,0,0-.3.25,1,1,0,0,0-.11.42,1.22,1.22,0,0,1-.06.26.56.56,0,0,1-.26.17L86,9.33a1.05,1.05,0,0,1-.41.14.21.21,0,0,1-.07-.18,1.17,1.17,0,0,1,.11-.49,2.36,2.36,0,0,1,.52-.57,2.41,2.41,0,0,1,.66-.38,3.16,3.16,0,0,1,1-.14,1.49,1.49,0,0,1,.66.15.79.79,0,0,1,.38.44A3.42,3.42,0,0,1,89,9.36V11a.65.65,0,0,0,0,.31.17.17,0,0,0,.14.07l.09,0,.14-.24ZM87.94,9.87a3.46,3.46,0,0,0-.6.32,1.44,1.44,0,0,0-.5.45.75.75,0,0,0-.09.41.52.52,0,0,0,.12.36.41.41,0,0,0,.3.14.65.65,0,0,0,.46-.16,1.22,1.22,0,0,0,.3-.34,3.59,3.59,0,0,0,0-.73c0-.16,0-.3,0-.45"/><path class="cls-2" d="M89.63,10.58l.21,0h.1l0,.06c.1.2.22.39.34.58a2.57,2.57,0,0,0,.33.33,1.62,1.62,0,0,0,.35.17,1,1,0,0,0,.34.06.73.73,0,0,0,.52-.21.58.58,0,0,0,.21-.44.43.43,0,0,0-.08-.27.9.9,0,0,0-.32-.23,6.13,6.13,0,0,0-.61-.18l-.58-.17a1.41,1.41,0,0,1-.4-.25.86.86,0,0,1-.26-.37,1.19,1.19,0,0,1-.13-.49,1.67,1.67,0,0,1,.1-.63,1.31,1.31,0,0,1,.31-.43,1.29,1.29,0,0,1,.42-.26,1.53,1.53,0,0,1,.6-.12,4.25,4.25,0,0,1,.8.07,1.85,1.85,0,0,1,.6.2,3.4,3.4,0,0,1,.08.53c0,.28.06.45.06.5a.19.19,0,0,1,0,.07.45.45,0,0,1-.2,0H92.3l-.12-.22a1.83,1.83,0,0,0-.47-.63,1,1,0,0,0-.56-.19.87.87,0,0,0-.56.2.59.59,0,0,0-.16.4A.47.47,0,0,0,90.6,9a1.07,1.07,0,0,0,.58.27,5,5,0,0,1,.93.3,1.4,1.4,0,0,1,.6.5,1.22,1.22,0,0,1,.17.67,1.27,1.27,0,0,1-.42,1,1.7,1.7,0,0,1-1.22.4,2.65,2.65,0,0,1-.55-.06,4.15,4.15,0,0,1-.48-.1l-.34-.14a.3.3,0,0,1-.08-.08,3,3,0,0,1-.06-.42c-.06-.41-.09-.65-.09-.73"/><path class="cls-2" d="M71.1,24.29h-.89l-1.38-7.07a.47.47,0,0,0-.16-.31,1.87,1.87,0,0,0-.55-.18l.07-.46h2.72l0,.47L70,17a.1.1,0,0,0-.1.09h0v.15l1,5.17a1.74,1.74,0,0,1,0,.39h.11l2.39-5.08a3.26,3.26,0,0,0,.25-.61c0-.07-.06-.14-.19-.18a3,3,0,0,0-.58-.17l0-.46H75.4l0,.48a1.69,1.69,0,0,0-.62.21,1.31,1.31,0,0,0-.31.43Z"/><path class="cls-2" d="M80,23.35l.19.31a2.76,2.76,0,0,1-1.44.63c-.33,0-.5-.19-.5-.55a5.91,5.91,0,0,1,.2-1.1l.11-.55h-.09c-.67,1.5-1.47,2.24-2.38,2.24a1,1,0,0,1-.89-.44,1.94,1.94,0,0,1-.3-1.14,4.66,4.66,0,0,1,.91-2.95A2.77,2.77,0,0,1,78,18.65a3,3,0,0,1,1.1.24,5.43,5.43,0,0,0,.75-.24l.18.15a10.85,10.85,0,0,0-.39,1.59L79.13,23a2,2,0,0,0,0,.42c0,.13,0,.2.15.2A2.37,2.37,0,0,0,80,23.35Zm-1.2-3.77a2.14,2.14,0,0,0-1.1-.33,1.1,1.1,0,0,0-.75.18,3.09,3.09,0,0,0-.7,1.28,5.17,5.17,0,0,0-.3,1.65c0,.79.18,1.18.55,1.18s.93-.45,1.44-1.35A6.87,6.87,0,0,0,78.76,19.58Z"/><path class="cls-2" d="M82.61,23.35l.19.31a2.19,2.19,0,0,1-1.43.63c-.41,0-.61-.24-.61-.72a8,8,0,0,1,.12-1l1.17-6.06a1.94,1.94,0,0,0,0-.24c0-.15-.29-.28-.88-.38l.06-.37c.6-.08,1.2-.14,1.8-.16l.11.11a9,9,0,0,1-.13,1l-1.22,6.3a2.59,2.59,0,0,0-.07.55c0,.17.06.25.18.25A2.35,2.35,0,0,0,82.61,23.35Z"/><path class="cls-2" d="M85.54,24.29H85l-.86-4.59a.55.55,0,0,0-.2-.39,2.35,2.35,0,0,0-.71-.12l.06-.37a15.67,15.67,0,0,1,1.6-.16l.11.12.71,4.36h0A13.18,13.18,0,0,0,87,21.37a3.65,3.65,0,0,0,.56-1.65.42.42,0,0,0-.14-.32.69.69,0,0,0-.28-.15l-.47-.06.05-.37c.53-.08,1.07-.13,1.6-.16l.11.12a1,1,0,0,1,.06.41,4.05,4.05,0,0,1-.6,1.79A15.85,15.85,0,0,1,85.54,24.29Z"/><path class="cls-2" d="M94.14,23.35l.19.31a2.68,2.68,0,0,1-1.45.63c-.33,0-.49-.19-.49-.55a8.16,8.16,0,0,1,.19-1.1l.12-.55h-.07a4.81,4.81,0,0,1-1.16,1.63,2.16,2.16,0,0,1-1.42.61c-.63,0-.94-.37-.94-1.1a6.06,6.06,0,0,1,.15-1l.49-2.32a1,1,0,0,0,0-.24c0-.16-.29-.28-.88-.39l.06-.37c.6-.08,1.2-.13,1.8-.16l.11.12a6,6,0,0,1-.13,1L90.26,22a8,8,0,0,0-.15,1c0,.37.14.55.42.55a1.22,1.22,0,0,0,.76-.37,4.56,4.56,0,0,0,.81-1,6.2,6.2,0,0,0,.67-1.54,6.57,6.57,0,0,0,.28-1.81,3.7,3.7,0,0,0,.93-.16l.18.15c-.15.51-.28,1-.38,1.54l-.49,2.7a3,3,0,0,0,0,.42c0,.13,0,.2.15.2A2.58,2.58,0,0,0,94.14,23.35Z"/><path class="cls-2" d="M97.7,23.36l.15.32a3.08,3.08,0,0,1-1.65.61.92.92,0,0,1-.69-.23.82.82,0,0,1-.25-.61,4.93,4.93,0,0,1,.1-.85l.55-3.2h-.77l0-.48.64-.13a.56.56,0,0,0,.33-.25c.07-.13.23-.55.49-1.22l.68-.07-.28,1.48h1.22l-.12.67H96.92l-.63,3.41a3.93,3.93,0,0,0-.06.48c0,.22.13.33.37.33A3.76,3.76,0,0,0,97.7,23.36Z"/><path class="cls-2" d="M102.4,24.29c-.39,0-.59-.26-.59-.79a20.66,20.66,0,0,1,.67-2.82,4,4,0,0,0,.16-.9.35.35,0,0,0-.3-.38h-.09a1.5,1.5,0,0,0-.88.38,4.13,4.13,0,0,0-.91,1,5.76,5.76,0,0,0-.71,1.53,6.37,6.37,0,0,0-.27,1.85,3.31,3.31,0,0,0-.94.16l-.19-.15a11.93,11.93,0,0,0,.38-1.54l1.17-6.06a1,1,0,0,0,0-.25c0-.14-.29-.28-.88-.38l.06-.37a15.6,15.6,0,0,1,1.8-.15l.11.11a7.58,7.58,0,0,1-.13,1l-.39,2a6.68,6.68,0,0,1-.25.84,10.31,10.31,0,0,0-.29,1l-.11.46h.07a4.72,4.72,0,0,1,1.25-1.65,2.48,2.48,0,0,1,1.53-.6.83.83,0,0,1,1,.69.65.65,0,0,1,0,.24,14,14,0,0,1-.44,2,17.61,17.61,0,0,0-.43,1.88c0,.13.06.2.18.2a2.5,2.5,0,0,0,.7-.28l.19.31A2.68,2.68,0,0,1,102.4,24.29Z"/><path class="cls-2" d="M109.59,23.35l.19.31a2.74,2.74,0,0,1-1.42.63c-.33,0-.5-.19-.5-.55a6.84,6.84,0,0,1,.19-1.1l.11-.55h-.08c-.68,1.5-1.47,2.24-2.38,2.24a1,1,0,0,1-.9-.44,2,2,0,0,1-.29-1.14,4.6,4.6,0,0,1,.91-2.95,2.77,2.77,0,0,1,2.2-1.15,3,3,0,0,1,1.1.24,4.91,4.91,0,0,0,.74-.24l.19.15a10.85,10.85,0,0,0-.39,1.59L108.78,23a2,2,0,0,0,0,.42c0,.13,0,.2.15.2A2.36,2.36,0,0,0,109.59,23.35Zm-1.2-3.77a2.14,2.14,0,0,0-1.1-.33,1.14,1.14,0,0,0-.76.18,3,3,0,0,0-.69,1.28,5.17,5.17,0,0,0-.3,1.65c0,.79.17,1.18.55,1.18s.92-.45,1.44-1.35A6.87,6.87,0,0,0,108.39,19.58Z"/><path class="cls-2" d="M112.05,24.27l-.93-4.57a.67.67,0,0,0-.2-.39,2.46,2.46,0,0,0-.71-.12l.06-.37a15.17,15.17,0,0,1,1.6-.16l.1.12.83,4.53h0a11.56,11.56,0,0,0,1.2-2,4,4,0,0,0,.48-1.66.34.34,0,0,0-.14-.31.48.48,0,0,0-.28-.15,3.55,3.55,0,0,0-.47-.06l.06-.37c.53-.08,1.06-.13,1.6-.16l.1.12a1,1,0,0,1,.07.41,5.28,5.28,0,0,1-.66,2.16,15.93,15.93,0,0,1-1.58,2.47,12.61,12.61,0,0,1-2,2,3.16,3.16,0,0,1-1.79.87c-.34,0-.52-.09-.52-.27a1.47,1.47,0,0,1,.18-.65c.11-.24.23-.36.33-.36a2.26,2.26,0,0,1,.39.07,1.45,1.45,0,0,0,.35.07C110.64,25.56,111.25,25.13,112.05,24.27Z"/><path class="cls-2" d="M121,23.35l.2.31a2.84,2.84,0,0,1-1.45.63c-.33,0-.5-.19-.5-.55a6.86,6.86,0,0,1,.2-1.1l.11-.55h-.09c-.67,1.5-1.46,2.24-2.38,2.24a1,1,0,0,1-.89-.44,2.1,2.1,0,0,1-.3-1.14,4.66,4.66,0,0,1,.91-2.95A2.79,2.79,0,0,1,119,18.65a3,3,0,0,1,1.1.24,4.91,4.91,0,0,0,.74-.24l.19.15a10.85,10.85,0,0,0-.39,1.59L120.13,23a2,2,0,0,0,0,.42c0,.13,0,.2.15.2A2.31,2.31,0,0,0,121,23.35Zm-1.2-3.77a2.14,2.14,0,0,0-1.1-.33,1.12,1.12,0,0,0-.76.18,2.9,2.9,0,0,0-.71,1.28,5.19,5.19,0,0,0-.31,1.66c0,.78.17,1.17.53,1.17s.93-.45,1.43-1.34A6.63,6.63,0,0,0,119.75,19.58Z"/><path class="cls-2" d="M128.74,24.29c-.39,0-.59-.26-.59-.79a22.22,22.22,0,0,1,.66-2.82,4,4,0,0,0,.16-.9.34.34,0,0,0-.28-.38h-.09a1.5,1.5,0,0,0-1,.55,5,5,0,0,0-.87,1.27,11.61,11.61,0,0,0-.58,1.52,5.27,5.27,0,0,0-.23,1.42,3.24,3.24,0,0,0-.93.16l-.19-.15c.08-.23.21-.75.39-1.54l.55-2.36a2.52,2.52,0,0,0,0-.48.33.33,0,0,0-.36-.38,1.44,1.44,0,0,0-1,.55,5.58,5.58,0,0,0-.92,1.37,6.49,6.49,0,0,0-.65,2.84,3.63,3.63,0,0,0-.93.16l-.19-.15a13.31,13.31,0,0,0,.38-1.54l.49-2.72a1,1,0,0,0,0-.24c0-.15-.29-.28-.88-.39l.06-.36a15.62,15.62,0,0,1,1.8-.16l.1.11-.48,1.95h.08a4.41,4.41,0,0,1,1-1.53,2.11,2.11,0,0,1,1.49-.71.8.8,0,0,1,.91.67,1,1,0,0,1,0,.24,4.52,4.52,0,0,1-.29,1.31h.07a5,5,0,0,1,1-1.53,2.1,2.1,0,0,1,1.5-.71.83.83,0,0,1,.95.69.65.65,0,0,1,0,.24,15.5,15.5,0,0,1-.43,2,17.66,17.66,0,0,0-.44,1.88c0,.13.06.2.18.2a2.39,2.39,0,0,0,.7-.28l.2.31A2.71,2.71,0,0,1,128.74,24.29Z"/></svg>