<svg id="Group_4" data-name="Group 4" xmlns="http://www.w3.org/2000/svg" width="120" height="120" viewBox="0 0 150 150">
  <rect id="Rectangle_1" data-name="Rectangle 1" width="150" height="150" rx="20" fill="#fff"/>
  <path id="vercel-logotype-dark" d="M55.124,6.2c-4.276,0-7.359,2.789-7.359,6.972s3.467,6.972,7.747,6.972a7.993,7.993,0,0,0,6.271-2.746l-2.963-1.712a4.432,4.432,0,0,1-3.308,1.356,4.137,4.137,0,0,1-4.017-2.518H62.348a7.009,7.009,0,0,0,.136-1.356C62.483,8.986,59.4,6.2,55.124,6.2Zm-3.66,5.616a3.92,3.92,0,0,1,7.321,0Zm-.875-9.877L39.856,20.528,29.119,1.937h4.024l6.709,11.62L46.56,1.937ZM14.312,0,28.623,24.789H0ZM78.054,13.169a3.919,3.919,0,0,0,7.282,1.968l2.975,1.716a7.171,7.171,0,0,1-6.383,3.288c-4.28,0-7.359-2.789-7.359-6.972S77.651,6.2,81.927,6.2A7.175,7.175,0,0,1,88.31,9.486L85.335,11.2a3.919,3.919,0,0,0-7.282,1.968ZM110,1.937V19.754h-3.486V1.937ZM96.831,6.2c-4.276,0-7.359,2.789-7.359,6.972s3.47,6.972,7.746,6.972a7.993,7.993,0,0,0,6.271-2.746l-2.963-1.712a4.432,4.432,0,0,1-3.308,1.356A4.137,4.137,0,0,1,93.2,14.521h10.853a7.01,7.01,0,0,0,.135-1.356C104.19,8.986,101.111,6.2,96.831,6.2Zm-3.66,5.616a3.92,3.92,0,0,1,7.321,0ZM73.406,6.585v3.753a4.415,4.415,0,0,0-1.239-.19,3.7,3.7,0,0,0-3.873,3.873v5.732H64.807V6.585h3.486v3.563C68.293,8.18,70.582,6.585,73.406,6.585Z" transform="translate(20 63)"/>
</svg>
