<svg id="Group_17" data-name="Group 17" xmlns="http://www.w3.org/2000/svg" width="120" height="120" viewBox="0 0 150 150">
  <rect id="Rectangle_1" data-name="Rectangle 1" width="150" height="150" rx="20" fill="#fff"/>
  <g id="Group_16" data-name="Group 16" transform="translate(-684 222.3)">
    <g id="Group_14" data-name="Group 14" transform="translate(704 -135.546)">
      <path id="Path_63" data-name="Path 63" d="M252.107,241.069h-5.668v.6c1.773,0,2.058.38,2.058,2.628v4.053c0,2.248-.284,2.66-2.058,2.66-1.361-.19-2.28-.918-3.546-2.312l-1.456-1.583c1.963-.349,3.008-1.583,3.008-2.977,0-1.741-1.488-3.071-4.275-3.071H234.6v.6c1.773,0,2.058.38,2.058,2.628v4.053c0,2.248-.285,2.66-2.058,2.66v.6h6.3v-.6c-1.773,0-2.058-.412-2.058-2.66v-1.139h.538l3.515,4.4h9.214c4.528,0,6.491-2.406,6.491-5.288S256.636,241.069,252.107,241.069ZM238.84,246.23v-4.211h1.3a2.106,2.106,0,0,1,0,4.211Zm13.362,4.4h-.222c-1.14,0-1.3-.285-1.3-1.741v-6.871h1.52c3.293,0,3.894,2.406,3.894,4.275C256.1,248.225,255.5,250.632,252.2,250.632Z" transform="translate(-202.585 -237.902)" fill="#146188"/>
      <path id="Path_64" data-name="Path 64" d="M166.712,242.432l2.185-6.46c.634-1.868.348-2.406-1.678-2.406v-.634h5.953v.634c-1.995,0-2.47.475-3.262,2.786l-3.61,10.829h-.412l-3.23-9.911-3.293,9.911h-.412l-3.515-10.829c-.76-2.312-1.266-2.786-3.1-2.786v-.634h7.03v.634c-1.868,0-2.375.443-1.71,2.406l2.121,6.46,3.2-9.5h.6Z" transform="translate(-152.337 -232.932)" fill="#146188"/>
      <path id="Path_65" data-name="Path 65" d="M207,251.378c-3.483,0-6.333-2.565-6.333-5.7,0-3.1,2.85-5.668,6.333-5.668s6.333,2.565,6.333,5.668C213.333,248.813,210.484,251.378,207,251.378Zm0-10.385c-2.913,0-3.926,2.628-3.926,4.686,0,2.091,1.013,4.687,3.926,4.687,2.945,0,3.958-2.6,3.958-4.687C210.959,243.62,209.946,240.992,207,240.992Z" transform="translate(-181.86 -237.255)" fill="#146188"/>
      <path id="Path_66" data-name="Path 66" d="M304.988,246.009v.633h-7.251v-.633c2.122,0,2.5-.538,2.5-3.705v-5.066c0-3.167-.38-3.673-2.5-3.673v-.634h6.554c3.261,0,5.067,1.678,5.067,3.927,0,2.185-1.805,3.895-5.067,3.895h-1.8V242.3C302.486,245.471,302.866,246.009,304.988,246.009Zm-.7-11.938h-1.8v5.51h1.8a2.475,2.475,0,0,0,2.6-2.723A2.51,2.51,0,0,0,304.291,234.071Z" transform="translate(-241.154 -232.931)" fill="#363333"/>
      <path id="Path_67" data-name="Path 67" d="M350.495,248.637l-.158.57c-.285,1.045-.634,1.425-2.882,1.425h-.444c-1.646,0-1.931-.38-1.931-2.628v-1.457c2.47,0,2.66.221,2.66,1.868h.6V243.7h-.6c0,1.647-.19,1.868-2.66,1.868v-3.546h1.741c2.249,0,2.6.38,2.882,1.425l.158.6h.506l-.221-2.976h-9.31v.6c1.773,0,2.058.38,2.058,2.628v4.053c0,2.057-.242,2.575-1.64,2.649-1.329-.2-2.241-.927-3.489-2.3l-1.457-1.583c1.963-.349,3.008-1.583,3.008-2.977,0-1.741-1.488-3.071-4.275-3.071H329.47v.6c1.773,0,2.058.38,2.058,2.628v4.053c0,2.248-.285,2.66-2.058,2.66v.6h6.3v-.6c-1.773,0-2.058-.412-2.058-2.66v-1.139h.538l3.515,4.4H350.78l.19-2.976h-.475Zm-16.782-2.407v-4.211h1.3a2.106,2.106,0,0,1,0,4.211Z" transform="translate(-260.538 -237.902)" fill="#363333"/>
      <path id="Path_68" data-name="Path 68" d="M393.8,251.378a4.682,4.682,0,0,1-2.85-1.077,2.277,2.277,0,0,0-.506,1.077h-.6v-4.369h.633a3.514,3.514,0,0,0,3.578,3.325,1.63,1.63,0,0,0,1.836-1.52c0-.823-.728-1.457-2.026-2.058l-1.8-.855a3.445,3.445,0,0,1-2.217-3.04c0-1.52,1.425-2.818,3.388-2.818a3.967,3.967,0,0,1,2.47.823,1.784,1.784,0,0,0,.412-.855h.6v3.737h-.665c-.222-1.489-1.045-2.723-2.723-2.723-.887,0-1.71.507-1.71,1.3,0,.823.665,1.266,2.185,1.963l1.741.855a3.3,3.3,0,0,1,2.121,2.85A3.576,3.576,0,0,1,393.8,251.378Z" transform="translate(-297.416 -237.255)" fill="#363333"/>
      <path id="Path_69" data-name="Path 69" d="M418.861,251.378a4.68,4.68,0,0,1-2.85-1.077,2.274,2.274,0,0,0-.506,1.077h-.6v-4.369h.634a3.514,3.514,0,0,0,3.578,3.325,1.631,1.631,0,0,0,1.837-1.52c0-.823-.728-1.457-2.027-2.058l-1.8-.855a3.446,3.446,0,0,1-2.217-3.04c0-1.52,1.425-2.818,3.388-2.818a3.967,3.967,0,0,1,2.47.823,1.781,1.781,0,0,0,.411-.855h.6v3.737h-.665c-.222-1.489-1.045-2.723-2.723-2.723-.887,0-1.71.507-1.71,1.3,0,.823.665,1.266,2.185,1.963l1.742.855a3.3,3.3,0,0,1,2.121,2.85A3.576,3.576,0,0,1,418.861,251.378Z" transform="translate(-312.724 -237.255)" fill="#363333"/>
    </g>
    <g id="Group_15" data-name="Group 15" transform="translate(742.309 -174.3)">
      <g id="Group_13" data-name="Group 13">
        <path id="Path_70" data-name="Path 70" d="M70.967,241.047a14.016,14.016,0,0,0,7.9,12.612L72.18,235.344A13.962,13.962,0,0,0,70.967,241.047Z" transform="translate(-68.645 -224.713)" fill="#363333"/>
        <path id="Path_71" data-name="Path 71" d="M98.058,227.3a7.379,7.379,0,0,0-1.156-3.865,6.56,6.56,0,0,1-1.376-3.286,2.426,2.426,0,0,1,2.353-2.487c.062,0,.121.008.181.011a14.01,14.01,0,0,0-21.171,2.638c.329.01.639.017.9.017,1.466,0,3.734-.178,3.734-.178a.579.579,0,0,1,.09,1.154s-.759.09-1.6.133l5.1,15.179,3.067-9.2L86,221.434c-.755-.044-1.469-.133-1.469-.133a.579.579,0,0,1,.088-1.154s2.314.178,3.691.178c1.466,0,3.735-.178,3.735-.178a.579.579,0,0,1,.09,1.154s-.761.089-1.6.133L95.593,236.5l1.4-4.671A16.93,16.93,0,0,0,98.058,227.3Z" transform="translate(-72.262 -211.669)" fill="#363333"/>
        <path id="Path_72" data-name="Path 72" d="M101.007,253.149l-4.2,12.217a14.021,14.021,0,0,0,8.612-.223,1.22,1.22,0,0,1-.1-.193Z" transform="translate(-84.427 -235.589)" fill="#363333"/>
        <path id="Path_73" data-name="Path 73" d="M130.329,232.723a10.738,10.738,0,0,1,.095,1.441,13.221,13.221,0,0,1-1.066,5.019l-4.28,12.376a14.015,14.015,0,0,0,5.251-18.836Z" transform="translate(-101.698 -223.112)" fill="#363333"/>
        <path id="Path_74" data-name="Path 74" d="M81.335,208.025a16.335,16.335,0,1,0,16.336,16.334A16.353,16.353,0,0,0,81.335,208.025Zm0,31.921a15.586,15.586,0,1,1,15.585-15.586A15.6,15.6,0,0,1,81.335,239.946Z" transform="translate(-65 -208.025)" fill="#363333"/>
      </g>
    </g>
  </g>
</svg>
