<svg id="Group_17" data-name="Group 17" xmlns="http://www.w3.org/2000/svg" width="120" height="120" viewBox="0 0 150 150">
  <rect id="Rectangle_1" data-name="Rectangle 1" width="150" height="150" rx="20" fill="#fff"/>
  <g id="adobe-xd-seeklogo.com" transform="translate(46 46)">
    <path id="Path_57" data-name="Path 57" d="M10.427,0H48.455A10.418,10.418,0,0,1,58.882,10.427V46.983A10.418,10.418,0,0,1,48.455,57.41H10.427A10.418,10.418,0,0,1,0,46.983V10.427A10.418,10.418,0,0,1,10.427,0Z" fill="#470137"/>
    <g id="Group_11" data-name="Group 11" transform="translate(8.577 12.582)">
      <path id="Path_58" data-name="Path 58" d="M57.346,60.368l-7.36,12.144,7.851,12.88a.422.422,0,0,1,.049.294c-.025.1-.123.025-.27.049H52c-.393,0-.662-.025-.834-.27-.515-1.03-1.055-2.036-1.57-3.067-.515-1.006-1.08-2.036-1.668-3.091s-1.178-2.11-1.766-3.189h-.049c-.515,1.055-1.08,2.11-1.644,3.165s-1.129,2.11-1.668,3.14c-.564,1.03-1.129,2.085-1.693,3.091-.1.245-.294.27-.564.27h-5.4c-.1,0-.172.049-.172-.074a.341.341,0,0,1,.049-.27L42.65,72.93,35.216,60.343c-.074-.1-.1-.2-.049-.245a.284.284,0,0,1,.245-.1h5.569a1.448,1.448,0,0,1,.343.049.7.7,0,0,1,.245.221c.466,1.055,1.006,2.11,1.57,3.165.589,1.055,1.153,2.085,1.766,3.116.589,1.03,1.129,2.061,1.644,3.116H46.6c.515-1.08,1.055-2.134,1.595-3.165s1.1-2.061,1.668-3.091,1.1-2.085,1.644-3.091a.417.417,0,0,1,.147-.245.468.468,0,0,1,.319-.049h5.177a.226.226,0,0,1,.27.172c.025.025-.025.123-.074.172Z" transform="translate(-34.961 -57.862)" fill="#ff61f6"/>
      <path id="Path_59" data-name="Path 59" d="M140.626,79.674a12.2,12.2,0,0,1-5.275-1.1,8.553,8.553,0,0,1-3.7-3.337A10.616,10.616,0,0,1,130.3,69.64a10.076,10.076,0,0,1,1.349-5.177,10.188,10.188,0,0,1,3.9-3.8,12.55,12.55,0,0,1,6.207-1.423,4.381,4.381,0,0,1,.515.025c.221.025.466.025.761.049V51.558c0-.172.074-.27.245-.27h4.98a.22.22,0,0,1,.245.172V74.866c0,.442.025.932.049,1.472.049.515.074,1.006.1,1.423a.4.4,0,0,1-.245.393,18.737,18.737,0,0,1-4,1.178A21.642,21.642,0,0,1,140.626,79.674Zm2.4-4.907v-10.8a6.276,6.276,0,0,0-.662-.123c-.27-.025-.54-.049-.81-.049a6.048,6.048,0,0,0-2.772.638,5.5,5.5,0,0,0-2.085,1.816,5.438,5.438,0,0,0-.81,3.116,6.836,6.836,0,0,0,.417,2.527,4.8,4.8,0,0,0,1.1,1.742,4.239,4.239,0,0,0,1.668.981,6.423,6.423,0,0,0,2.036.319c.368,0,.712-.025,1.03-.049A2.145,2.145,0,0,0,143.03,74.768Z" transform="translate(-106.906 -51.284)" fill="#ff61f6"/>
    </g>
  </g>
</svg>
