<svg xmlns="http://www.w3.org/2000/svg" width="62" height="51.1" viewBox="0 0 62 51.1">
  <path id="twitter-filled" d="M56.1,15.3l3.8-4.8a6.271,6.271,0,0,0,1.5-2.8,15.5,15.5,0,0,1-7.6,2.4h-.7l-.4-.4a12.911,12.911,0,0,0-8.6-3.2A12.569,12.569,0,0,0,31.6,19a6.6,6.6,0,0,0,.1,1.4l.3,2-2.1-.1C17.1,21.9,6.6,10.9,4.9,9c-2.8,5-1.2,9.8.5,12.8l3.4,5.6-5.4-3a12.228,12.228,0,0,0,4.8,9.9l2.7,2L8.2,37.4a12,12,0,0,0,8.3,8l3.7,1-3.5,2.4c-5.6,4-12.6,3.7-15.7,3.4,6.3,4.4,13.8,5.4,19,5.4a28.728,28.728,0,0,0,7.5-.7c28-6.6,29.3-31.6,29.3-36.6v-.7l.6-.4A53.706,53.706,0,0,0,63,13.3c-.3.1-.7.3-1.1.4Z" transform="translate(-1 -6.5)"/>
</svg>
