<svg xmlns="http://www.w3.org/2000/svg" width="62" height="62" viewBox="0 0 62 62">
  <g id="Group_191" data-name="Group 191" transform="translate(-476 -348)">
    <rect id="Rectangle_9" data-name="Rectangle 9" width="62" height="62" rx="31" transform="translate(476 348)" fill="#fff" opacity="0.13"/>
    <rect id="Rectangle_8" data-name="Rectangle 8" width="50" height="50" rx="25" transform="translate(482 354)" fill="#04d48e" opacity="0.13"/>
    <g id="_116-youtube" data-name="116-youtube" transform="translate(495 367.247)">
      <path id="Path_14089" data-name="Path 14089" d="M9.939,7.856A.751.751,0,0,0,8.805,8.5v7a.751.751,0,0,0,1.134.645l5.869-3.495a.751.751,0,0,0,0-1.289Zm.366,6.325V9.821L13.96,12Z" fill="#108f64"/>
      <path id="Path_14090" data-name="Path 14090" d="M19.9,3.271a60.532,60.532,0,0,0-15.808,0A4.373,4.373,0,0,0,.447,6.907a29.238,29.238,0,0,0,0,10.186A4.372,4.372,0,0,0,4.1,20.729a55.858,55.858,0,0,0,7.915.519A55.519,55.519,0,0,0,19.9,20.73a4.375,4.375,0,0,0,3.648-3.636,29.249,29.249,0,0,0,0-10.188A4.373,4.373,0,0,0,19.9,3.271Zm2.17,13.573a2.878,2.878,0,0,1-2.39,2.4,58.871,58.871,0,0,1-15.368,0,2.878,2.878,0,0,1-2.391-2.4,27.462,27.462,0,0,1,0-9.687,2.88,2.88,0,0,1,2.392-2.4A54.325,54.325,0,0,1,12,4.251a54.334,54.334,0,0,1,7.684.5,2.878,2.878,0,0,1,2.391,2.4,27.468,27.468,0,0,1,0,9.688Z" fill="#108f64"/>
    </g>
  </g>
</svg>
